G75*
%MOIN*%
%OFA0B0*%
%FSLAX24Y24*%
%IPPOS*%
%LPD*%
%AMOC8*
5,1,8,0,0,1.08239X$1,22.5*
%
%ADD10R,0.0512X0.0591*%
%ADD11R,0.0472X0.0217*%
%ADD12R,0.0315X0.0315*%
%ADD13R,0.0560X0.0560*%
%ADD14C,0.0560*%
%ADD15R,0.0394X0.0236*%
%ADD16OC8,0.0660*%
%ADD17C,0.0660*%
%ADD18R,0.0660X0.0660*%
%ADD19C,0.0520*%
%ADD20C,0.0600*%
%ADD21C,0.0594*%
%ADD22C,0.1227*%
%ADD23R,0.0515X0.0515*%
%ADD24C,0.0515*%
%ADD25C,0.0317*%
%ADD26C,0.0118*%
%ADD27C,0.0157*%
%ADD28C,0.0278*%
%ADD29C,0.0079*%
%ADD30C,0.0160*%
%ADD31C,0.0059*%
D10*
X014720Y011110D03*
X015520Y011110D03*
D11*
X016360Y011474D03*
X016360Y010726D03*
X017384Y010726D03*
X017384Y011100D03*
X017384Y011474D03*
D12*
X017014Y011976D03*
X016414Y011976D03*
X016877Y010218D03*
X017477Y010218D03*
X012991Y011248D03*
X012815Y010687D03*
X012831Y010096D03*
X012231Y010096D03*
X012215Y010687D03*
X012391Y011248D03*
D13*
X014923Y003876D03*
D14*
X015710Y003876D03*
X016498Y003876D03*
X017285Y003876D03*
D15*
X019332Y011330D03*
X020198Y011330D03*
D16*
X009405Y010173D03*
D17*
X010405Y010173D03*
X010405Y009173D03*
X009405Y009173D03*
X009405Y008173D03*
X010405Y008173D03*
X011405Y008173D03*
X011405Y009173D03*
X011405Y010173D03*
X018368Y010173D03*
X019366Y010173D03*
X019366Y009173D03*
X018368Y009173D03*
D18*
X018368Y008173D03*
X019366Y008173D03*
D19*
X018169Y011980D03*
X018169Y012980D03*
X014854Y012980D03*
X014854Y011980D03*
X011515Y011980D03*
X011515Y012980D03*
D20*
X011717Y005992D02*
X011117Y005992D01*
X011117Y004212D02*
X011717Y004212D01*
X009157Y004212D02*
X008557Y004212D01*
X008557Y005992D02*
X009157Y005992D01*
D21*
X012571Y006787D03*
X012571Y007771D03*
X012571Y008756D03*
D22*
X015326Y009681D03*
X015326Y005862D03*
D23*
X013637Y013935D03*
D24*
X014637Y013935D03*
X015637Y013935D03*
D25*
X015848Y007133D03*
D26*
X016655Y007941D01*
X016655Y009683D01*
X015758Y010580D01*
X015590Y010580D01*
X015520Y010651D01*
X015520Y011110D01*
X016281Y010736D02*
X016360Y010726D01*
X017384Y010726D01*
X017384Y011474D02*
X017423Y011523D01*
X017423Y011887D01*
X017334Y011976D01*
X017014Y011976D01*
D27*
X016358Y011476D02*
X016360Y011474D01*
X016358Y011476D02*
X016033Y011476D01*
X015945Y011387D01*
X015945Y011220D01*
X015834Y011110D01*
X015520Y011110D01*
X017384Y010726D02*
X017970Y010726D01*
X018574Y011330D01*
X019332Y011330D01*
X020198Y011330D02*
X020216Y011313D01*
X020216Y009360D01*
X020029Y009173D01*
X019366Y009173D01*
X018368Y009173D01*
X017844Y009173D01*
X017441Y008769D01*
X017441Y008025D01*
X017443Y008023D01*
X017443Y006297D01*
X015917Y004476D01*
X013634Y004476D01*
X013132Y004978D01*
X013132Y007891D01*
X012767Y008256D01*
X011405Y009173D02*
X010405Y009173D01*
X009405Y009173D01*
X017384Y010726D02*
X017477Y010633D01*
X017477Y010218D01*
D28*
X017078Y009722D03*
X016301Y011100D03*
X015917Y012291D03*
X014096Y010962D03*
X014155Y010490D03*
X012374Y011700D03*
X010700Y011710D03*
X008569Y011027D03*
X010858Y014027D03*
X015317Y008551D03*
X015602Y008315D03*
X015937Y008147D03*
X015130Y007271D03*
X013860Y008078D03*
X011980Y005401D03*
X012285Y004309D03*
X013773Y003496D03*
X014263Y004889D03*
X015878Y005007D03*
X016803Y004712D03*
X017689Y005204D03*
X017689Y005795D03*
X018624Y005315D03*
X018624Y003496D03*
X020854Y006675D03*
X020868Y008295D03*
X020809Y010194D03*
X020809Y011444D03*
X020809Y012685D03*
X020799Y014063D03*
X019421Y013994D03*
X019165Y012507D03*
X017492Y013994D03*
X018870Y010736D03*
X008488Y006771D03*
X008435Y003492D03*
D29*
X013860Y008078D02*
X014057Y007881D01*
X015760Y007881D01*
X015809Y007832D01*
X016094Y007832D01*
X016252Y007990D01*
X016252Y008236D01*
X015671Y008817D01*
X014677Y008817D01*
X013651Y009842D01*
X013651Y013921D01*
X013637Y013935D01*
X013317Y011250D02*
X012993Y011250D01*
X012991Y011248D01*
X013317Y011250D02*
X013484Y011082D01*
X013484Y009773D01*
X014884Y008374D01*
X015159Y008374D01*
X015317Y008531D01*
X015317Y008551D01*
X015602Y008315D02*
X015494Y008206D01*
X014824Y008206D01*
X013317Y009714D01*
X013317Y010541D01*
X013179Y010679D01*
X012823Y010679D01*
X012815Y010687D01*
X012831Y010096D02*
X013023Y010096D01*
X013149Y009970D01*
X013149Y009645D01*
X014756Y008039D01*
X015750Y008039D01*
X015868Y008157D01*
X015937Y008157D01*
X015937Y008147D01*
X012391Y011248D02*
X010008Y011248D01*
X009399Y010639D01*
X009399Y010179D01*
X009405Y010173D01*
X010403Y010175D02*
X010405Y010173D01*
X010403Y010175D02*
X010403Y010620D01*
X010639Y010856D01*
X011673Y010856D01*
X011842Y010687D01*
X012215Y010687D01*
X012231Y010096D02*
X011482Y010096D01*
X011405Y010173D01*
D30*
X011405Y009173D02*
X011761Y009173D01*
X011958Y008976D01*
X011958Y008553D01*
X012254Y008257D01*
X012765Y008257D01*
X012767Y008256D01*
D31*
X008129Y005950D02*
X008129Y003267D01*
X018923Y003267D01*
X018923Y005475D01*
X018922Y005503D01*
X018923Y005504D01*
X018923Y005505D01*
X018943Y005524D01*
X019695Y006307D01*
X019695Y006308D01*
X019714Y006327D01*
X019734Y006347D01*
X019734Y006347D01*
X019735Y006348D01*
X019763Y006348D01*
X019791Y006349D01*
X019791Y006348D01*
X021406Y006348D01*
X021406Y014299D01*
X015713Y014299D01*
X015845Y014245D01*
X015948Y014142D01*
X016003Y014007D01*
X016003Y013862D01*
X015948Y013727D01*
X015845Y013625D01*
X015710Y013569D01*
X015565Y013569D01*
X015430Y013625D01*
X015327Y013727D01*
X015272Y013862D01*
X015272Y014007D01*
X015327Y014142D01*
X015430Y014245D01*
X015562Y014299D01*
X014769Y014299D01*
X014821Y014278D01*
X014884Y014235D01*
X014938Y014181D01*
X014980Y014118D01*
X015010Y014048D01*
X015024Y013973D01*
X015024Y013964D01*
X014667Y013964D01*
X014667Y013905D01*
X014667Y013548D01*
X014676Y013548D01*
X014750Y013563D01*
X014821Y013592D01*
X014884Y013634D01*
X014938Y013688D01*
X014980Y013751D01*
X015010Y013822D01*
X015024Y013897D01*
X015024Y013905D01*
X014667Y013905D01*
X014608Y013905D01*
X014608Y013548D01*
X014599Y013548D01*
X014525Y013563D01*
X014454Y013592D01*
X014391Y013634D01*
X014337Y013688D01*
X014295Y013751D01*
X014265Y013822D01*
X014250Y013897D01*
X014250Y013905D01*
X014608Y013905D01*
X014608Y013964D01*
X014250Y013964D01*
X014250Y013973D01*
X014265Y014048D01*
X014295Y014118D01*
X014337Y014181D01*
X014391Y014235D01*
X014454Y014278D01*
X014506Y014299D01*
X013941Y014299D01*
X014003Y014237D01*
X014003Y013632D01*
X013940Y013569D01*
X013799Y013569D01*
X013799Y009903D01*
X014738Y008964D01*
X015171Y008964D01*
X014918Y009069D01*
X014715Y009272D01*
X014605Y009537D01*
X014605Y009824D01*
X014715Y010089D01*
X014918Y010292D01*
X015183Y010402D01*
X015470Y010402D01*
X015735Y010292D01*
X015938Y010089D01*
X016048Y009824D01*
X016048Y009537D01*
X015938Y009272D01*
X015735Y009069D01*
X015482Y008964D01*
X015732Y008964D01*
X016313Y008383D01*
X016399Y008297D01*
X016399Y007929D01*
X016242Y007771D01*
X016155Y007685D01*
X015748Y007685D01*
X015698Y007734D01*
X013996Y007734D01*
X013898Y007831D01*
X013811Y007831D01*
X013720Y007869D01*
X013650Y007938D01*
X013613Y008029D01*
X013613Y008128D01*
X013650Y008218D01*
X013720Y008288D01*
X013811Y008326D01*
X013909Y008326D01*
X014000Y008288D01*
X014070Y008218D01*
X014107Y008128D01*
X014107Y008040D01*
X014118Y008029D01*
X014557Y008029D01*
X013088Y009498D01*
X013002Y009584D01*
X013002Y009830D01*
X012629Y009830D01*
X012565Y009894D01*
X012565Y010298D01*
X012629Y010362D01*
X013033Y010362D01*
X013097Y010298D01*
X013097Y010231D01*
X013169Y010159D01*
X013169Y010480D01*
X013118Y010531D01*
X013081Y010531D01*
X013081Y010484D01*
X013018Y010421D01*
X012613Y010421D01*
X012550Y010484D01*
X012550Y010889D01*
X012613Y010952D01*
X013018Y010952D01*
X013081Y010889D01*
X013081Y010826D01*
X013240Y010826D01*
X013326Y010740D01*
X013336Y010730D01*
X013336Y011021D01*
X013256Y011101D01*
X013256Y011045D01*
X013193Y010982D01*
X012788Y010982D01*
X012725Y011045D01*
X012725Y011450D01*
X012788Y011513D01*
X013193Y011513D01*
X013256Y011450D01*
X013256Y011397D01*
X013378Y011397D01*
X013464Y011311D01*
X013504Y011271D01*
X013504Y013569D01*
X013335Y013569D01*
X013272Y013632D01*
X013272Y014237D01*
X013334Y014299D01*
X010474Y014299D01*
X010474Y012316D01*
X010476Y012313D01*
X011313Y012313D01*
X011331Y012325D02*
X011267Y012282D01*
X011213Y012228D01*
X011170Y012164D01*
X011141Y012094D01*
X011126Y012018D01*
X011126Y012009D01*
X011486Y012009D01*
X011486Y011950D01*
X011545Y011950D01*
X011545Y011590D01*
X011554Y011590D01*
X011629Y011605D01*
X011700Y011635D01*
X011764Y011677D01*
X011818Y011732D01*
X011861Y011795D01*
X013504Y011795D01*
X013504Y011738D02*
X011822Y011738D01*
X011861Y011795D02*
X011890Y011866D01*
X011905Y011942D01*
X011905Y011950D01*
X011545Y011950D01*
X011545Y012009D01*
X011905Y012009D01*
X011905Y012018D01*
X011890Y012094D01*
X011861Y012164D01*
X011818Y012228D01*
X011764Y012282D01*
X011700Y012325D01*
X011629Y012354D01*
X011554Y012369D01*
X011545Y012369D01*
X011545Y012009D01*
X011486Y012009D01*
X011486Y012369D01*
X011477Y012369D01*
X011402Y012354D01*
X011331Y012325D01*
X011240Y012256D02*
X010471Y012256D01*
X010472Y012260D01*
X010474Y012262D01*
X010474Y012288D01*
X010476Y012313D01*
X010471Y012256D02*
X010452Y012240D01*
X010434Y012222D01*
X010430Y012222D01*
X009271Y011256D01*
X009253Y011238D01*
X009249Y011238D01*
X009246Y011235D01*
X009221Y011238D01*
X008129Y011238D01*
X008129Y006034D01*
X008139Y006093D01*
X008159Y006157D01*
X008190Y006217D01*
X008230Y006272D01*
X008278Y006320D01*
X008332Y006359D01*
X008393Y006390D01*
X008457Y006411D01*
X008524Y006421D01*
X008828Y006421D01*
X008828Y006022D01*
X008887Y006022D01*
X008887Y006421D01*
X009191Y006421D01*
X009258Y006411D01*
X009322Y006390D01*
X009383Y006359D01*
X009437Y006320D01*
X009485Y006272D01*
X009525Y006217D01*
X009556Y006157D01*
X009576Y006093D01*
X009587Y006026D01*
X009587Y006021D01*
X008887Y006021D01*
X008887Y005962D01*
X008887Y005562D01*
X009191Y005562D01*
X009258Y005573D01*
X009322Y005594D01*
X009383Y005625D01*
X009437Y005664D01*
X009485Y005712D01*
X009525Y005767D01*
X009556Y005827D01*
X009576Y005891D01*
X009587Y005958D01*
X009587Y005962D01*
X008887Y005962D01*
X008828Y005962D01*
X008828Y005562D01*
X008524Y005562D01*
X008457Y005573D01*
X008393Y005594D01*
X008332Y005625D01*
X008278Y005664D01*
X008230Y005712D01*
X008190Y005767D01*
X008159Y005827D01*
X008139Y005891D01*
X008129Y005950D01*
X008129Y005925D02*
X008133Y005925D01*
X008129Y005867D02*
X008146Y005867D01*
X008129Y005809D02*
X008168Y005809D01*
X008201Y005752D02*
X008129Y005752D01*
X008129Y005694D02*
X008248Y005694D01*
X008316Y005637D02*
X008129Y005637D01*
X008129Y005579D02*
X008438Y005579D01*
X008129Y005522D02*
X012945Y005522D01*
X012945Y005579D02*
X011837Y005579D01*
X011818Y005573D02*
X011882Y005594D01*
X011943Y005625D01*
X011997Y005664D01*
X012045Y005712D01*
X012085Y005767D01*
X012116Y005827D01*
X012136Y005891D01*
X012147Y005958D01*
X012147Y005962D01*
X011447Y005962D01*
X011447Y005562D01*
X011751Y005562D01*
X011818Y005573D01*
X011959Y005637D02*
X012945Y005637D01*
X012945Y005694D02*
X012027Y005694D01*
X012074Y005752D02*
X012945Y005752D01*
X012945Y005809D02*
X012107Y005809D01*
X012129Y005867D02*
X012945Y005867D01*
X012945Y005925D02*
X012142Y005925D01*
X012147Y006021D02*
X012147Y006026D01*
X012136Y006093D01*
X012116Y006157D01*
X012085Y006217D01*
X012045Y006272D01*
X011997Y006320D01*
X011943Y006359D01*
X011882Y006390D01*
X011818Y006411D01*
X011751Y006421D01*
X011447Y006421D01*
X011447Y006022D01*
X011388Y006022D01*
X011388Y006421D01*
X011084Y006421D01*
X011017Y006411D01*
X010953Y006390D01*
X010892Y006359D01*
X010838Y006320D01*
X010790Y006272D01*
X010750Y006217D01*
X010719Y006157D01*
X010699Y006093D01*
X010688Y006026D01*
X010688Y006021D01*
X011388Y006021D01*
X011388Y005962D01*
X011447Y005962D01*
X011447Y006021D01*
X012147Y006021D01*
X012145Y006040D02*
X012945Y006040D01*
X012945Y006097D02*
X012135Y006097D01*
X012116Y006155D02*
X012945Y006155D01*
X012945Y006212D02*
X012087Y006212D01*
X012046Y006270D02*
X012945Y006270D01*
X012945Y006327D02*
X011986Y006327D01*
X011892Y006385D02*
X012482Y006385D01*
X012490Y006382D02*
X012651Y006382D01*
X012800Y006444D01*
X012914Y006558D01*
X012945Y006558D01*
X012914Y006558D02*
X012945Y006631D01*
X012945Y004900D01*
X013054Y004791D01*
X013556Y004289D01*
X015849Y004289D01*
X015856Y004283D01*
X015925Y004289D01*
X015994Y004289D01*
X016001Y004296D01*
X016011Y004297D01*
X016055Y004350D01*
X016104Y004399D01*
X016104Y004408D01*
X017581Y006170D01*
X017630Y006219D01*
X017630Y006229D01*
X017636Y006236D01*
X017630Y006305D01*
X017630Y008101D01*
X017628Y008103D01*
X017628Y008692D01*
X017922Y008986D01*
X017971Y008986D01*
X017996Y008925D01*
X018120Y008801D01*
X018281Y008735D01*
X018455Y008735D01*
X018616Y008801D01*
X018739Y008925D01*
X018765Y008986D01*
X018969Y008986D01*
X018994Y008925D01*
X019118Y008801D01*
X019279Y008735D01*
X019453Y008735D01*
X019614Y008801D01*
X019737Y008925D01*
X019763Y008986D01*
X020107Y008986D01*
X020294Y009173D01*
X020403Y009282D01*
X020403Y011104D01*
X020440Y011104D01*
X020504Y011167D01*
X020504Y011493D01*
X020440Y011557D01*
X019957Y011557D01*
X019893Y011493D01*
X019893Y011167D01*
X019957Y011104D01*
X020029Y011104D01*
X020029Y009437D01*
X019952Y009360D01*
X019763Y009360D01*
X019737Y009421D01*
X019614Y009544D01*
X019453Y009611D01*
X019279Y009611D01*
X019118Y009544D01*
X018994Y009421D01*
X018969Y009360D01*
X018765Y009360D01*
X018739Y009421D01*
X018616Y009544D01*
X018455Y009611D01*
X018281Y009611D01*
X018120Y009544D01*
X017996Y009421D01*
X017971Y009360D01*
X017767Y009360D01*
X017657Y009250D01*
X017254Y008847D01*
X017254Y007948D01*
X017256Y007946D01*
X017256Y006365D01*
X015830Y004663D01*
X013711Y004663D01*
X013319Y005055D01*
X013319Y007969D01*
X012956Y008332D01*
X012956Y008333D01*
X012854Y008436D01*
X012896Y008478D01*
X012935Y008532D01*
X012966Y008592D01*
X012986Y008656D01*
X012997Y008722D01*
X012997Y008726D01*
X012600Y008726D01*
X012600Y008785D01*
X012541Y008785D01*
X012541Y009182D01*
X012537Y009182D01*
X012471Y009171D01*
X012407Y009151D01*
X012347Y009120D01*
X012293Y009081D01*
X012245Y009033D01*
X012206Y008979D01*
X012175Y008919D01*
X012155Y008855D01*
X012147Y008804D01*
X012147Y009054D01*
X012036Y009164D01*
X011839Y009361D01*
X011802Y009361D01*
X011777Y009421D01*
X011653Y009544D01*
X011492Y009611D01*
X011318Y009611D01*
X011157Y009544D01*
X011034Y009421D01*
X011008Y009360D01*
X010802Y009360D01*
X010777Y009421D01*
X010653Y009544D01*
X010492Y009611D01*
X010318Y009611D01*
X010157Y009544D01*
X010034Y009421D01*
X010008Y009360D01*
X009802Y009360D01*
X009777Y009421D01*
X009653Y009544D01*
X009492Y009611D01*
X009318Y009611D01*
X009157Y009544D01*
X009034Y009421D01*
X008967Y009260D01*
X008967Y009086D01*
X009034Y008925D01*
X009157Y008801D01*
X009318Y008735D01*
X009492Y008735D01*
X009653Y008801D01*
X009777Y008925D01*
X009802Y008986D01*
X010008Y008986D01*
X010034Y008925D01*
X010157Y008801D01*
X010318Y008735D01*
X010492Y008735D01*
X010653Y008801D01*
X010777Y008925D01*
X010802Y008986D01*
X011008Y008986D01*
X011034Y008925D01*
X011157Y008801D01*
X011318Y008735D01*
X011492Y008735D01*
X011653Y008801D01*
X011760Y008908D01*
X011770Y008898D01*
X011770Y008475D01*
X012065Y008179D01*
X012176Y008069D01*
X012296Y008069D01*
X012227Y008001D01*
X012165Y007852D01*
X012165Y007691D01*
X012227Y007542D01*
X012341Y007428D01*
X012490Y007366D01*
X012651Y007366D01*
X012800Y007428D01*
X012914Y007542D01*
X012945Y007616D01*
X012945Y006943D01*
X012914Y007016D01*
X012800Y007130D01*
X012651Y007192D01*
X012490Y007192D01*
X012341Y007130D01*
X012227Y007016D01*
X012165Y006868D01*
X012165Y006706D01*
X012227Y006558D01*
X008129Y006558D01*
X008129Y006615D02*
X012203Y006615D01*
X012227Y006558D02*
X012341Y006444D01*
X012490Y006382D01*
X012343Y006443D02*
X008129Y006443D01*
X008129Y006500D02*
X012284Y006500D01*
X012179Y006673D02*
X008129Y006673D01*
X008129Y006730D02*
X012165Y006730D01*
X012165Y006788D02*
X008129Y006788D01*
X008129Y006845D02*
X012165Y006845D01*
X012180Y006903D02*
X008129Y006903D01*
X008129Y006961D02*
X012204Y006961D01*
X012229Y007018D02*
X008129Y007018D01*
X008129Y007076D02*
X012286Y007076D01*
X012348Y007133D02*
X008129Y007133D01*
X008129Y007191D02*
X012487Y007191D01*
X012654Y007191D02*
X012945Y007191D01*
X012945Y007248D02*
X008129Y007248D01*
X008129Y007306D02*
X012945Y007306D01*
X012945Y007363D02*
X008129Y007363D01*
X008129Y007421D02*
X012357Y007421D01*
X012290Y007479D02*
X008129Y007479D01*
X008129Y007536D02*
X012233Y007536D01*
X012206Y007594D02*
X008129Y007594D01*
X008129Y007651D02*
X012182Y007651D01*
X012165Y007709D02*
X008129Y007709D01*
X008129Y007766D02*
X009191Y007766D01*
X009164Y007780D02*
X009229Y007747D01*
X009298Y007725D01*
X009369Y007713D01*
X009376Y007713D01*
X009376Y008143D01*
X009435Y008143D01*
X009435Y008202D01*
X009865Y008202D01*
X009865Y008209D01*
X009853Y008280D01*
X009831Y008349D01*
X009798Y008414D01*
X009756Y008472D01*
X009705Y008523D01*
X009646Y008566D01*
X009582Y008599D01*
X009513Y008621D01*
X009441Y008632D01*
X009435Y008632D01*
X009435Y008202D01*
X009376Y008202D01*
X009376Y008143D01*
X008946Y008143D01*
X008946Y008137D01*
X008957Y008065D01*
X008979Y007996D01*
X009012Y007932D01*
X009055Y007873D01*
X009106Y007822D01*
X009164Y007780D01*
X009104Y007824D02*
X008129Y007824D01*
X008129Y007881D02*
X009049Y007881D01*
X009009Y007939D02*
X008129Y007939D01*
X008129Y007997D02*
X008979Y007997D01*
X008961Y008054D02*
X008129Y008054D01*
X008129Y008112D02*
X008950Y008112D01*
X008946Y008202D02*
X009376Y008202D01*
X009376Y008632D01*
X009369Y008632D01*
X009298Y008621D01*
X009229Y008599D01*
X009164Y008566D01*
X009106Y008523D01*
X009055Y008472D01*
X009012Y008414D01*
X008979Y008349D01*
X008957Y008280D01*
X008946Y008209D01*
X008946Y008202D01*
X008948Y008227D02*
X008129Y008227D01*
X008129Y008284D02*
X008958Y008284D01*
X008977Y008342D02*
X008129Y008342D01*
X008129Y008399D02*
X009005Y008399D01*
X009044Y008457D02*
X008129Y008457D01*
X008129Y008515D02*
X009097Y008515D01*
X009177Y008572D02*
X008129Y008572D01*
X008129Y008630D02*
X009352Y008630D01*
X009376Y008630D02*
X009435Y008630D01*
X009458Y008630D02*
X010352Y008630D01*
X010369Y008632D02*
X010298Y008621D01*
X010229Y008599D01*
X010164Y008566D01*
X010106Y008523D01*
X010055Y008472D01*
X010012Y008414D01*
X009979Y008349D01*
X009957Y008280D01*
X009946Y008209D01*
X009946Y008202D01*
X010376Y008202D01*
X010376Y008143D01*
X010435Y008143D01*
X010435Y008202D01*
X010865Y008202D01*
X010865Y008209D01*
X010853Y008280D01*
X010831Y008349D01*
X010798Y008414D01*
X010756Y008472D01*
X010705Y008523D01*
X010646Y008566D01*
X010582Y008599D01*
X010513Y008621D01*
X010441Y008632D01*
X010435Y008632D01*
X010435Y008202D01*
X010376Y008202D01*
X010376Y008632D01*
X010369Y008632D01*
X010376Y008630D02*
X010435Y008630D01*
X010458Y008630D02*
X011352Y008630D01*
X011369Y008632D02*
X011298Y008621D01*
X011229Y008599D01*
X011164Y008566D01*
X011106Y008523D01*
X011055Y008472D01*
X011012Y008414D01*
X010979Y008349D01*
X010957Y008280D01*
X010946Y008209D01*
X010946Y008202D01*
X011376Y008202D01*
X011376Y008143D01*
X011435Y008143D01*
X011435Y008202D01*
X011865Y008202D01*
X011865Y008209D01*
X011853Y008280D01*
X011831Y008349D01*
X011798Y008414D01*
X011756Y008472D01*
X011705Y008523D01*
X011646Y008566D01*
X011582Y008599D01*
X011513Y008621D01*
X011441Y008632D01*
X011435Y008632D01*
X011435Y008202D01*
X011376Y008202D01*
X011376Y008632D01*
X011369Y008632D01*
X011376Y008630D02*
X011435Y008630D01*
X011458Y008630D02*
X011770Y008630D01*
X011770Y008687D02*
X008129Y008687D01*
X008129Y008745D02*
X009293Y008745D01*
X009156Y008802D02*
X008129Y008802D01*
X008129Y008860D02*
X009098Y008860D01*
X009041Y008917D02*
X008129Y008917D01*
X008129Y008975D02*
X009013Y008975D01*
X008989Y009033D02*
X008129Y009033D01*
X008129Y009090D02*
X008967Y009090D01*
X008967Y009148D02*
X008129Y009148D01*
X008129Y009205D02*
X008967Y009205D01*
X008968Y009263D02*
X008129Y009263D01*
X008129Y009320D02*
X008992Y009320D01*
X009016Y009378D02*
X008129Y009378D01*
X008129Y009435D02*
X009048Y009435D01*
X009106Y009493D02*
X008129Y009493D01*
X008129Y009551D02*
X009172Y009551D01*
X009311Y009608D02*
X008129Y009608D01*
X008129Y009666D02*
X013002Y009666D01*
X013002Y009723D02*
X008129Y009723D01*
X008129Y009781D02*
X009177Y009781D01*
X009224Y009735D02*
X009587Y009735D01*
X009843Y009991D01*
X009843Y010354D01*
X009587Y010611D01*
X009580Y010611D01*
X010069Y011100D01*
X012125Y011100D01*
X012125Y011045D01*
X012188Y010982D01*
X012593Y010982D01*
X012656Y011045D01*
X012656Y011450D01*
X012593Y011513D01*
X012188Y011513D01*
X012125Y011450D01*
X012125Y011395D01*
X009946Y011395D01*
X009338Y010787D01*
X009252Y010701D01*
X009252Y010611D01*
X009224Y010611D01*
X008967Y010354D01*
X008967Y009991D01*
X009224Y009735D01*
X009120Y009838D02*
X008129Y009838D01*
X008129Y009896D02*
X009062Y009896D01*
X009005Y009953D02*
X008129Y009953D01*
X008129Y010011D02*
X008967Y010011D01*
X008967Y010069D02*
X008129Y010069D01*
X008129Y010126D02*
X008967Y010126D01*
X008967Y010184D02*
X008129Y010184D01*
X008129Y010241D02*
X008967Y010241D01*
X008967Y010299D02*
X008129Y010299D01*
X008129Y010356D02*
X008969Y010356D01*
X009026Y010414D02*
X008129Y010414D01*
X008129Y010471D02*
X009084Y010471D01*
X009142Y010529D02*
X008129Y010529D01*
X008129Y010587D02*
X009199Y010587D01*
X009252Y010644D02*
X008129Y010644D01*
X008129Y010702D02*
X009253Y010702D01*
X009310Y010759D02*
X008129Y010759D01*
X008129Y010817D02*
X009368Y010817D01*
X009425Y010874D02*
X008129Y010874D01*
X008129Y010932D02*
X009483Y010932D01*
X009541Y010989D02*
X008129Y010989D01*
X008129Y011047D02*
X009598Y011047D01*
X009656Y011105D02*
X008129Y011105D01*
X008129Y011162D02*
X009713Y011162D01*
X009771Y011220D02*
X008129Y011220D01*
X009296Y011277D02*
X009828Y011277D01*
X009886Y011335D02*
X009365Y011335D01*
X009435Y011392D02*
X009943Y011392D01*
X009711Y011623D02*
X011360Y011623D01*
X011331Y011635D02*
X011402Y011605D01*
X011477Y011590D01*
X011486Y011590D01*
X011486Y011950D01*
X011126Y011950D01*
X011126Y011942D01*
X011141Y011866D01*
X011170Y011795D01*
X009918Y011795D01*
X009849Y011738D02*
X011209Y011738D01*
X011213Y011732D02*
X011267Y011677D01*
X011331Y011635D01*
X011264Y011680D02*
X009780Y011680D01*
X009642Y011565D02*
X013504Y011565D01*
X013504Y011507D02*
X013199Y011507D01*
X013256Y011450D02*
X013504Y011450D01*
X013504Y011392D02*
X013383Y011392D01*
X013440Y011335D02*
X013504Y011335D01*
X013498Y011277D02*
X013504Y011277D01*
X013799Y011277D02*
X014334Y011277D01*
X014334Y011220D02*
X013799Y011220D01*
X013799Y011162D02*
X014334Y011162D01*
X014334Y011139D02*
X014690Y011139D01*
X014690Y011080D01*
X014749Y011080D01*
X014749Y010685D01*
X014993Y010685D01*
X015026Y010694D01*
X015055Y010711D01*
X015079Y010735D01*
X015096Y010765D01*
X015105Y010798D01*
X015105Y011080D01*
X014749Y011080D01*
X014749Y011139D01*
X015105Y011139D01*
X015105Y011422D01*
X015096Y011455D01*
X015079Y011485D01*
X015055Y011509D01*
X015026Y011526D01*
X014993Y011535D01*
X014749Y011535D01*
X014749Y011139D01*
X014690Y011139D01*
X014690Y011535D01*
X014447Y011535D01*
X014414Y011526D01*
X014384Y011509D01*
X014360Y011485D01*
X014343Y011455D01*
X014334Y011422D01*
X014334Y011139D01*
X014334Y011080D02*
X014334Y010798D01*
X014343Y010765D01*
X014360Y010735D01*
X014384Y010711D01*
X014414Y010694D01*
X014447Y010685D01*
X014690Y010685D01*
X014690Y011080D01*
X014334Y011080D01*
X014334Y011047D02*
X013799Y011047D01*
X013799Y010989D02*
X014334Y010989D01*
X014334Y010932D02*
X013799Y010932D01*
X013799Y010874D02*
X014334Y010874D01*
X014334Y010817D02*
X013799Y010817D01*
X013799Y010759D02*
X014346Y010759D01*
X014400Y010702D02*
X013799Y010702D01*
X013799Y010644D02*
X015352Y010644D01*
X015352Y010587D02*
X013799Y010587D01*
X013799Y010529D02*
X015405Y010529D01*
X015423Y010511D02*
X015521Y010413D01*
X015688Y010413D01*
X016488Y009613D01*
X016488Y008010D01*
X015878Y007400D01*
X015795Y007400D01*
X015697Y007360D01*
X015622Y007285D01*
X015581Y007187D01*
X015581Y007080D01*
X015622Y006982D01*
X015697Y006907D01*
X015795Y006866D01*
X015901Y006866D01*
X015999Y006907D01*
X016074Y006982D01*
X016115Y007080D01*
X016115Y007164D01*
X016823Y007871D01*
X016823Y009752D01*
X015925Y010650D01*
X015844Y010730D01*
X015884Y010770D01*
X015884Y010923D01*
X015912Y010923D01*
X016022Y011033D01*
X016132Y011143D01*
X016132Y011257D01*
X016641Y011257D01*
X016704Y011321D01*
X016704Y011627D01*
X016641Y011691D01*
X016595Y011691D01*
X016622Y011698D01*
X016651Y011715D01*
X016675Y011739D01*
X016692Y011769D01*
X016701Y011801D01*
X016701Y011946D01*
X016444Y011946D01*
X016444Y012006D01*
X016385Y012006D01*
X016385Y012263D01*
X016240Y012263D01*
X016207Y012254D01*
X016177Y012237D01*
X016153Y012213D01*
X016136Y012183D01*
X016127Y012151D01*
X016127Y012006D01*
X016385Y012006D01*
X016385Y011946D01*
X016127Y011946D01*
X016127Y011801D01*
X016136Y011769D01*
X016153Y011739D01*
X016177Y011715D01*
X016207Y011698D01*
X016234Y011691D01*
X016079Y011691D01*
X016051Y011663D01*
X015956Y011663D01*
X015846Y011553D01*
X015806Y011513D01*
X015219Y011513D01*
X015156Y011450D01*
X015156Y010770D01*
X015219Y010706D01*
X015352Y010706D01*
X015352Y010581D01*
X015423Y010511D01*
X015462Y010471D02*
X013799Y010471D01*
X013799Y010414D02*
X015520Y010414D01*
X015581Y010356D02*
X015745Y010356D01*
X015720Y010299D02*
X015802Y010299D01*
X015786Y010241D02*
X015860Y010241D01*
X015844Y010184D02*
X015918Y010184D01*
X015902Y010126D02*
X015975Y010126D01*
X015947Y010069D02*
X016033Y010069D01*
X016090Y010011D02*
X015971Y010011D01*
X015995Y009953D02*
X016148Y009953D01*
X016205Y009896D02*
X016018Y009896D01*
X016042Y009838D02*
X016263Y009838D01*
X016320Y009781D02*
X016048Y009781D01*
X016048Y009723D02*
X016378Y009723D01*
X016436Y009666D02*
X016048Y009666D01*
X016048Y009608D02*
X016488Y009608D01*
X016488Y009551D02*
X016048Y009551D01*
X016030Y009493D02*
X016488Y009493D01*
X016488Y009435D02*
X016006Y009435D01*
X015982Y009378D02*
X016488Y009378D01*
X016488Y009320D02*
X015958Y009320D01*
X015929Y009263D02*
X016488Y009263D01*
X016488Y009205D02*
X015872Y009205D01*
X015814Y009148D02*
X016488Y009148D01*
X016488Y009090D02*
X015756Y009090D01*
X015648Y009033D02*
X016488Y009033D01*
X016488Y008975D02*
X015509Y008975D01*
X015779Y008917D02*
X016488Y008917D01*
X016488Y008860D02*
X015836Y008860D01*
X015894Y008802D02*
X016488Y008802D01*
X016488Y008745D02*
X015951Y008745D01*
X016009Y008687D02*
X016488Y008687D01*
X016488Y008630D02*
X016067Y008630D01*
X016124Y008572D02*
X016488Y008572D01*
X016488Y008515D02*
X016182Y008515D01*
X016239Y008457D02*
X016488Y008457D01*
X016488Y008399D02*
X016297Y008399D01*
X016354Y008342D02*
X016488Y008342D01*
X016488Y008284D02*
X016399Y008284D01*
X016399Y008227D02*
X016488Y008227D01*
X016488Y008169D02*
X016399Y008169D01*
X016399Y008112D02*
X016488Y008112D01*
X016488Y008054D02*
X016399Y008054D01*
X016399Y007997D02*
X016475Y007997D01*
X016417Y007939D02*
X016399Y007939D01*
X016359Y007881D02*
X016352Y007881D01*
X016302Y007824D02*
X016295Y007824D01*
X016244Y007766D02*
X016237Y007766D01*
X016187Y007709D02*
X016179Y007709D01*
X016129Y007651D02*
X013319Y007651D01*
X013319Y007594D02*
X016072Y007594D01*
X016014Y007536D02*
X013319Y007536D01*
X013319Y007479D02*
X015957Y007479D01*
X015899Y007421D02*
X013319Y007421D01*
X013319Y007363D02*
X015706Y007363D01*
X015643Y007306D02*
X013319Y007306D01*
X013319Y007248D02*
X015607Y007248D01*
X015583Y007191D02*
X013319Y007191D01*
X013319Y007133D02*
X015581Y007133D01*
X015583Y007076D02*
X013319Y007076D01*
X013319Y007018D02*
X015607Y007018D01*
X015643Y006961D02*
X013319Y006961D01*
X013319Y006903D02*
X015707Y006903D01*
X015990Y006903D02*
X017256Y006903D01*
X017256Y006845D02*
X013319Y006845D01*
X013319Y006788D02*
X017256Y006788D01*
X017256Y006730D02*
X013319Y006730D01*
X013319Y006673D02*
X017256Y006673D01*
X017256Y006615D02*
X013319Y006615D01*
X013319Y006558D02*
X015121Y006558D01*
X015183Y006583D02*
X014918Y006474D01*
X014715Y006271D01*
X014605Y006005D01*
X014605Y005718D01*
X014715Y005453D01*
X014918Y005250D01*
X015183Y005140D01*
X015470Y005140D01*
X015735Y005250D01*
X015938Y005453D01*
X016048Y005718D01*
X016048Y006005D01*
X015938Y006271D01*
X015735Y006474D01*
X015470Y006583D01*
X015183Y006583D01*
X014982Y006500D02*
X013319Y006500D01*
X013319Y006443D02*
X014887Y006443D01*
X014829Y006385D02*
X013319Y006385D01*
X013319Y006327D02*
X014772Y006327D01*
X014714Y006270D02*
X013319Y006270D01*
X013319Y006212D02*
X014691Y006212D01*
X014667Y006155D02*
X013319Y006155D01*
X013319Y006097D02*
X014643Y006097D01*
X014619Y006040D02*
X013319Y006040D01*
X013319Y005982D02*
X014605Y005982D01*
X014605Y005925D02*
X013319Y005925D01*
X013319Y005867D02*
X014605Y005867D01*
X014605Y005809D02*
X013319Y005809D01*
X013319Y005752D02*
X014605Y005752D01*
X014615Y005694D02*
X013319Y005694D01*
X013319Y005637D02*
X014639Y005637D01*
X014662Y005579D02*
X013319Y005579D01*
X013319Y005522D02*
X014686Y005522D01*
X014710Y005464D02*
X013319Y005464D01*
X013319Y005407D02*
X014761Y005407D01*
X014819Y005349D02*
X013319Y005349D01*
X013319Y005291D02*
X014876Y005291D01*
X014956Y005234D02*
X013319Y005234D01*
X013319Y005176D02*
X015095Y005176D01*
X015557Y005176D02*
X016260Y005176D01*
X016212Y005119D02*
X013319Y005119D01*
X013319Y005061D02*
X016163Y005061D01*
X016115Y005004D02*
X013370Y005004D01*
X013428Y004946D02*
X016067Y004946D01*
X016019Y004889D02*
X013485Y004889D01*
X013543Y004831D02*
X015971Y004831D01*
X015922Y004774D02*
X013600Y004774D01*
X013658Y004716D02*
X015874Y004716D01*
X016121Y004428D02*
X018923Y004428D01*
X018923Y004371D02*
X016076Y004371D01*
X016024Y004313D02*
X018923Y004313D01*
X018923Y004256D02*
X017383Y004256D01*
X017362Y004264D02*
X017208Y004264D01*
X017065Y004205D01*
X016956Y004096D01*
X016899Y003959D01*
X016897Y003971D01*
X016877Y004033D01*
X016848Y004090D01*
X016810Y004142D01*
X016764Y004188D01*
X016712Y004226D01*
X016655Y004255D01*
X016594Y004275D01*
X016530Y004285D01*
X016527Y004285D01*
X016527Y003905D01*
X016468Y003905D01*
X016468Y004285D01*
X016465Y004285D01*
X016402Y004275D01*
X016340Y004255D01*
X016283Y004226D01*
X016231Y004188D01*
X016185Y004142D01*
X016147Y004090D01*
X016118Y004033D01*
X016098Y003971D01*
X016096Y003959D01*
X016039Y004096D01*
X015930Y004205D01*
X015788Y004264D01*
X015633Y004264D01*
X015490Y004205D01*
X015381Y004096D01*
X015322Y003953D01*
X015322Y003798D01*
X015381Y003656D01*
X015490Y003546D01*
X015633Y003487D01*
X015788Y003487D01*
X015930Y003546D01*
X016039Y003656D01*
X016096Y003793D01*
X016098Y003780D01*
X016118Y003718D01*
X016147Y003661D01*
X016185Y003609D01*
X016231Y003563D01*
X016283Y003525D01*
X016340Y003496D01*
X016402Y003476D01*
X016465Y003466D01*
X016468Y003466D01*
X016468Y003846D01*
X016527Y003846D01*
X016527Y003466D01*
X016530Y003466D01*
X016594Y003476D01*
X016655Y003496D01*
X016712Y003525D01*
X016764Y003563D01*
X016810Y003609D01*
X016848Y003661D01*
X016877Y003718D01*
X016897Y003780D01*
X016899Y003793D01*
X016956Y003656D01*
X017065Y003546D01*
X017208Y003487D01*
X017362Y003487D01*
X017505Y003546D01*
X017614Y003656D01*
X017673Y003798D01*
X017673Y003953D01*
X017614Y004096D01*
X017505Y004205D01*
X017362Y004264D01*
X017512Y004198D02*
X018923Y004198D01*
X018923Y004140D02*
X017569Y004140D01*
X017620Y004083D02*
X018923Y004083D01*
X018923Y004025D02*
X017643Y004025D01*
X017667Y003968D02*
X018923Y003968D01*
X018923Y003910D02*
X017673Y003910D01*
X017673Y003853D02*
X018923Y003853D01*
X018923Y003795D02*
X017672Y003795D01*
X017648Y003738D02*
X018923Y003738D01*
X018923Y003680D02*
X017624Y003680D01*
X017581Y003622D02*
X018923Y003622D01*
X018923Y003565D02*
X017523Y003565D01*
X017411Y003507D02*
X018923Y003507D01*
X018923Y003450D02*
X008129Y003450D01*
X008129Y003507D02*
X014578Y003507D01*
X014598Y003487D02*
X015248Y003487D01*
X015311Y003551D01*
X015311Y004200D01*
X015248Y004264D01*
X014598Y004264D01*
X014535Y004200D01*
X014535Y003551D01*
X014598Y003487D01*
X014535Y003565D02*
X008129Y003565D01*
X008129Y003622D02*
X014535Y003622D01*
X014535Y003680D02*
X008129Y003680D01*
X008129Y003738D02*
X014535Y003738D01*
X014535Y003795D02*
X008129Y003795D01*
X008129Y003853D02*
X008358Y003853D01*
X008326Y003866D02*
X008476Y003804D01*
X009239Y003804D01*
X009389Y003866D01*
X009504Y003981D01*
X009566Y004131D01*
X009566Y004293D01*
X009504Y004443D01*
X009389Y004558D01*
X009239Y004620D01*
X008476Y004620D01*
X008326Y004558D01*
X008211Y004443D01*
X008149Y004293D01*
X008149Y004131D01*
X008211Y003981D01*
X008326Y003866D01*
X008282Y003910D02*
X008129Y003910D01*
X008129Y003968D02*
X008224Y003968D01*
X008193Y004025D02*
X008129Y004025D01*
X008129Y004083D02*
X008169Y004083D01*
X008149Y004140D02*
X008129Y004140D01*
X008129Y004198D02*
X008149Y004198D01*
X008149Y004256D02*
X008129Y004256D01*
X008129Y004313D02*
X008157Y004313D01*
X008181Y004371D02*
X008129Y004371D01*
X008129Y004428D02*
X008205Y004428D01*
X008254Y004486D02*
X008129Y004486D01*
X008129Y004543D02*
X008311Y004543D01*
X008429Y004601D02*
X008129Y004601D01*
X008129Y004658D02*
X013187Y004658D01*
X013244Y004601D02*
X011846Y004601D01*
X011799Y004620D02*
X011036Y004620D01*
X010886Y004558D01*
X010771Y004443D01*
X010709Y004293D01*
X010709Y004131D01*
X010771Y003981D01*
X010886Y003866D01*
X011036Y003804D01*
X011799Y003804D01*
X011949Y003866D01*
X012064Y003981D01*
X012126Y004131D01*
X012126Y004293D01*
X012064Y004443D01*
X011949Y004558D01*
X011799Y004620D01*
X011964Y004543D02*
X013302Y004543D01*
X013359Y004486D02*
X012021Y004486D01*
X012070Y004428D02*
X013417Y004428D01*
X013474Y004371D02*
X012094Y004371D01*
X012117Y004313D02*
X013532Y004313D01*
X013129Y004716D02*
X008129Y004716D01*
X008129Y004774D02*
X013072Y004774D01*
X013014Y004831D02*
X008129Y004831D01*
X008129Y004889D02*
X012956Y004889D01*
X012945Y004946D02*
X008129Y004946D01*
X008129Y005004D02*
X012945Y005004D01*
X012945Y005061D02*
X008129Y005061D01*
X008129Y005119D02*
X012945Y005119D01*
X012945Y005176D02*
X008129Y005176D01*
X008129Y005234D02*
X012945Y005234D01*
X012945Y005291D02*
X008129Y005291D01*
X008129Y005349D02*
X012945Y005349D01*
X012945Y005407D02*
X008129Y005407D01*
X008129Y005464D02*
X012945Y005464D01*
X012945Y005982D02*
X011447Y005982D01*
X011447Y005925D02*
X011388Y005925D01*
X011388Y005962D02*
X011388Y005562D01*
X011084Y005562D01*
X011017Y005573D01*
X010953Y005594D01*
X010892Y005625D01*
X010838Y005664D01*
X010790Y005712D01*
X010750Y005767D01*
X010719Y005827D01*
X010699Y005891D01*
X010688Y005958D01*
X010688Y005962D01*
X011388Y005962D01*
X011388Y005982D02*
X008887Y005982D01*
X008887Y005925D02*
X008828Y005925D01*
X008828Y005867D02*
X008887Y005867D01*
X008887Y005809D02*
X008828Y005809D01*
X008828Y005752D02*
X008887Y005752D01*
X008887Y005694D02*
X008828Y005694D01*
X008828Y005637D02*
X008887Y005637D01*
X008887Y005579D02*
X008828Y005579D01*
X009277Y005579D02*
X010998Y005579D01*
X010876Y005637D02*
X009399Y005637D01*
X009467Y005694D02*
X010808Y005694D01*
X010761Y005752D02*
X009514Y005752D01*
X009547Y005809D02*
X010728Y005809D01*
X010706Y005867D02*
X009569Y005867D01*
X009582Y005925D02*
X010693Y005925D01*
X010690Y006040D02*
X009585Y006040D01*
X009575Y006097D02*
X010700Y006097D01*
X010719Y006155D02*
X009556Y006155D01*
X009527Y006212D02*
X010748Y006212D01*
X010789Y006270D02*
X009486Y006270D01*
X009426Y006327D02*
X010849Y006327D01*
X010943Y006385D02*
X009332Y006385D01*
X008887Y006385D02*
X008828Y006385D01*
X008828Y006327D02*
X008887Y006327D01*
X008887Y006270D02*
X008828Y006270D01*
X008828Y006212D02*
X008887Y006212D01*
X008887Y006155D02*
X008828Y006155D01*
X008828Y006097D02*
X008887Y006097D01*
X008887Y006040D02*
X008828Y006040D01*
X008383Y006385D02*
X008129Y006385D01*
X008129Y006327D02*
X008289Y006327D01*
X008229Y006270D02*
X008129Y006270D01*
X008129Y006212D02*
X008188Y006212D01*
X008159Y006155D02*
X008129Y006155D01*
X008129Y006097D02*
X008140Y006097D01*
X008130Y006040D02*
X008129Y006040D01*
X009286Y004601D02*
X010989Y004601D01*
X010871Y004543D02*
X009404Y004543D01*
X009461Y004486D02*
X010814Y004486D01*
X010765Y004428D02*
X009510Y004428D01*
X009534Y004371D02*
X010741Y004371D01*
X010717Y004313D02*
X009557Y004313D01*
X009566Y004256D02*
X010709Y004256D01*
X010709Y004198D02*
X009566Y004198D01*
X009566Y004140D02*
X010709Y004140D01*
X010729Y004083D02*
X009546Y004083D01*
X009522Y004025D02*
X010753Y004025D01*
X010784Y003968D02*
X009491Y003968D01*
X009433Y003910D02*
X010842Y003910D01*
X010918Y003853D02*
X009357Y003853D01*
X008129Y003392D02*
X018923Y003392D01*
X018923Y003335D02*
X008129Y003335D01*
X008129Y003277D02*
X018923Y003277D01*
X018923Y004486D02*
X016169Y004486D01*
X016217Y004543D02*
X018923Y004543D01*
X018923Y004601D02*
X016266Y004601D01*
X016314Y004658D02*
X018923Y004658D01*
X018923Y004716D02*
X016362Y004716D01*
X016410Y004774D02*
X018923Y004774D01*
X018923Y004831D02*
X016458Y004831D01*
X016507Y004889D02*
X018923Y004889D01*
X018923Y004946D02*
X016555Y004946D01*
X016603Y005004D02*
X018923Y005004D01*
X018923Y005061D02*
X016651Y005061D01*
X016700Y005119D02*
X018923Y005119D01*
X018923Y005176D02*
X016748Y005176D01*
X016796Y005234D02*
X018923Y005234D01*
X018923Y005291D02*
X016844Y005291D01*
X016892Y005349D02*
X018923Y005349D01*
X018923Y005407D02*
X016941Y005407D01*
X016989Y005464D02*
X018923Y005464D01*
X018940Y005522D02*
X017037Y005522D01*
X017085Y005579D02*
X018995Y005579D01*
X019051Y005637D02*
X017134Y005637D01*
X017182Y005694D02*
X019106Y005694D01*
X019161Y005752D02*
X017230Y005752D01*
X017278Y005809D02*
X019217Y005809D01*
X019272Y005867D02*
X017326Y005867D01*
X017375Y005925D02*
X019327Y005925D01*
X019383Y005982D02*
X017423Y005982D01*
X017471Y006040D02*
X019438Y006040D01*
X019493Y006097D02*
X017519Y006097D01*
X017568Y006155D02*
X019548Y006155D01*
X019604Y006212D02*
X017623Y006212D01*
X017633Y006270D02*
X019659Y006270D01*
X019714Y006327D02*
X017630Y006327D01*
X017630Y006385D02*
X021406Y006385D01*
X021406Y006443D02*
X017630Y006443D01*
X017630Y006500D02*
X021406Y006500D01*
X021406Y006558D02*
X017630Y006558D01*
X017630Y006615D02*
X021406Y006615D01*
X021406Y006673D02*
X017630Y006673D01*
X017630Y006730D02*
X021406Y006730D01*
X021406Y006788D02*
X017630Y006788D01*
X017630Y006845D02*
X021406Y006845D01*
X021406Y006903D02*
X017630Y006903D01*
X017630Y006961D02*
X021406Y006961D01*
X021406Y007018D02*
X017630Y007018D01*
X017630Y007076D02*
X021406Y007076D01*
X021406Y007133D02*
X017630Y007133D01*
X017630Y007191D02*
X021406Y007191D01*
X021406Y007248D02*
X017630Y007248D01*
X017630Y007306D02*
X021406Y007306D01*
X021406Y007363D02*
X017630Y007363D01*
X017630Y007421D02*
X021406Y007421D01*
X021406Y007479D02*
X017630Y007479D01*
X017630Y007536D02*
X021406Y007536D01*
X021406Y007594D02*
X017630Y007594D01*
X017630Y007651D02*
X021406Y007651D01*
X021406Y007709D02*
X017630Y007709D01*
X017630Y007766D02*
X017932Y007766D01*
X017934Y007763D02*
X017958Y007739D01*
X017988Y007722D01*
X018021Y007713D01*
X018338Y007713D01*
X018338Y008143D01*
X018397Y008143D01*
X018397Y007713D01*
X018715Y007713D01*
X018748Y007722D01*
X018777Y007739D01*
X018801Y007763D01*
X018818Y007793D01*
X018827Y007826D01*
X018827Y008143D01*
X018397Y008143D01*
X018397Y008202D01*
X018827Y008202D01*
X018827Y008520D01*
X018818Y008553D01*
X018801Y008582D01*
X018777Y008606D01*
X018748Y008624D01*
X018715Y008632D01*
X018397Y008632D01*
X018397Y008202D01*
X018338Y008202D01*
X018338Y008143D01*
X017908Y008143D01*
X017908Y007826D01*
X017917Y007793D01*
X017934Y007763D01*
X017909Y007824D02*
X017630Y007824D01*
X017630Y007881D02*
X017908Y007881D01*
X017908Y007939D02*
X017630Y007939D01*
X017630Y007997D02*
X017908Y007997D01*
X017908Y008054D02*
X017630Y008054D01*
X017628Y008112D02*
X017908Y008112D01*
X017908Y008202D02*
X017908Y008520D01*
X017917Y008553D01*
X017934Y008582D01*
X017958Y008606D01*
X017988Y008624D01*
X018021Y008632D01*
X018338Y008632D01*
X018338Y008202D01*
X017908Y008202D01*
X017908Y008227D02*
X017628Y008227D01*
X017628Y008284D02*
X017908Y008284D01*
X017908Y008342D02*
X017628Y008342D01*
X017628Y008399D02*
X017908Y008399D01*
X017908Y008457D02*
X017628Y008457D01*
X017628Y008515D02*
X017908Y008515D01*
X017928Y008572D02*
X017628Y008572D01*
X017628Y008630D02*
X018011Y008630D01*
X018118Y008802D02*
X017738Y008802D01*
X017681Y008745D02*
X018256Y008745D01*
X018338Y008630D02*
X018397Y008630D01*
X018397Y008572D02*
X018338Y008572D01*
X018338Y008515D02*
X018397Y008515D01*
X018397Y008457D02*
X018338Y008457D01*
X018338Y008399D02*
X018397Y008399D01*
X018397Y008342D02*
X018338Y008342D01*
X018338Y008284D02*
X018397Y008284D01*
X018397Y008227D02*
X018338Y008227D01*
X018338Y008169D02*
X017628Y008169D01*
X017254Y008169D02*
X016823Y008169D01*
X016823Y008112D02*
X017254Y008112D01*
X017254Y008054D02*
X016823Y008054D01*
X016823Y007997D02*
X017254Y007997D01*
X017256Y007939D02*
X016823Y007939D01*
X016823Y007881D02*
X017256Y007881D01*
X017256Y007824D02*
X016775Y007824D01*
X016718Y007766D02*
X017256Y007766D01*
X017256Y007709D02*
X016660Y007709D01*
X016603Y007651D02*
X017256Y007651D01*
X017256Y007594D02*
X016545Y007594D01*
X016487Y007536D02*
X017256Y007536D01*
X017256Y007479D02*
X016430Y007479D01*
X016372Y007421D02*
X017256Y007421D01*
X017256Y007363D02*
X016315Y007363D01*
X016257Y007306D02*
X017256Y007306D01*
X017256Y007248D02*
X016200Y007248D01*
X016142Y007191D02*
X017256Y007191D01*
X017256Y007133D02*
X016115Y007133D01*
X016113Y007076D02*
X017256Y007076D01*
X017256Y007018D02*
X016089Y007018D01*
X016053Y006961D02*
X017256Y006961D01*
X017256Y006558D02*
X015532Y006558D01*
X015671Y006500D02*
X017256Y006500D01*
X017256Y006443D02*
X015766Y006443D01*
X015824Y006385D02*
X017256Y006385D01*
X017224Y006327D02*
X015881Y006327D01*
X015939Y006270D02*
X017176Y006270D01*
X017128Y006212D02*
X015962Y006212D01*
X015986Y006155D02*
X017080Y006155D01*
X017031Y006097D02*
X016010Y006097D01*
X016034Y006040D02*
X016983Y006040D01*
X016935Y005982D02*
X016048Y005982D01*
X016048Y005925D02*
X016887Y005925D01*
X016839Y005867D02*
X016048Y005867D01*
X016048Y005809D02*
X016790Y005809D01*
X016742Y005752D02*
X016048Y005752D01*
X016038Y005694D02*
X016694Y005694D01*
X016646Y005637D02*
X016014Y005637D01*
X015991Y005579D02*
X016597Y005579D01*
X016549Y005522D02*
X015967Y005522D01*
X015943Y005464D02*
X016501Y005464D01*
X016453Y005407D02*
X015892Y005407D01*
X015834Y005349D02*
X016405Y005349D01*
X016356Y005291D02*
X015777Y005291D01*
X015696Y005234D02*
X016308Y005234D01*
X016342Y004256D02*
X015808Y004256D01*
X015937Y004198D02*
X016245Y004198D01*
X016184Y004140D02*
X015995Y004140D01*
X016045Y004083D02*
X016144Y004083D01*
X016116Y004025D02*
X016069Y004025D01*
X016092Y003968D02*
X016098Y003968D01*
X016112Y003738D02*
X016073Y003738D01*
X016050Y003680D02*
X016138Y003680D01*
X016175Y003622D02*
X016006Y003622D01*
X015949Y003565D02*
X016229Y003565D01*
X016318Y003507D02*
X015836Y003507D01*
X015585Y003507D02*
X015268Y003507D01*
X015311Y003565D02*
X015472Y003565D01*
X015414Y003622D02*
X015311Y003622D01*
X015311Y003680D02*
X015371Y003680D01*
X015347Y003738D02*
X015311Y003738D01*
X015311Y003795D02*
X015323Y003795D01*
X015322Y003853D02*
X015311Y003853D01*
X015311Y003910D02*
X015322Y003910D01*
X015328Y003968D02*
X015311Y003968D01*
X015311Y004025D02*
X015352Y004025D01*
X015376Y004083D02*
X015311Y004083D01*
X015311Y004140D02*
X015426Y004140D01*
X015484Y004198D02*
X015311Y004198D01*
X015256Y004256D02*
X015613Y004256D01*
X014590Y004256D02*
X012126Y004256D01*
X012126Y004198D02*
X014535Y004198D01*
X014535Y004140D02*
X012126Y004140D01*
X012106Y004083D02*
X014535Y004083D01*
X014535Y004025D02*
X012082Y004025D01*
X012051Y003968D02*
X014535Y003968D01*
X014535Y003910D02*
X011993Y003910D01*
X011917Y003853D02*
X014535Y003853D01*
X016468Y003910D02*
X016527Y003910D01*
X016527Y003968D02*
X016468Y003968D01*
X016468Y004025D02*
X016527Y004025D01*
X016527Y004083D02*
X016468Y004083D01*
X016468Y004140D02*
X016527Y004140D01*
X016527Y004198D02*
X016468Y004198D01*
X016468Y004256D02*
X016527Y004256D01*
X016654Y004256D02*
X017188Y004256D01*
X017058Y004198D02*
X016751Y004198D01*
X016812Y004140D02*
X017001Y004140D01*
X016951Y004083D02*
X016852Y004083D01*
X016880Y004025D02*
X016927Y004025D01*
X016903Y003968D02*
X016898Y003968D01*
X016883Y003738D02*
X016922Y003738D01*
X016946Y003680D02*
X016858Y003680D01*
X016820Y003622D02*
X016989Y003622D01*
X017047Y003565D02*
X016766Y003565D01*
X016677Y003507D02*
X017160Y003507D01*
X016527Y003507D02*
X016468Y003507D01*
X016468Y003565D02*
X016527Y003565D01*
X016527Y003622D02*
X016468Y003622D01*
X016468Y003680D02*
X016527Y003680D01*
X016527Y003738D02*
X016468Y003738D01*
X016468Y003795D02*
X016527Y003795D01*
X012945Y006385D02*
X012659Y006385D01*
X012798Y006443D02*
X012945Y006443D01*
X012945Y006500D02*
X012857Y006500D01*
X012938Y006615D02*
X012945Y006615D01*
X012937Y006961D02*
X012945Y006961D01*
X012945Y007018D02*
X012912Y007018D01*
X012945Y007076D02*
X012855Y007076D01*
X012793Y007133D02*
X012945Y007133D01*
X012945Y007421D02*
X012784Y007421D01*
X012851Y007479D02*
X012945Y007479D01*
X012945Y007536D02*
X012908Y007536D01*
X012935Y007594D02*
X012945Y007594D01*
X013319Y007709D02*
X015723Y007709D01*
X016823Y008227D02*
X017254Y008227D01*
X017254Y008284D02*
X016823Y008284D01*
X016823Y008342D02*
X017254Y008342D01*
X017254Y008399D02*
X016823Y008399D01*
X016823Y008457D02*
X017254Y008457D01*
X017254Y008515D02*
X016823Y008515D01*
X016823Y008572D02*
X017254Y008572D01*
X017254Y008630D02*
X016823Y008630D01*
X016823Y008687D02*
X017254Y008687D01*
X017254Y008745D02*
X016823Y008745D01*
X016823Y008802D02*
X017254Y008802D01*
X017267Y008860D02*
X016823Y008860D01*
X016823Y008917D02*
X017324Y008917D01*
X017382Y008975D02*
X016823Y008975D01*
X016823Y009033D02*
X017439Y009033D01*
X017497Y009090D02*
X016823Y009090D01*
X016823Y009148D02*
X017555Y009148D01*
X017612Y009205D02*
X016823Y009205D01*
X016823Y009263D02*
X017670Y009263D01*
X017657Y009250D02*
X017657Y009250D01*
X017727Y009320D02*
X016823Y009320D01*
X016823Y009378D02*
X017978Y009378D01*
X018011Y009435D02*
X016823Y009435D01*
X016823Y009493D02*
X018068Y009493D01*
X018135Y009551D02*
X016823Y009551D01*
X016823Y009608D02*
X018273Y009608D01*
X018281Y009735D02*
X018455Y009735D01*
X018616Y009801D01*
X018739Y009925D01*
X018806Y010086D01*
X018806Y010260D01*
X018739Y010421D01*
X018616Y010544D01*
X018455Y010611D01*
X018281Y010611D01*
X018120Y010544D01*
X017996Y010421D01*
X017930Y010260D01*
X017930Y010086D01*
X017996Y009925D01*
X018120Y009801D01*
X018281Y009735D01*
X018169Y009781D02*
X016794Y009781D01*
X016823Y009723D02*
X020029Y009723D01*
X020029Y009666D02*
X016823Y009666D01*
X016736Y009838D02*
X018082Y009838D01*
X018025Y009896D02*
X016679Y009896D01*
X016702Y009931D02*
X016847Y009931D01*
X016847Y010189D01*
X016590Y010189D01*
X016590Y010044D01*
X016599Y010011D01*
X016563Y010011D01*
X016599Y010011D02*
X016616Y009981D01*
X016640Y009957D01*
X016669Y009940D01*
X016702Y009931D01*
X016646Y009953D02*
X016621Y009953D01*
X016590Y010069D02*
X016506Y010069D01*
X016448Y010126D02*
X016590Y010126D01*
X016590Y010184D02*
X016391Y010184D01*
X016333Y010241D02*
X016847Y010241D01*
X016847Y010248D02*
X016847Y010189D01*
X016906Y010189D01*
X016906Y010248D01*
X016847Y010248D01*
X016847Y010505D01*
X016702Y010505D01*
X016669Y010496D01*
X016640Y010479D01*
X016616Y010455D01*
X016599Y010426D01*
X016590Y010393D01*
X016590Y010248D01*
X016847Y010248D01*
X016847Y010299D02*
X016906Y010299D01*
X016906Y010248D02*
X016906Y010505D01*
X017051Y010505D01*
X017084Y010496D01*
X017114Y010479D01*
X017138Y010455D01*
X017155Y010426D01*
X017164Y010393D01*
X017164Y010248D01*
X016906Y010248D01*
X016906Y010241D02*
X017211Y010241D01*
X017211Y010184D02*
X017164Y010184D01*
X017164Y010189D02*
X016906Y010189D01*
X016906Y009931D01*
X017051Y009931D01*
X017084Y009940D01*
X017114Y009957D01*
X017138Y009981D01*
X017155Y010011D01*
X017216Y010011D01*
X017211Y010016D02*
X017275Y009952D01*
X017679Y009952D01*
X017743Y010016D01*
X017743Y010420D01*
X017679Y010484D01*
X017664Y010484D01*
X017664Y010509D01*
X017665Y010509D01*
X017694Y010539D01*
X018048Y010539D01*
X018652Y011143D01*
X019051Y011143D01*
X019091Y011104D01*
X019574Y011104D01*
X019637Y011167D01*
X019637Y011493D01*
X019574Y011557D01*
X019091Y011557D01*
X019051Y011517D01*
X018497Y011517D01*
X018387Y011408D01*
X017893Y010913D01*
X017724Y010913D01*
X017740Y010942D01*
X017749Y010975D01*
X017749Y011075D01*
X017408Y011075D01*
X017408Y010943D01*
X017359Y010943D01*
X017359Y011075D01*
X017408Y011075D01*
X017408Y011125D01*
X017408Y011257D01*
X017359Y011257D01*
X017359Y011125D01*
X017408Y011125D01*
X017749Y011125D01*
X017749Y011225D01*
X017740Y011258D01*
X017723Y011288D01*
X017709Y011302D01*
X017728Y011321D01*
X017728Y011627D01*
X017665Y011691D01*
X017590Y011691D01*
X017590Y011957D01*
X017404Y012143D01*
X017280Y012143D01*
X017280Y012178D01*
X017217Y012242D01*
X016812Y012242D01*
X016748Y012178D01*
X016748Y011774D01*
X016812Y011710D01*
X017217Y011710D01*
X017256Y011749D01*
X017256Y011691D01*
X017102Y011691D01*
X017039Y011627D01*
X017039Y011321D01*
X017058Y011302D01*
X017044Y011288D01*
X017027Y011258D01*
X017018Y011225D01*
X017018Y011125D01*
X017359Y011125D01*
X017359Y011075D01*
X017018Y011075D01*
X017018Y010975D01*
X017027Y010942D01*
X017044Y010912D01*
X017058Y010898D01*
X017053Y010893D01*
X016690Y010893D01*
X016641Y010943D01*
X016079Y010943D01*
X016015Y010879D01*
X016015Y010573D01*
X016079Y010509D01*
X016641Y010509D01*
X016690Y010559D01*
X017053Y010559D01*
X017102Y010509D01*
X017290Y010509D01*
X017290Y010484D01*
X017275Y010484D01*
X017211Y010420D01*
X017211Y010016D01*
X017211Y010069D02*
X017164Y010069D01*
X017164Y010044D02*
X017164Y010189D01*
X017164Y010126D02*
X017211Y010126D01*
X017164Y010044D02*
X017155Y010011D01*
X017108Y009953D02*
X017273Y009953D01*
X017211Y010299D02*
X017164Y010299D01*
X017164Y010356D02*
X017211Y010356D01*
X017211Y010414D02*
X017158Y010414D01*
X017122Y010471D02*
X017262Y010471D01*
X017083Y010529D02*
X016661Y010529D01*
X016632Y010471D02*
X016103Y010471D01*
X016059Y010529D02*
X016045Y010529D01*
X016015Y010587D02*
X015988Y010587D01*
X016015Y010644D02*
X015930Y010644D01*
X015873Y010702D02*
X016015Y010702D01*
X016015Y010759D02*
X015873Y010759D01*
X015884Y010817D02*
X016015Y010817D01*
X016015Y010874D02*
X015884Y010874D01*
X015921Y010932D02*
X016068Y010932D01*
X015978Y010989D02*
X017018Y010989D01*
X017018Y011047D02*
X016036Y011047D01*
X016094Y011105D02*
X017359Y011105D01*
X017408Y011105D02*
X018084Y011105D01*
X018142Y011162D02*
X017749Y011162D01*
X017749Y011220D02*
X018199Y011220D01*
X018257Y011277D02*
X017729Y011277D01*
X017728Y011335D02*
X018315Y011335D01*
X018372Y011392D02*
X017728Y011392D01*
X017728Y011450D02*
X018430Y011450D01*
X018487Y011507D02*
X017728Y011507D01*
X017728Y011565D02*
X021406Y011565D01*
X021406Y011507D02*
X020489Y011507D01*
X020504Y011450D02*
X021406Y011450D01*
X021406Y011392D02*
X020504Y011392D01*
X020504Y011335D02*
X021406Y011335D01*
X021406Y011277D02*
X020504Y011277D01*
X020504Y011220D02*
X021406Y011220D01*
X021406Y011162D02*
X020498Y011162D01*
X020441Y011105D02*
X021406Y011105D01*
X021406Y011047D02*
X020403Y011047D01*
X020403Y010989D02*
X021406Y010989D01*
X021406Y010932D02*
X020403Y010932D01*
X020403Y010874D02*
X021406Y010874D01*
X021406Y010817D02*
X020403Y010817D01*
X020403Y010759D02*
X021406Y010759D01*
X021406Y010702D02*
X020403Y010702D01*
X020403Y010644D02*
X021406Y010644D01*
X021406Y010587D02*
X020403Y010587D01*
X020403Y010529D02*
X021406Y010529D01*
X021406Y010471D02*
X020403Y010471D01*
X020403Y010414D02*
X021406Y010414D01*
X021406Y010356D02*
X020403Y010356D01*
X020403Y010299D02*
X021406Y010299D01*
X021406Y010241D02*
X020403Y010241D01*
X020403Y010184D02*
X021406Y010184D01*
X021406Y010126D02*
X020403Y010126D01*
X020403Y010069D02*
X021406Y010069D01*
X021406Y010011D02*
X020403Y010011D01*
X020403Y009953D02*
X021406Y009953D01*
X021406Y009896D02*
X020403Y009896D01*
X020403Y009838D02*
X021406Y009838D01*
X021406Y009781D02*
X020403Y009781D01*
X020403Y009723D02*
X021406Y009723D01*
X021406Y009666D02*
X020403Y009666D01*
X020403Y009608D02*
X021406Y009608D01*
X021406Y009551D02*
X020403Y009551D01*
X020403Y009493D02*
X021406Y009493D01*
X021406Y009435D02*
X020403Y009435D01*
X020403Y009378D02*
X021406Y009378D01*
X021406Y009320D02*
X020403Y009320D01*
X020384Y009263D02*
X021406Y009263D01*
X021406Y009205D02*
X020326Y009205D01*
X020269Y009148D02*
X021406Y009148D01*
X021406Y009090D02*
X020211Y009090D01*
X020153Y009033D02*
X021406Y009033D01*
X021406Y008975D02*
X019758Y008975D01*
X019730Y008917D02*
X021406Y008917D01*
X021406Y008860D02*
X019673Y008860D01*
X019615Y008802D02*
X021406Y008802D01*
X021406Y008745D02*
X019478Y008745D01*
X019395Y008632D02*
X019713Y008632D01*
X019746Y008624D01*
X019775Y008606D01*
X019799Y008582D01*
X019817Y008553D01*
X019825Y008520D01*
X019825Y008202D01*
X019395Y008202D01*
X019336Y008202D01*
X019336Y008143D01*
X019395Y008143D01*
X019395Y007713D01*
X019713Y007713D01*
X019746Y007722D01*
X019775Y007739D01*
X019799Y007763D01*
X019817Y007793D01*
X019825Y007826D01*
X019825Y008143D01*
X019395Y008143D01*
X019395Y008202D01*
X019395Y008632D01*
X019395Y008630D02*
X019336Y008630D01*
X019336Y008632D02*
X019019Y008632D01*
X018986Y008624D01*
X018956Y008606D01*
X018932Y008582D01*
X018915Y008553D01*
X018906Y008520D01*
X018906Y008202D01*
X019336Y008202D01*
X019336Y008632D01*
X019336Y008572D02*
X019395Y008572D01*
X019395Y008515D02*
X019336Y008515D01*
X019336Y008457D02*
X019395Y008457D01*
X019395Y008399D02*
X019336Y008399D01*
X019336Y008342D02*
X019395Y008342D01*
X019395Y008284D02*
X019336Y008284D01*
X019336Y008227D02*
X019395Y008227D01*
X019395Y008169D02*
X021406Y008169D01*
X021406Y008112D02*
X019825Y008112D01*
X019825Y008054D02*
X021406Y008054D01*
X021406Y007997D02*
X019825Y007997D01*
X019825Y007939D02*
X021406Y007939D01*
X021406Y007881D02*
X019825Y007881D01*
X019825Y007824D02*
X021406Y007824D01*
X021406Y007766D02*
X019801Y007766D01*
X019395Y007766D02*
X019336Y007766D01*
X019336Y007713D02*
X019336Y008143D01*
X018906Y008143D01*
X018906Y007826D01*
X018915Y007793D01*
X018932Y007763D01*
X018956Y007739D01*
X018986Y007722D01*
X019019Y007713D01*
X019336Y007713D01*
X019336Y007824D02*
X019395Y007824D01*
X019395Y007881D02*
X019336Y007881D01*
X019336Y007939D02*
X019395Y007939D01*
X019395Y007997D02*
X019336Y007997D01*
X019336Y008054D02*
X019395Y008054D01*
X019395Y008112D02*
X019336Y008112D01*
X019336Y008169D02*
X018397Y008169D01*
X018397Y008112D02*
X018338Y008112D01*
X018338Y008054D02*
X018397Y008054D01*
X018397Y007997D02*
X018338Y007997D01*
X018338Y007939D02*
X018397Y007939D01*
X018397Y007881D02*
X018338Y007881D01*
X018338Y007824D02*
X018397Y007824D01*
X018397Y007766D02*
X018338Y007766D01*
X018803Y007766D02*
X018930Y007766D01*
X018907Y007824D02*
X018827Y007824D01*
X018827Y007881D02*
X018906Y007881D01*
X018906Y007939D02*
X018827Y007939D01*
X018827Y007997D02*
X018906Y007997D01*
X018906Y008054D02*
X018827Y008054D01*
X018827Y008112D02*
X018906Y008112D01*
X018906Y008227D02*
X018827Y008227D01*
X018827Y008284D02*
X018906Y008284D01*
X018906Y008342D02*
X018827Y008342D01*
X018827Y008399D02*
X018906Y008399D01*
X018906Y008457D02*
X018827Y008457D01*
X018827Y008515D02*
X018906Y008515D01*
X018926Y008572D02*
X018807Y008572D01*
X018725Y008630D02*
X019009Y008630D01*
X019116Y008802D02*
X018617Y008802D01*
X018675Y008860D02*
X019059Y008860D01*
X019001Y008917D02*
X018732Y008917D01*
X018760Y008975D02*
X018973Y008975D01*
X019254Y008745D02*
X018480Y008745D01*
X018061Y008860D02*
X017796Y008860D01*
X017853Y008917D02*
X018003Y008917D01*
X017975Y008975D02*
X017911Y008975D01*
X017628Y008687D02*
X021406Y008687D01*
X021406Y008630D02*
X019723Y008630D01*
X019805Y008572D02*
X021406Y008572D01*
X021406Y008515D02*
X019825Y008515D01*
X019825Y008457D02*
X021406Y008457D01*
X021406Y008399D02*
X019825Y008399D01*
X019825Y008342D02*
X021406Y008342D01*
X021406Y008284D02*
X019825Y008284D01*
X019825Y008227D02*
X021406Y008227D01*
X020027Y009435D02*
X019723Y009435D01*
X019755Y009378D02*
X019970Y009378D01*
X020029Y009493D02*
X019665Y009493D01*
X019599Y009551D02*
X020029Y009551D01*
X020029Y009608D02*
X019460Y009608D01*
X019453Y009735D02*
X019614Y009801D01*
X019737Y009925D01*
X019804Y010086D01*
X019804Y010260D01*
X019737Y010421D01*
X019614Y010544D01*
X019453Y010611D01*
X019279Y010611D01*
X019118Y010544D01*
X018994Y010421D01*
X018928Y010260D01*
X018928Y010086D01*
X018994Y009925D01*
X019118Y009801D01*
X019279Y009735D01*
X019453Y009735D01*
X019565Y009781D02*
X020029Y009781D01*
X020029Y009838D02*
X019651Y009838D01*
X019709Y009896D02*
X020029Y009896D01*
X020029Y009953D02*
X019749Y009953D01*
X019773Y010011D02*
X020029Y010011D01*
X020029Y010069D02*
X019797Y010069D01*
X019804Y010126D02*
X020029Y010126D01*
X020029Y010184D02*
X019804Y010184D01*
X019804Y010241D02*
X020029Y010241D01*
X020029Y010299D02*
X019788Y010299D01*
X019764Y010356D02*
X020029Y010356D01*
X020029Y010414D02*
X019740Y010414D01*
X019687Y010471D02*
X020029Y010471D01*
X020029Y010529D02*
X019629Y010529D01*
X019512Y010587D02*
X020029Y010587D01*
X020029Y010644D02*
X018153Y010644D01*
X018210Y010702D02*
X020029Y010702D01*
X020029Y010759D02*
X018268Y010759D01*
X018325Y010817D02*
X020029Y010817D01*
X020029Y010874D02*
X018383Y010874D01*
X018441Y010932D02*
X020029Y010932D01*
X020029Y010989D02*
X018498Y010989D01*
X018556Y011047D02*
X020029Y011047D01*
X019956Y011105D02*
X019575Y011105D01*
X019632Y011162D02*
X019899Y011162D01*
X019893Y011220D02*
X019637Y011220D01*
X019637Y011277D02*
X019893Y011277D01*
X019893Y011335D02*
X019637Y011335D01*
X019637Y011392D02*
X019893Y011392D01*
X019893Y011450D02*
X019637Y011450D01*
X019623Y011507D02*
X019908Y011507D01*
X019090Y011105D02*
X018613Y011105D01*
X018514Y010587D02*
X019219Y010587D01*
X019102Y010529D02*
X018631Y010529D01*
X018689Y010471D02*
X019045Y010471D01*
X018991Y010414D02*
X018742Y010414D01*
X018766Y010356D02*
X018967Y010356D01*
X018944Y010299D02*
X018790Y010299D01*
X018806Y010241D02*
X018928Y010241D01*
X018928Y010184D02*
X018806Y010184D01*
X018806Y010126D02*
X018928Y010126D01*
X018935Y010069D02*
X018799Y010069D01*
X018775Y010011D02*
X018958Y010011D01*
X018982Y009953D02*
X018751Y009953D01*
X018711Y009896D02*
X019023Y009896D01*
X019080Y009838D02*
X018653Y009838D01*
X018567Y009781D02*
X019167Y009781D01*
X019272Y009608D02*
X018462Y009608D01*
X018601Y009551D02*
X019133Y009551D01*
X019066Y009493D02*
X018667Y009493D01*
X018725Y009435D02*
X019009Y009435D01*
X018976Y009378D02*
X018757Y009378D01*
X017984Y009953D02*
X017680Y009953D01*
X017738Y010011D02*
X017960Y010011D01*
X017937Y010069D02*
X017743Y010069D01*
X017743Y010126D02*
X017930Y010126D01*
X017930Y010184D02*
X017743Y010184D01*
X017743Y010241D02*
X017930Y010241D01*
X017946Y010299D02*
X017743Y010299D01*
X017743Y010356D02*
X017969Y010356D01*
X017993Y010414D02*
X017743Y010414D01*
X017692Y010471D02*
X018047Y010471D01*
X018104Y010529D02*
X017684Y010529D01*
X017735Y010932D02*
X017912Y010932D01*
X017969Y010989D02*
X017749Y010989D01*
X017749Y011047D02*
X018027Y011047D01*
X018095Y010587D02*
X018221Y010587D01*
X017408Y010989D02*
X017359Y010989D01*
X017359Y011047D02*
X017408Y011047D01*
X017408Y011162D02*
X017359Y011162D01*
X017359Y011220D02*
X017408Y011220D01*
X017038Y011277D02*
X016661Y011277D01*
X016704Y011335D02*
X017039Y011335D01*
X017039Y011392D02*
X016704Y011392D01*
X016704Y011450D02*
X017039Y011450D01*
X017039Y011507D02*
X016704Y011507D01*
X016704Y011565D02*
X017039Y011565D01*
X017039Y011623D02*
X016704Y011623D01*
X016651Y011680D02*
X017092Y011680D01*
X017244Y011738D02*
X017256Y011738D01*
X017521Y012025D02*
X017781Y012025D01*
X017779Y012018D02*
X017779Y012009D01*
X018139Y012009D01*
X018139Y011950D01*
X017779Y011950D01*
X017779Y011942D01*
X017794Y011866D01*
X017824Y011795D01*
X017590Y011795D01*
X017590Y011738D02*
X017862Y011738D01*
X017866Y011732D02*
X017921Y011677D01*
X017984Y011635D01*
X018055Y011605D01*
X018131Y011590D01*
X018139Y011590D01*
X018139Y011950D01*
X018198Y011950D01*
X018198Y011590D01*
X018207Y011590D01*
X018283Y011605D01*
X018353Y011635D01*
X018417Y011677D01*
X018472Y011732D01*
X018514Y011795D01*
X021406Y011795D01*
X021406Y011738D02*
X018476Y011738D01*
X018514Y011795D02*
X018544Y011866D01*
X018558Y011942D01*
X018558Y011950D01*
X018198Y011950D01*
X018198Y012009D01*
X018139Y012009D01*
X018139Y012369D01*
X018131Y012369D01*
X018055Y012354D01*
X017984Y012325D01*
X017921Y012282D01*
X017866Y012228D01*
X017824Y012164D01*
X017794Y012094D01*
X017779Y012018D01*
X017792Y012083D02*
X017464Y012083D01*
X017406Y012141D02*
X017814Y012141D01*
X017846Y012198D02*
X017260Y012198D01*
X016768Y012198D02*
X016684Y012198D01*
X016692Y012183D02*
X016675Y012213D01*
X016651Y012237D01*
X016622Y012254D01*
X016589Y012263D01*
X016444Y012263D01*
X016444Y012006D01*
X016701Y012006D01*
X016701Y012151D01*
X016692Y012183D01*
X016701Y012141D02*
X016748Y012141D01*
X016748Y012083D02*
X016701Y012083D01*
X016701Y012025D02*
X016748Y012025D01*
X016748Y011968D02*
X016444Y011968D01*
X016444Y012025D02*
X016385Y012025D01*
X016385Y011968D02*
X014884Y011968D01*
X014884Y011950D02*
X014884Y012009D01*
X015244Y012009D01*
X015244Y012018D01*
X015229Y012094D01*
X015199Y012164D01*
X015157Y012228D01*
X015102Y012282D01*
X015039Y012325D01*
X014968Y012354D01*
X014892Y012369D01*
X014884Y012369D01*
X014884Y012009D01*
X014824Y012009D01*
X014824Y011950D01*
X014464Y011950D01*
X014464Y011942D01*
X014479Y011866D01*
X014509Y011795D01*
X013799Y011795D01*
X013799Y011738D02*
X014547Y011738D01*
X014551Y011732D02*
X014606Y011677D01*
X014669Y011635D01*
X014740Y011605D01*
X014816Y011590D01*
X014824Y011590D01*
X014824Y011950D01*
X014884Y011950D01*
X015244Y011950D01*
X015244Y011942D01*
X015229Y011866D01*
X015199Y011795D01*
X016129Y011795D01*
X016127Y011853D02*
X015223Y011853D01*
X015237Y011910D02*
X016127Y011910D01*
X016127Y012025D02*
X015242Y012025D01*
X015231Y012083D02*
X016127Y012083D01*
X016127Y012141D02*
X015209Y012141D01*
X015177Y012198D02*
X016145Y012198D01*
X016212Y012256D02*
X015129Y012256D01*
X015056Y012313D02*
X017967Y012313D01*
X017894Y012256D02*
X016616Y012256D01*
X016444Y012256D02*
X016385Y012256D01*
X016385Y012198D02*
X016444Y012198D01*
X016444Y012141D02*
X016385Y012141D01*
X016385Y012083D02*
X016444Y012083D01*
X016701Y011910D02*
X016748Y011910D01*
X016748Y011853D02*
X016701Y011853D01*
X016700Y011795D02*
X016748Y011795D01*
X016784Y011738D02*
X016674Y011738D01*
X016154Y011738D02*
X015161Y011738D01*
X015157Y011732D02*
X015199Y011795D01*
X015157Y011732D02*
X015102Y011677D01*
X015039Y011635D01*
X014968Y011605D01*
X014892Y011590D01*
X014884Y011590D01*
X014884Y011950D01*
X014884Y011910D02*
X014824Y011910D01*
X014824Y011853D02*
X014884Y011853D01*
X014884Y011795D02*
X014824Y011795D01*
X014824Y011738D02*
X014884Y011738D01*
X014884Y011680D02*
X014824Y011680D01*
X014824Y011623D02*
X014884Y011623D01*
X015009Y011623D02*
X015915Y011623D01*
X015858Y011565D02*
X013799Y011565D01*
X013799Y011507D02*
X014383Y011507D01*
X014342Y011450D02*
X013799Y011450D01*
X013799Y011392D02*
X014334Y011392D01*
X014334Y011335D02*
X013799Y011335D01*
X013799Y011105D02*
X014690Y011105D01*
X014690Y011162D02*
X014749Y011162D01*
X014749Y011105D02*
X015156Y011105D01*
X015156Y011162D02*
X015105Y011162D01*
X015105Y011220D02*
X015156Y011220D01*
X015156Y011277D02*
X015105Y011277D01*
X015105Y011335D02*
X015156Y011335D01*
X015156Y011392D02*
X015105Y011392D01*
X015098Y011450D02*
X015156Y011450D01*
X015213Y011507D02*
X015056Y011507D01*
X015105Y011680D02*
X016068Y011680D01*
X016132Y011220D02*
X017018Y011220D01*
X017018Y011162D02*
X016132Y011162D01*
X016652Y010932D02*
X017032Y010932D01*
X016906Y010471D02*
X016847Y010471D01*
X016847Y010414D02*
X016906Y010414D01*
X016906Y010356D02*
X016847Y010356D01*
X016847Y010184D02*
X016906Y010184D01*
X016906Y010126D02*
X016847Y010126D01*
X016847Y010069D02*
X016906Y010069D01*
X016906Y010011D02*
X016847Y010011D01*
X016847Y009953D02*
X016906Y009953D01*
X016590Y010299D02*
X016276Y010299D01*
X016218Y010356D02*
X016590Y010356D01*
X016596Y010414D02*
X016161Y010414D01*
X015352Y010702D02*
X015039Y010702D01*
X015093Y010759D02*
X015166Y010759D01*
X015156Y010817D02*
X015105Y010817D01*
X015105Y010874D02*
X015156Y010874D01*
X015156Y010932D02*
X015105Y010932D01*
X015105Y010989D02*
X015156Y010989D01*
X015156Y011047D02*
X015105Y011047D01*
X014749Y011047D02*
X014690Y011047D01*
X014690Y010989D02*
X014749Y010989D01*
X014749Y010932D02*
X014690Y010932D01*
X014690Y010874D02*
X014749Y010874D01*
X014749Y010817D02*
X014690Y010817D01*
X014690Y010759D02*
X014749Y010759D01*
X014749Y010702D02*
X014690Y010702D01*
X014933Y010299D02*
X013799Y010299D01*
X013799Y010356D02*
X015072Y010356D01*
X014866Y010241D02*
X013799Y010241D01*
X013799Y010184D02*
X014809Y010184D01*
X014751Y010126D02*
X013799Y010126D01*
X013799Y010069D02*
X014706Y010069D01*
X014682Y010011D02*
X013799Y010011D01*
X013799Y009953D02*
X014658Y009953D01*
X014634Y009896D02*
X013806Y009896D01*
X013864Y009838D02*
X014611Y009838D01*
X014605Y009781D02*
X013921Y009781D01*
X013979Y009723D02*
X014605Y009723D01*
X014605Y009666D02*
X014036Y009666D01*
X014094Y009608D02*
X014605Y009608D01*
X014605Y009551D02*
X014152Y009551D01*
X014209Y009493D02*
X014623Y009493D01*
X014647Y009435D02*
X014267Y009435D01*
X014324Y009378D02*
X014671Y009378D01*
X014695Y009320D02*
X014382Y009320D01*
X014439Y009263D02*
X014724Y009263D01*
X014781Y009205D02*
X014497Y009205D01*
X014554Y009148D02*
X014839Y009148D01*
X014896Y009090D02*
X014612Y009090D01*
X014670Y009033D02*
X015005Y009033D01*
X015144Y008975D02*
X014727Y008975D01*
X014186Y008399D02*
X012890Y008399D01*
X012875Y008457D02*
X014129Y008457D01*
X014071Y008515D02*
X012923Y008515D01*
X012956Y008572D02*
X014014Y008572D01*
X013956Y008630D02*
X012978Y008630D01*
X012991Y008687D02*
X013898Y008687D01*
X013841Y008745D02*
X012600Y008745D01*
X012600Y008785D02*
X012997Y008785D01*
X012997Y008789D01*
X012986Y008855D01*
X012966Y008919D01*
X012935Y008979D01*
X012896Y009033D01*
X012848Y009081D01*
X012794Y009120D01*
X012734Y009151D01*
X012670Y009171D01*
X012604Y009182D01*
X012600Y009182D01*
X012600Y008785D01*
X012600Y008802D02*
X012541Y008802D01*
X012541Y008860D02*
X012600Y008860D01*
X012600Y008917D02*
X012541Y008917D01*
X012541Y008975D02*
X012600Y008975D01*
X012600Y009033D02*
X012541Y009033D01*
X012541Y009090D02*
X012600Y009090D01*
X012600Y009148D02*
X012541Y009148D01*
X012401Y009148D02*
X012053Y009148D01*
X011995Y009205D02*
X013380Y009205D01*
X013323Y009263D02*
X011938Y009263D01*
X011880Y009320D02*
X013265Y009320D01*
X013208Y009378D02*
X011795Y009378D01*
X011762Y009435D02*
X013150Y009435D01*
X013093Y009493D02*
X011705Y009493D01*
X011638Y009551D02*
X013035Y009551D01*
X013002Y009608D02*
X011499Y009608D01*
X011492Y009735D02*
X011653Y009801D01*
X011777Y009925D01*
X011787Y009948D01*
X011965Y009948D01*
X011965Y009894D01*
X012029Y009830D01*
X012433Y009830D01*
X012497Y009894D01*
X012497Y010298D01*
X012433Y010362D01*
X012029Y010362D01*
X011965Y010298D01*
X011965Y010244D01*
X011843Y010244D01*
X011843Y010260D01*
X011777Y010421D01*
X011653Y010544D01*
X011492Y010611D01*
X011318Y010611D01*
X011157Y010544D01*
X011034Y010421D01*
X010967Y010260D01*
X010967Y010086D01*
X011034Y009925D01*
X011157Y009801D01*
X011318Y009735D01*
X011492Y009735D01*
X011604Y009781D02*
X013002Y009781D01*
X012621Y009838D02*
X012442Y009838D01*
X012497Y009896D02*
X012565Y009896D01*
X012565Y009953D02*
X012497Y009953D01*
X012497Y010011D02*
X012565Y010011D01*
X012565Y010069D02*
X012497Y010069D01*
X012497Y010126D02*
X012565Y010126D01*
X012565Y010184D02*
X012497Y010184D01*
X012497Y010241D02*
X012565Y010241D01*
X012566Y010299D02*
X012496Y010299D01*
X012439Y010356D02*
X012623Y010356D01*
X012562Y010471D02*
X012468Y010471D01*
X012481Y010484D02*
X012481Y010889D01*
X012418Y010952D01*
X012013Y010952D01*
X011950Y010889D01*
X011950Y010834D01*
X011903Y010834D01*
X011821Y010917D01*
X011734Y011004D01*
X010578Y011004D01*
X010342Y010767D01*
X010256Y010681D01*
X010256Y010585D01*
X010157Y010544D01*
X010034Y010421D01*
X009967Y010260D01*
X009967Y010086D01*
X010034Y009925D01*
X010157Y009801D01*
X010318Y009735D01*
X010492Y009735D01*
X010653Y009801D01*
X010777Y009925D01*
X010843Y010086D01*
X010843Y010260D01*
X010777Y010421D01*
X010653Y010544D01*
X010571Y010579D01*
X010701Y010708D01*
X011612Y010708D01*
X011781Y010539D01*
X011950Y010539D01*
X011950Y010484D01*
X012013Y010421D01*
X012418Y010421D01*
X012481Y010484D01*
X012481Y010529D02*
X012550Y010529D01*
X012550Y010587D02*
X012481Y010587D01*
X012481Y010644D02*
X012550Y010644D01*
X012550Y010702D02*
X012481Y010702D01*
X012481Y010759D02*
X012550Y010759D01*
X012550Y010817D02*
X012481Y010817D01*
X012481Y010874D02*
X012550Y010874D01*
X012593Y010932D02*
X012438Y010932D01*
X012601Y010989D02*
X012781Y010989D01*
X012725Y011047D02*
X012656Y011047D01*
X012656Y011105D02*
X012725Y011105D01*
X012725Y011162D02*
X012656Y011162D01*
X012656Y011220D02*
X012725Y011220D01*
X012725Y011277D02*
X012656Y011277D01*
X012656Y011335D02*
X012725Y011335D01*
X012725Y011392D02*
X012656Y011392D01*
X012656Y011450D02*
X012725Y011450D01*
X012782Y011507D02*
X012599Y011507D01*
X012182Y011507D02*
X009573Y011507D01*
X009504Y011450D02*
X012125Y011450D01*
X012125Y011047D02*
X010016Y011047D01*
X009958Y010989D02*
X010564Y010989D01*
X010507Y010932D02*
X009901Y010932D01*
X009843Y010874D02*
X010449Y010874D01*
X010392Y010817D02*
X009786Y010817D01*
X009728Y010759D02*
X010334Y010759D01*
X010276Y010702D02*
X009670Y010702D01*
X009613Y010644D02*
X010256Y010644D01*
X010256Y010587D02*
X009611Y010587D01*
X009669Y010529D02*
X010142Y010529D01*
X010084Y010471D02*
X009726Y010471D01*
X009784Y010414D02*
X010031Y010414D01*
X010007Y010356D02*
X009841Y010356D01*
X009843Y010299D02*
X009983Y010299D01*
X009967Y010241D02*
X009843Y010241D01*
X009843Y010184D02*
X009967Y010184D01*
X009967Y010126D02*
X009843Y010126D01*
X009843Y010069D02*
X009974Y010069D01*
X009998Y010011D02*
X009843Y010011D01*
X009806Y009953D02*
X010022Y009953D01*
X010062Y009896D02*
X009748Y009896D01*
X009691Y009838D02*
X010120Y009838D01*
X010206Y009781D02*
X009633Y009781D01*
X009499Y009608D02*
X010311Y009608D01*
X010172Y009551D02*
X009638Y009551D01*
X009705Y009493D02*
X010106Y009493D01*
X010048Y009435D02*
X009762Y009435D01*
X009795Y009378D02*
X010016Y009378D01*
X010013Y008975D02*
X009798Y008975D01*
X009770Y008917D02*
X010041Y008917D01*
X010098Y008860D02*
X009712Y008860D01*
X009655Y008802D02*
X010156Y008802D01*
X010293Y008745D02*
X009517Y008745D01*
X009435Y008572D02*
X009376Y008572D01*
X009376Y008515D02*
X009435Y008515D01*
X009435Y008457D02*
X009376Y008457D01*
X009376Y008399D02*
X009435Y008399D01*
X009435Y008342D02*
X009376Y008342D01*
X009376Y008284D02*
X009435Y008284D01*
X009435Y008227D02*
X009376Y008227D01*
X009376Y008169D02*
X008129Y008169D01*
X009376Y008112D02*
X009435Y008112D01*
X009435Y008143D02*
X009435Y007713D01*
X009441Y007713D01*
X009513Y007725D01*
X009582Y007747D01*
X009646Y007780D01*
X009705Y007822D01*
X009756Y007873D01*
X009798Y007932D01*
X009831Y007996D01*
X009853Y008065D01*
X009865Y008137D01*
X009865Y008143D01*
X009435Y008143D01*
X009435Y008169D02*
X010376Y008169D01*
X010376Y008143D02*
X009946Y008143D01*
X009946Y008137D01*
X009957Y008065D01*
X009979Y007996D01*
X010012Y007932D01*
X010055Y007873D01*
X010106Y007822D01*
X010164Y007780D01*
X010229Y007747D01*
X010298Y007725D01*
X010369Y007713D01*
X010376Y007713D01*
X010376Y008143D01*
X010376Y008112D02*
X010435Y008112D01*
X010435Y008143D02*
X010435Y007713D01*
X010441Y007713D01*
X010513Y007725D01*
X010582Y007747D01*
X010646Y007780D01*
X010705Y007822D01*
X010756Y007873D01*
X010798Y007932D01*
X010831Y007996D01*
X010853Y008065D01*
X010865Y008137D01*
X010865Y008143D01*
X010435Y008143D01*
X010435Y008169D02*
X011376Y008169D01*
X011376Y008143D02*
X010946Y008143D01*
X010946Y008137D01*
X010957Y008065D01*
X010979Y007996D01*
X011012Y007932D01*
X011055Y007873D01*
X011106Y007822D01*
X011164Y007780D01*
X011229Y007747D01*
X011298Y007725D01*
X011369Y007713D01*
X011376Y007713D01*
X011376Y008143D01*
X011376Y008112D02*
X011435Y008112D01*
X011435Y008143D02*
X011435Y007713D01*
X011441Y007713D01*
X011513Y007725D01*
X011582Y007747D01*
X011646Y007780D01*
X011705Y007822D01*
X011756Y007873D01*
X011798Y007932D01*
X011831Y007996D01*
X011853Y008065D01*
X011865Y008137D01*
X011865Y008143D01*
X011435Y008143D01*
X011435Y008169D02*
X012076Y008169D01*
X012133Y008112D02*
X011861Y008112D01*
X011850Y008054D02*
X012281Y008054D01*
X012225Y007997D02*
X011831Y007997D01*
X011802Y007939D02*
X012202Y007939D01*
X012178Y007881D02*
X011762Y007881D01*
X011706Y007824D02*
X012165Y007824D01*
X012165Y007766D02*
X011620Y007766D01*
X011435Y007766D02*
X011376Y007766D01*
X011376Y007824D02*
X011435Y007824D01*
X011435Y007881D02*
X011376Y007881D01*
X011376Y007939D02*
X011435Y007939D01*
X011435Y007997D02*
X011376Y007997D01*
X011376Y008054D02*
X011435Y008054D01*
X011435Y008227D02*
X011376Y008227D01*
X011376Y008284D02*
X011435Y008284D01*
X011435Y008342D02*
X011376Y008342D01*
X011376Y008399D02*
X011435Y008399D01*
X011435Y008457D02*
X011376Y008457D01*
X011376Y008515D02*
X011435Y008515D01*
X011435Y008572D02*
X011376Y008572D01*
X011293Y008745D02*
X010517Y008745D01*
X010655Y008802D02*
X011156Y008802D01*
X011098Y008860D02*
X010712Y008860D01*
X010770Y008917D02*
X011041Y008917D01*
X011013Y008975D02*
X010798Y008975D01*
X010634Y008572D02*
X011177Y008572D01*
X011097Y008515D02*
X010713Y008515D01*
X010767Y008457D02*
X011044Y008457D01*
X011005Y008399D02*
X010805Y008399D01*
X010833Y008342D02*
X010977Y008342D01*
X010958Y008284D02*
X010852Y008284D01*
X010862Y008227D02*
X010948Y008227D01*
X010950Y008112D02*
X010861Y008112D01*
X010850Y008054D02*
X010961Y008054D01*
X010979Y007997D02*
X010831Y007997D01*
X010802Y007939D02*
X011009Y007939D01*
X011049Y007881D02*
X010762Y007881D01*
X010706Y007824D02*
X011104Y007824D01*
X011191Y007766D02*
X010620Y007766D01*
X010435Y007766D02*
X010376Y007766D01*
X010376Y007824D02*
X010435Y007824D01*
X010435Y007881D02*
X010376Y007881D01*
X010376Y007939D02*
X010435Y007939D01*
X010435Y007997D02*
X010376Y007997D01*
X010376Y008054D02*
X010435Y008054D01*
X010435Y008227D02*
X010376Y008227D01*
X010376Y008284D02*
X010435Y008284D01*
X010435Y008342D02*
X010376Y008342D01*
X010376Y008399D02*
X010435Y008399D01*
X010435Y008457D02*
X010376Y008457D01*
X010376Y008515D02*
X010435Y008515D01*
X010435Y008572D02*
X010376Y008572D01*
X010177Y008572D02*
X009634Y008572D01*
X009713Y008515D02*
X010097Y008515D01*
X010044Y008457D02*
X009767Y008457D01*
X009805Y008399D02*
X010005Y008399D01*
X009977Y008342D02*
X009833Y008342D01*
X009852Y008284D02*
X009958Y008284D01*
X009948Y008227D02*
X009862Y008227D01*
X009861Y008112D02*
X009950Y008112D01*
X009961Y008054D02*
X009850Y008054D01*
X009831Y007997D02*
X009979Y007997D01*
X010009Y007939D02*
X009802Y007939D01*
X009762Y007881D02*
X010049Y007881D01*
X010104Y007824D02*
X009706Y007824D01*
X009620Y007766D02*
X010191Y007766D01*
X009435Y007766D02*
X009376Y007766D01*
X009376Y007824D02*
X009435Y007824D01*
X009435Y007881D02*
X009376Y007881D01*
X009376Y007939D02*
X009435Y007939D01*
X009435Y007997D02*
X009376Y007997D01*
X009376Y008054D02*
X009435Y008054D01*
X010795Y009378D02*
X011016Y009378D01*
X011048Y009435D02*
X010762Y009435D01*
X010705Y009493D02*
X011106Y009493D01*
X011172Y009551D02*
X010638Y009551D01*
X010499Y009608D02*
X011311Y009608D01*
X011206Y009781D02*
X010604Y009781D01*
X010691Y009838D02*
X011120Y009838D01*
X011062Y009896D02*
X010748Y009896D01*
X010789Y009953D02*
X011022Y009953D01*
X010998Y010011D02*
X010813Y010011D01*
X010836Y010069D02*
X010974Y010069D01*
X010967Y010126D02*
X010843Y010126D01*
X010843Y010184D02*
X010967Y010184D01*
X010967Y010241D02*
X010843Y010241D01*
X010827Y010299D02*
X010983Y010299D01*
X011007Y010356D02*
X010804Y010356D01*
X010780Y010414D02*
X011031Y010414D01*
X011084Y010471D02*
X010726Y010471D01*
X010669Y010529D02*
X011142Y010529D01*
X011259Y010587D02*
X010579Y010587D01*
X010636Y010644D02*
X011676Y010644D01*
X011733Y010587D02*
X011552Y010587D01*
X011669Y010529D02*
X011950Y010529D01*
X011962Y010471D02*
X011726Y010471D01*
X011780Y010414D02*
X013169Y010414D01*
X013169Y010471D02*
X013068Y010471D01*
X013081Y010529D02*
X013120Y010529D01*
X013169Y010356D02*
X013039Y010356D01*
X013096Y010299D02*
X013169Y010299D01*
X013169Y010241D02*
X013097Y010241D01*
X013144Y010184D02*
X013169Y010184D01*
X013307Y010759D02*
X013336Y010759D01*
X013336Y010817D02*
X013250Y010817D01*
X013336Y010874D02*
X013081Y010874D01*
X013038Y010932D02*
X013336Y010932D01*
X013336Y010989D02*
X013201Y010989D01*
X013256Y011047D02*
X013310Y011047D01*
X013504Y011623D02*
X011671Y011623D01*
X011767Y011680D02*
X013504Y011680D01*
X013504Y011853D02*
X011884Y011853D01*
X011899Y011910D02*
X013504Y011910D01*
X013504Y011968D02*
X011545Y011968D01*
X011545Y012025D02*
X011486Y012025D01*
X011486Y011968D02*
X010125Y011968D01*
X010056Y011910D02*
X011132Y011910D01*
X011146Y011853D02*
X009987Y011853D01*
X010194Y012025D02*
X011127Y012025D01*
X011139Y012083D02*
X010263Y012083D01*
X010332Y012141D02*
X011160Y012141D01*
X011193Y012198D02*
X010401Y012198D01*
X010474Y012371D02*
X013504Y012371D01*
X013504Y012428D02*
X010474Y012428D01*
X010474Y012486D02*
X013504Y012486D01*
X013504Y012543D02*
X010474Y012543D01*
X010474Y012601D02*
X013504Y012601D01*
X013504Y012659D02*
X011702Y012659D01*
X011724Y012668D02*
X011828Y012771D01*
X011884Y012907D01*
X011884Y013053D01*
X011828Y013189D01*
X011724Y013292D01*
X011589Y013348D01*
X011442Y013348D01*
X011307Y013292D01*
X011203Y013189D01*
X011147Y013053D01*
X011147Y012907D01*
X011203Y012771D01*
X011307Y012668D01*
X011442Y012612D01*
X011589Y012612D01*
X011724Y012668D01*
X011772Y012716D02*
X013504Y012716D01*
X013504Y012774D02*
X011829Y012774D01*
X011852Y012831D02*
X013504Y012831D01*
X013504Y012889D02*
X011876Y012889D01*
X011884Y012946D02*
X013504Y012946D01*
X013504Y013004D02*
X011884Y013004D01*
X011880Y013061D02*
X013504Y013061D01*
X013504Y013119D02*
X011856Y013119D01*
X011833Y013177D02*
X013504Y013177D01*
X013504Y013234D02*
X011782Y013234D01*
X011724Y013292D02*
X013504Y013292D01*
X013504Y013349D02*
X010474Y013349D01*
X010474Y013292D02*
X011306Y013292D01*
X011249Y013234D02*
X010474Y013234D01*
X010474Y013177D02*
X011198Y013177D01*
X011174Y013119D02*
X010474Y013119D01*
X010474Y013061D02*
X011151Y013061D01*
X011147Y013004D02*
X010474Y013004D01*
X010474Y012946D02*
X011147Y012946D01*
X011155Y012889D02*
X010474Y012889D01*
X010474Y012831D02*
X011178Y012831D01*
X011202Y012774D02*
X010474Y012774D01*
X010474Y012716D02*
X011258Y012716D01*
X011329Y012659D02*
X010474Y012659D01*
X010474Y013407D02*
X013504Y013407D01*
X013504Y013464D02*
X010474Y013464D01*
X010474Y013522D02*
X013504Y013522D01*
X013325Y013579D02*
X010474Y013579D01*
X010474Y013637D02*
X013272Y013637D01*
X013272Y013695D02*
X010474Y013695D01*
X010474Y013752D02*
X013272Y013752D01*
X013272Y013810D02*
X010474Y013810D01*
X010474Y013867D02*
X013272Y013867D01*
X013272Y013925D02*
X010474Y013925D01*
X010474Y013982D02*
X013272Y013982D01*
X013272Y014040D02*
X010474Y014040D01*
X010474Y014097D02*
X013272Y014097D01*
X013272Y014155D02*
X010474Y014155D01*
X010474Y014213D02*
X013272Y014213D01*
X013305Y014270D02*
X010474Y014270D01*
X011486Y012313D02*
X011545Y012313D01*
X011545Y012256D02*
X011486Y012256D01*
X011486Y012198D02*
X011545Y012198D01*
X011545Y012141D02*
X011486Y012141D01*
X011486Y012083D02*
X011545Y012083D01*
X011545Y011910D02*
X011486Y011910D01*
X011486Y011853D02*
X011545Y011853D01*
X011545Y011795D02*
X011486Y011795D01*
X011486Y011738D02*
X011545Y011738D01*
X011545Y011680D02*
X011486Y011680D01*
X011486Y011623D02*
X011545Y011623D01*
X011904Y012025D02*
X013504Y012025D01*
X013504Y012083D02*
X011892Y012083D01*
X011870Y012141D02*
X013504Y012141D01*
X013504Y012198D02*
X011838Y012198D01*
X011791Y012256D02*
X013504Y012256D01*
X013504Y012313D02*
X011718Y012313D01*
X011170Y011795D02*
X011213Y011732D01*
X011748Y010989D02*
X012181Y010989D01*
X011993Y010932D02*
X011806Y010932D01*
X011821Y010917D02*
X011821Y010917D01*
X011863Y010874D02*
X011950Y010874D01*
X011618Y010702D02*
X010694Y010702D01*
X011691Y009838D02*
X012021Y009838D01*
X011965Y009896D02*
X011748Y009896D01*
X011827Y010299D02*
X011966Y010299D01*
X012023Y010356D02*
X011804Y010356D01*
X012110Y009090D02*
X012306Y009090D01*
X012245Y009033D02*
X012147Y009033D01*
X012147Y008975D02*
X012204Y008975D01*
X012175Y008917D02*
X012147Y008917D01*
X012147Y008860D02*
X012156Y008860D01*
X011770Y008860D02*
X011712Y008860D01*
X011655Y008802D02*
X011770Y008802D01*
X011770Y008745D02*
X011517Y008745D01*
X011634Y008572D02*
X011770Y008572D01*
X011770Y008515D02*
X011713Y008515D01*
X011767Y008457D02*
X011788Y008457D01*
X011805Y008399D02*
X011845Y008399D01*
X011833Y008342D02*
X011903Y008342D01*
X011852Y008284D02*
X011960Y008284D01*
X012018Y008227D02*
X011862Y008227D01*
X012947Y008342D02*
X014244Y008342D01*
X014301Y008284D02*
X014004Y008284D01*
X014061Y008227D02*
X014359Y008227D01*
X014416Y008169D02*
X014090Y008169D01*
X014107Y008112D02*
X014474Y008112D01*
X014532Y008054D02*
X014107Y008054D01*
X013906Y007824D02*
X013319Y007824D01*
X013319Y007881D02*
X013707Y007881D01*
X013650Y007939D02*
X013319Y007939D01*
X013291Y007997D02*
X013626Y007997D01*
X013613Y008054D02*
X013233Y008054D01*
X013176Y008112D02*
X013613Y008112D01*
X013630Y008169D02*
X013118Y008169D01*
X013061Y008227D02*
X013659Y008227D01*
X013716Y008284D02*
X013003Y008284D01*
X012995Y008802D02*
X013783Y008802D01*
X013726Y008860D02*
X012985Y008860D01*
X012966Y008917D02*
X013668Y008917D01*
X013611Y008975D02*
X012937Y008975D01*
X012896Y009033D02*
X013553Y009033D01*
X013496Y009090D02*
X012835Y009090D01*
X012740Y009148D02*
X013438Y009148D01*
X013319Y007766D02*
X013963Y007766D01*
X011447Y006385D02*
X011388Y006385D01*
X011388Y006327D02*
X011447Y006327D01*
X011447Y006270D02*
X011388Y006270D01*
X011388Y006212D02*
X011447Y006212D01*
X011447Y006155D02*
X011388Y006155D01*
X011388Y006097D02*
X011447Y006097D01*
X011447Y006040D02*
X011388Y006040D01*
X011388Y005867D02*
X011447Y005867D01*
X011447Y005809D02*
X011388Y005809D01*
X011388Y005752D02*
X011447Y005752D01*
X011447Y005694D02*
X011388Y005694D01*
X011388Y005637D02*
X011447Y005637D01*
X011447Y005579D02*
X011388Y005579D01*
X014690Y011220D02*
X014749Y011220D01*
X014749Y011277D02*
X014690Y011277D01*
X014690Y011335D02*
X014749Y011335D01*
X014749Y011392D02*
X014690Y011392D01*
X014690Y011450D02*
X014749Y011450D01*
X014749Y011507D02*
X014690Y011507D01*
X014699Y011623D02*
X013799Y011623D01*
X013799Y011680D02*
X014603Y011680D01*
X014551Y011732D02*
X014509Y011795D01*
X014485Y011853D02*
X013799Y011853D01*
X013799Y011910D02*
X014471Y011910D01*
X014464Y012009D02*
X014824Y012009D01*
X014824Y012369D01*
X014816Y012369D01*
X014740Y012354D01*
X014669Y012325D01*
X014606Y012282D01*
X014551Y012228D01*
X014509Y012164D01*
X014479Y012094D01*
X014464Y012018D01*
X014464Y012009D01*
X014466Y012025D02*
X013799Y012025D01*
X013799Y011968D02*
X014824Y011968D01*
X014824Y012025D02*
X014884Y012025D01*
X014884Y012083D02*
X014824Y012083D01*
X014824Y012141D02*
X014884Y012141D01*
X014884Y012198D02*
X014824Y012198D01*
X014824Y012256D02*
X014884Y012256D01*
X014884Y012313D02*
X014824Y012313D01*
X014652Y012313D02*
X013799Y012313D01*
X013799Y012256D02*
X014579Y012256D01*
X014531Y012198D02*
X013799Y012198D01*
X013799Y012141D02*
X014499Y012141D01*
X014477Y012083D02*
X013799Y012083D01*
X013799Y012371D02*
X021406Y012371D01*
X021406Y012428D02*
X013799Y012428D01*
X013799Y012486D02*
X021406Y012486D01*
X021406Y012543D02*
X013799Y012543D01*
X013799Y012601D02*
X021406Y012601D01*
X021406Y012659D02*
X018356Y012659D01*
X018378Y012668D02*
X018481Y012771D01*
X018537Y012907D01*
X018537Y013053D01*
X018481Y013189D01*
X018378Y013292D01*
X021406Y013292D01*
X021406Y013349D02*
X013799Y013349D01*
X013799Y013292D02*
X014645Y013292D01*
X014542Y013189D01*
X014486Y013053D01*
X014486Y012907D01*
X014542Y012771D01*
X014645Y012668D01*
X014781Y012612D01*
X014927Y012612D01*
X015063Y012668D01*
X015166Y012771D01*
X015222Y012907D01*
X015222Y013053D01*
X015166Y013189D01*
X015063Y013292D01*
X017960Y013292D01*
X017857Y013189D01*
X017801Y013053D01*
X017801Y012907D01*
X017857Y012771D01*
X017960Y012668D01*
X018096Y012612D01*
X018242Y012612D01*
X018378Y012668D01*
X018426Y012716D02*
X021406Y012716D01*
X021406Y012774D02*
X018482Y012774D01*
X018506Y012831D02*
X021406Y012831D01*
X021406Y012889D02*
X018530Y012889D01*
X018537Y012946D02*
X021406Y012946D01*
X021406Y013004D02*
X018537Y013004D01*
X018534Y013061D02*
X021406Y013061D01*
X021406Y013119D02*
X018510Y013119D01*
X018486Y013177D02*
X021406Y013177D01*
X021406Y013234D02*
X018436Y013234D01*
X018378Y013292D02*
X018242Y013348D01*
X018096Y013348D01*
X017960Y013292D01*
X017902Y013234D02*
X015121Y013234D01*
X015171Y013177D02*
X017852Y013177D01*
X017828Y013119D02*
X015195Y013119D01*
X015219Y013061D02*
X017804Y013061D01*
X017801Y013004D02*
X015222Y013004D01*
X015222Y012946D02*
X017801Y012946D01*
X017808Y012889D02*
X015215Y012889D01*
X015191Y012831D02*
X017832Y012831D01*
X017856Y012774D02*
X015167Y012774D01*
X015111Y012716D02*
X017912Y012716D01*
X017982Y012659D02*
X015041Y012659D01*
X014667Y012659D02*
X013799Y012659D01*
X013799Y012716D02*
X014597Y012716D01*
X014541Y012774D02*
X013799Y012774D01*
X013799Y012831D02*
X014517Y012831D01*
X014493Y012889D02*
X013799Y012889D01*
X013799Y012946D02*
X014486Y012946D01*
X014486Y013004D02*
X013799Y013004D01*
X013799Y013061D02*
X014489Y013061D01*
X014513Y013119D02*
X013799Y013119D01*
X013799Y013177D02*
X014537Y013177D01*
X014587Y013234D02*
X013799Y013234D01*
X013799Y013407D02*
X021406Y013407D01*
X021406Y013464D02*
X013799Y013464D01*
X013799Y013522D02*
X021406Y013522D01*
X021406Y013579D02*
X015736Y013579D01*
X015857Y013637D02*
X021406Y013637D01*
X021406Y013695D02*
X015915Y013695D01*
X015958Y013752D02*
X021406Y013752D01*
X021406Y013810D02*
X015982Y013810D01*
X016003Y013867D02*
X021406Y013867D01*
X021406Y013925D02*
X016003Y013925D01*
X016003Y013982D02*
X021406Y013982D01*
X021406Y014040D02*
X015990Y014040D01*
X015966Y014097D02*
X021406Y014097D01*
X021406Y014155D02*
X015934Y014155D01*
X015877Y014213D02*
X021406Y014213D01*
X021406Y014270D02*
X015783Y014270D01*
X015492Y014270D02*
X014832Y014270D01*
X014907Y014213D02*
X015398Y014213D01*
X015341Y014155D02*
X014956Y014155D01*
X014989Y014097D02*
X015309Y014097D01*
X015285Y014040D02*
X015011Y014040D01*
X015023Y013982D02*
X015272Y013982D01*
X015272Y013925D02*
X014667Y013925D01*
X014667Y013867D02*
X014608Y013867D01*
X014608Y013810D02*
X014667Y013810D01*
X014667Y013752D02*
X014608Y013752D01*
X014608Y013695D02*
X014667Y013695D01*
X014667Y013637D02*
X014608Y013637D01*
X014608Y013579D02*
X014667Y013579D01*
X014791Y013579D02*
X015539Y013579D01*
X015418Y013637D02*
X014887Y013637D01*
X014943Y013695D02*
X015360Y013695D01*
X015317Y013752D02*
X014981Y013752D01*
X015005Y013810D02*
X015293Y013810D01*
X015272Y013867D02*
X015019Y013867D01*
X014608Y013925D02*
X014003Y013925D01*
X014003Y013982D02*
X014252Y013982D01*
X014264Y014040D02*
X014003Y014040D01*
X014003Y014097D02*
X014286Y014097D01*
X014319Y014155D02*
X014003Y014155D01*
X014003Y014213D02*
X014368Y014213D01*
X014443Y014270D02*
X013970Y014270D01*
X014003Y013867D02*
X014256Y013867D01*
X014270Y013810D02*
X014003Y013810D01*
X014003Y013752D02*
X014294Y013752D01*
X014332Y013695D02*
X014003Y013695D01*
X014003Y013637D02*
X014388Y013637D01*
X014484Y013579D02*
X013950Y013579D01*
X014645Y013292D02*
X014781Y013348D01*
X014927Y013348D01*
X015063Y013292D01*
X017579Y011968D02*
X018139Y011968D01*
X018139Y012025D02*
X018198Y012025D01*
X018198Y012009D02*
X018198Y012369D01*
X018207Y012369D01*
X018283Y012354D01*
X018353Y012325D01*
X018417Y012282D01*
X018472Y012228D01*
X018514Y012164D01*
X018544Y012094D01*
X018558Y012018D01*
X018558Y012009D01*
X018198Y012009D01*
X018198Y011968D02*
X021406Y011968D01*
X021406Y012025D02*
X018557Y012025D01*
X018546Y012083D02*
X021406Y012083D01*
X021406Y012141D02*
X018524Y012141D01*
X018492Y012198D02*
X021406Y012198D01*
X021406Y012256D02*
X018444Y012256D01*
X018371Y012313D02*
X021406Y012313D01*
X021406Y011910D02*
X018552Y011910D01*
X018538Y011853D02*
X021406Y011853D01*
X021406Y011680D02*
X018420Y011680D01*
X018324Y011623D02*
X021406Y011623D01*
X018198Y011623D02*
X018139Y011623D01*
X018139Y011680D02*
X018198Y011680D01*
X018198Y011738D02*
X018139Y011738D01*
X018139Y011795D02*
X018198Y011795D01*
X018198Y011853D02*
X018139Y011853D01*
X018139Y011910D02*
X018198Y011910D01*
X018198Y012083D02*
X018139Y012083D01*
X018139Y012141D02*
X018198Y012141D01*
X018198Y012198D02*
X018139Y012198D01*
X018139Y012256D02*
X018198Y012256D01*
X018198Y012313D02*
X018139Y012313D01*
X017786Y011910D02*
X017590Y011910D01*
X017590Y011853D02*
X017800Y011853D01*
X017824Y011795D02*
X017866Y011732D01*
X017918Y011680D02*
X017675Y011680D01*
X017728Y011623D02*
X018014Y011623D01*
M02*
