G75*
%MOIN*%
%OFA0B0*%
%FSLAX24Y24*%
%IPPOS*%
%LPD*%
%AMOC8*
5,1,8,0,0,1.08239X$1,22.5*
%
%ADD10C,0.1143*%
%ADD11R,0.0867X0.0237*%
%ADD12R,0.0395X0.0395*%
%ADD13R,0.0640X0.0640*%
%ADD14C,0.0640*%
%ADD15R,0.0611X0.0237*%
%ADD16OC8,0.0740*%
%ADD17C,0.0740*%
%ADD18R,0.0740X0.0740*%
%ADD19C,0.0600*%
%ADD20C,0.0680*%
%ADD21C,0.0674*%
%ADD22C,0.1307*%
%ADD23R,0.0595X0.0595*%
%ADD24C,0.0595*%
%ADD25C,0.0397*%
%ADD26C,0.0358*%
D10*
X009311Y013189D03*
X020334Y005244D03*
D11*
X013498Y006143D03*
X013498Y006616D03*
X013498Y007088D03*
D12*
X013245Y007596D03*
X013269Y008192D03*
X013269Y008792D03*
X013845Y007596D03*
X013924Y005381D03*
X013324Y005381D03*
X012792Y003659D03*
X012192Y003659D03*
X017531Y007818D03*
X017531Y008418D03*
X018048Y006415D03*
X018648Y006415D03*
X020179Y007276D03*
X020179Y007876D03*
X016901Y012306D03*
X016901Y012906D03*
X013643Y012847D03*
X013643Y012247D03*
X012767Y012247D03*
X012767Y012847D03*
D13*
X014923Y003876D03*
D14*
X015710Y003876D03*
X016498Y003876D03*
X017285Y003876D03*
D15*
X016793Y006622D03*
X016793Y006878D03*
X016793Y007133D03*
X016793Y007389D03*
X016793Y007645D03*
X016793Y007901D03*
X016793Y008157D03*
X016793Y008413D03*
X016793Y008669D03*
X016793Y008925D03*
X014529Y008925D03*
X014529Y008669D03*
X014529Y008413D03*
X014529Y008157D03*
X014529Y007901D03*
X014529Y007645D03*
X014529Y007389D03*
X014529Y007133D03*
X014529Y006878D03*
X014529Y006622D03*
D16*
X009405Y010173D03*
D17*
X010405Y010173D03*
X010405Y009173D03*
X009405Y009173D03*
X009405Y008173D03*
X010405Y008173D03*
X011405Y008173D03*
X011405Y009173D03*
X011405Y010173D03*
X018368Y010173D03*
X019366Y010173D03*
X019366Y009173D03*
X018368Y009173D03*
D18*
X018368Y008173D03*
X019366Y008173D03*
D19*
X018169Y011980D03*
X018169Y012980D03*
X014854Y012980D03*
X014854Y011980D03*
X011515Y011980D03*
X011515Y012980D03*
D20*
X011717Y005992D02*
X011117Y005992D01*
X011117Y004212D02*
X011717Y004212D01*
X009157Y004212D02*
X008557Y004212D01*
X008557Y005992D02*
X009157Y005992D01*
D21*
X012571Y006787D03*
X012571Y007771D03*
X012571Y008756D03*
D22*
X015326Y009681D03*
X015326Y005862D03*
D23*
X013637Y013935D03*
D24*
X014637Y013935D03*
X015637Y013935D03*
D25*
X015848Y007133D03*
D26*
X008435Y003492D03*
X008488Y006771D03*
X011980Y005401D03*
X012285Y004309D03*
X013773Y003496D03*
X014263Y004889D03*
X015878Y005007D03*
X016803Y004712D03*
X017689Y005204D03*
X017689Y005795D03*
X018624Y005315D03*
X018624Y003496D03*
X020854Y006675D03*
X020868Y008295D03*
X020809Y010194D03*
X020809Y011444D03*
X020809Y012685D03*
X020799Y014063D03*
X019421Y013994D03*
X019165Y012507D03*
X017492Y013994D03*
X015917Y012291D03*
X016301Y011100D03*
X017078Y009722D03*
X015937Y008147D03*
X015602Y008315D03*
X015317Y008551D03*
X015130Y007271D03*
X013860Y008078D03*
X014155Y010490D03*
X014096Y010962D03*
X012374Y011700D03*
X010700Y011710D03*
X008569Y011027D03*
X010858Y014027D03*
X018870Y010736D03*
M02*
