G75*
%MOIN*%
%OFA0B0*%
%FSLAX24Y24*%
%IPPOS*%
%LPD*%
%AMOC8*
5,1,8,0,0,1.08239X$1,22.5*
%
%ADD10R,0.0787X0.0157*%
%ADD11R,0.0315X0.0315*%
%ADD12R,0.0560X0.0560*%
%ADD13C,0.0560*%
%ADD14R,0.0531X0.0157*%
%ADD15OC8,0.0660*%
%ADD16C,0.0660*%
%ADD17R,0.0660X0.0660*%
%ADD18C,0.0520*%
%ADD19C,0.0600*%
%ADD20C,0.0594*%
%ADD21C,0.1227*%
%ADD22R,0.0515X0.0515*%
%ADD23C,0.0515*%
%ADD24C,0.0079*%
%ADD25C,0.0118*%
%ADD26C,0.0317*%
%ADD27C,0.0278*%
D10*
X013498Y006143D03*
X013498Y006616D03*
X013498Y007088D03*
D11*
X013245Y007596D03*
X013269Y008192D03*
X013269Y008792D03*
X013845Y007596D03*
X013924Y005381D03*
X013324Y005381D03*
X012792Y003659D03*
X012192Y003659D03*
X017531Y007818D03*
X017531Y008418D03*
X018048Y006415D03*
X018648Y006415D03*
X020179Y007276D03*
X020179Y007876D03*
X016901Y012306D03*
X016901Y012906D03*
X013643Y012847D03*
X013643Y012247D03*
X012767Y012247D03*
X012767Y012847D03*
D12*
X014923Y003876D03*
D13*
X015710Y003876D03*
X016498Y003876D03*
X017285Y003876D03*
D14*
X016793Y006622D03*
X016793Y006878D03*
X016793Y007133D03*
X016793Y007389D03*
X016793Y007645D03*
X016793Y007901D03*
X016793Y008157D03*
X016793Y008413D03*
X016793Y008669D03*
X016793Y008925D03*
X014529Y008925D03*
X014529Y008669D03*
X014529Y008413D03*
X014529Y008157D03*
X014529Y007901D03*
X014529Y007645D03*
X014529Y007389D03*
X014529Y007133D03*
X014529Y006878D03*
X014529Y006622D03*
D15*
X009405Y010173D03*
D16*
X010405Y010173D03*
X010405Y009173D03*
X009405Y009173D03*
X009405Y008173D03*
X010405Y008173D03*
X011405Y008173D03*
X011405Y009173D03*
X011405Y010173D03*
X018368Y010173D03*
X019366Y010173D03*
X019366Y009173D03*
X018368Y009173D03*
D17*
X018368Y008173D03*
X019366Y008173D03*
D18*
X018169Y011980D03*
X018169Y012980D03*
X014854Y012980D03*
X014854Y011980D03*
X011515Y011980D03*
X011515Y012980D03*
D19*
X011717Y005992D02*
X011117Y005992D01*
X011117Y004212D02*
X011717Y004212D01*
X009157Y004212D02*
X008557Y004212D01*
X008557Y005992D02*
X009157Y005992D01*
D20*
X012571Y006787D03*
X012571Y007771D03*
X012571Y008756D03*
D21*
X015326Y009681D03*
X015326Y005862D03*
D22*
X013637Y013935D03*
D23*
X014637Y013935D03*
X015637Y013935D03*
D24*
X008139Y005858D02*
X008139Y003277D01*
X018807Y003277D01*
X018807Y005462D01*
X018805Y005463D01*
X018807Y005494D01*
X018807Y005524D01*
X018809Y005526D01*
X018809Y005529D01*
X018831Y005549D01*
X018853Y005570D01*
X018855Y005570D01*
X019709Y006336D01*
X019731Y006358D01*
X019733Y006358D01*
X019735Y006360D01*
X019766Y006358D01*
X021396Y006358D01*
X021396Y014289D01*
X015763Y014289D01*
X015850Y014253D01*
X015956Y014147D01*
X016013Y014009D01*
X016013Y013860D01*
X015956Y013722D01*
X015875Y013641D01*
X019033Y013641D01*
X019687Y012988D01*
X019687Y011871D01*
X018917Y011102D01*
X018215Y011102D01*
X017630Y010517D01*
X017630Y009037D01*
X017537Y008944D01*
X017360Y008767D01*
X017177Y008767D01*
X017177Y008541D01*
X017177Y008541D01*
X017177Y008541D01*
X017177Y008285D01*
X017177Y008285D01*
X017177Y008054D01*
X017189Y008034D01*
X017198Y007998D01*
X017198Y007929D01*
X017200Y007931D01*
X017256Y007931D01*
X017256Y008024D01*
X017325Y008093D01*
X017738Y008093D01*
X017807Y008024D01*
X017807Y007611D01*
X017738Y007542D01*
X017463Y007542D01*
X017772Y007234D01*
X017864Y007142D01*
X017864Y006691D01*
X018494Y006691D01*
X018442Y006691D01*
X018373Y006621D01*
X018373Y006220D01*
X018324Y006220D01*
X018324Y006621D01*
X018254Y006691D01*
X017864Y006691D01*
X017864Y006769D02*
X018554Y006769D01*
X018586Y006801D02*
X018494Y006709D01*
X018494Y006691D01*
X018586Y006801D02*
X018700Y006915D01*
X018700Y007703D01*
X018407Y007703D01*
X018407Y008133D01*
X018328Y008133D01*
X018328Y007703D01*
X018019Y007703D01*
X017984Y007713D01*
X017952Y007731D01*
X017926Y007757D01*
X017908Y007789D01*
X017898Y007824D01*
X017898Y008133D01*
X018328Y008133D01*
X018328Y008212D01*
X017898Y008212D01*
X017898Y008521D01*
X017908Y008557D01*
X017926Y008588D01*
X017952Y008614D01*
X017984Y008633D01*
X018019Y008642D01*
X018328Y008642D01*
X018328Y008212D01*
X018407Y008212D01*
X018407Y008642D01*
X018700Y008642D01*
X018700Y008872D01*
X018622Y008793D01*
X018457Y008725D01*
X018279Y008725D01*
X018114Y008793D01*
X017988Y008919D01*
X017920Y009084D01*
X017920Y009262D01*
X017988Y009427D01*
X018114Y009553D01*
X018279Y009621D01*
X018457Y009621D01*
X018622Y009553D01*
X018700Y009474D01*
X018700Y009872D01*
X018622Y009793D01*
X018457Y009725D01*
X018279Y009725D01*
X018114Y009793D01*
X017988Y009919D01*
X017920Y010084D01*
X017920Y010262D01*
X017988Y010427D01*
X018114Y010553D01*
X018279Y010621D01*
X018457Y010621D01*
X018622Y010553D01*
X018748Y010427D01*
X018814Y010266D01*
X018838Y010242D01*
X018918Y010163D01*
X018918Y010262D01*
X018986Y010427D01*
X019112Y010553D01*
X019277Y010621D01*
X019455Y010621D01*
X019620Y010553D01*
X019746Y010427D01*
X019788Y010324D01*
X020055Y010324D01*
X020147Y010232D01*
X020336Y010043D01*
X020336Y008152D01*
X020385Y008152D01*
X020454Y008083D01*
X020454Y007670D01*
X020385Y007601D01*
X019972Y007601D01*
X019903Y007670D01*
X019903Y008083D01*
X019972Y008152D01*
X020021Y008152D01*
X020021Y009913D01*
X019925Y010009D01*
X019783Y010009D01*
X019746Y009919D01*
X019620Y009793D01*
X019455Y009725D01*
X019277Y009725D01*
X019112Y009793D01*
X019015Y009890D01*
X019015Y009456D01*
X019112Y009553D01*
X019277Y009621D01*
X019455Y009621D01*
X019620Y009553D01*
X019746Y009427D01*
X019814Y009262D01*
X019814Y009084D01*
X019746Y008919D01*
X019620Y008793D01*
X019455Y008725D01*
X019277Y008725D01*
X019112Y008793D01*
X019015Y008890D01*
X019015Y008642D01*
X019017Y008642D01*
X019326Y008642D01*
X019326Y008212D01*
X019405Y008212D01*
X019405Y008642D01*
X019714Y008642D01*
X019750Y008633D01*
X019781Y008614D01*
X019807Y008588D01*
X019826Y008557D01*
X019835Y008521D01*
X019835Y008212D01*
X019405Y008212D01*
X019405Y008133D01*
X019405Y007703D01*
X019714Y007703D01*
X019750Y007713D01*
X019781Y007731D01*
X019807Y007757D01*
X019826Y007789D01*
X019835Y007824D01*
X019835Y008133D01*
X019405Y008133D01*
X019326Y008133D01*
X019326Y007703D01*
X019017Y007703D01*
X019015Y007704D01*
X019015Y006785D01*
X018888Y006657D01*
X018924Y006621D01*
X018924Y006220D01*
X018960Y006220D01*
X019163Y006423D01*
X019163Y006709D01*
X019255Y006801D01*
X019423Y006968D01*
X019984Y006968D01*
X020016Y007001D01*
X019972Y007001D01*
X019903Y007070D01*
X019903Y007483D01*
X019972Y007552D01*
X020385Y007552D01*
X020454Y007483D01*
X020454Y007070D01*
X020385Y007001D01*
X020334Y007001D01*
X020334Y006873D01*
X020206Y006745D01*
X020114Y006653D01*
X019553Y006653D01*
X019478Y006578D01*
X019478Y006293D01*
X019386Y006200D01*
X019090Y005905D01*
X017700Y005905D01*
X017608Y005997D01*
X017391Y006214D01*
X017391Y006923D01*
X017177Y006923D01*
X017177Y006976D02*
X017338Y006976D01*
X017391Y006923D01*
X017391Y006846D02*
X017177Y006846D01*
X017177Y006779D02*
X017177Y006976D01*
X017193Y006779D02*
X017177Y006779D01*
X017193Y006779D02*
X017272Y006700D01*
X017364Y006608D01*
X017364Y004274D01*
X017364Y004274D01*
X017511Y004213D01*
X017623Y004101D01*
X017683Y003955D01*
X017683Y003796D01*
X017623Y003650D01*
X017511Y003538D01*
X017364Y003477D01*
X017206Y003477D01*
X017060Y003538D01*
X016948Y003650D01*
X016902Y003761D01*
X016886Y003715D01*
X016856Y003656D01*
X016818Y003602D01*
X016771Y003556D01*
X016718Y003517D01*
X016659Y003487D01*
X016596Y003467D01*
X016537Y003457D01*
X016537Y003836D01*
X016458Y003836D01*
X016458Y003457D01*
X016399Y003467D01*
X016337Y003487D01*
X016278Y003517D01*
X016225Y003556D01*
X016178Y003602D01*
X016139Y003656D01*
X016109Y003715D01*
X016094Y003761D01*
X016048Y003650D01*
X015936Y003538D01*
X015789Y003477D01*
X015631Y003477D01*
X015485Y003538D01*
X015373Y003650D01*
X015321Y003775D01*
X015321Y003547D01*
X015252Y003477D01*
X014594Y003477D01*
X014525Y003547D01*
X014525Y003698D01*
X013285Y003698D01*
X012393Y004590D01*
X012393Y006411D01*
X012335Y006435D01*
X012219Y006552D01*
X012156Y006704D01*
X012156Y006870D01*
X012219Y007022D01*
X012335Y007139D01*
X012488Y007202D01*
X012653Y007202D01*
X012806Y007139D01*
X012922Y007022D01*
X012985Y006870D01*
X012985Y006768D01*
X012992Y006780D01*
X013018Y006806D01*
X013050Y006824D01*
X013086Y006834D01*
X013498Y006834D01*
X013498Y006616D01*
X013968Y006616D01*
X013968Y006616D01*
X013498Y006616D01*
X013498Y006616D01*
X013498Y006616D01*
X013498Y006834D01*
X013910Y006834D01*
X013945Y006824D01*
X013968Y006811D01*
X013968Y006864D01*
X014035Y006931D01*
X013980Y006931D01*
X013940Y006891D01*
X013055Y006891D01*
X012986Y006961D01*
X012986Y007216D01*
X013055Y007285D01*
X013082Y007285D01*
X013063Y007304D01*
X013063Y007320D01*
X013039Y007320D01*
X012969Y007390D01*
X012969Y007650D01*
X012922Y007536D01*
X012806Y007419D01*
X012653Y007356D01*
X012488Y007356D01*
X012335Y007419D01*
X012219Y007536D01*
X012156Y007689D01*
X012156Y007854D01*
X012219Y008006D01*
X012335Y008123D01*
X012488Y008186D01*
X012603Y008186D01*
X012766Y008349D01*
X012994Y008349D01*
X012994Y008398D01*
X013063Y008467D01*
X013476Y008467D01*
X013495Y008448D01*
X013525Y008478D01*
X013559Y008522D01*
X013570Y008523D01*
X013578Y008531D01*
X013634Y008531D01*
X013689Y008538D01*
X013697Y008531D01*
X013805Y008531D01*
X013505Y008831D01*
X013309Y008831D01*
X013309Y008752D01*
X013566Y008752D01*
X013566Y008616D01*
X013557Y008580D01*
X013538Y008549D01*
X013512Y008523D01*
X013481Y008504D01*
X013445Y008495D01*
X013309Y008495D01*
X013309Y008752D01*
X013230Y008752D01*
X013230Y008495D01*
X013094Y008495D01*
X013058Y008504D01*
X013026Y008523D01*
X013000Y008549D01*
X012982Y008580D01*
X012978Y008597D01*
X012975Y008588D01*
X012944Y008527D01*
X012903Y008471D01*
X012855Y008423D01*
X012799Y008382D01*
X012738Y008351D01*
X012673Y008330D01*
X012610Y008320D01*
X012610Y008716D01*
X012531Y008716D01*
X012531Y008320D01*
X012468Y008330D01*
X012403Y008351D01*
X012342Y008382D01*
X012286Y008423D01*
X012238Y008471D01*
X012197Y008527D01*
X012166Y008588D01*
X012145Y008653D01*
X012135Y008716D01*
X012531Y008716D01*
X012531Y008795D01*
X012135Y008795D01*
X012145Y008858D01*
X012166Y008923D01*
X012197Y008984D01*
X012238Y009040D01*
X012286Y009088D01*
X012342Y009129D01*
X012403Y009160D01*
X012468Y009181D01*
X012531Y009191D01*
X012531Y008795D01*
X012610Y008795D01*
X012610Y009191D01*
X012673Y009181D01*
X012738Y009160D01*
X012799Y009129D01*
X012855Y009088D01*
X012903Y009040D01*
X012944Y008984D01*
X012973Y008927D01*
X012973Y008968D01*
X012982Y009003D01*
X013000Y009035D01*
X013026Y009061D01*
X013058Y009079D01*
X013094Y009089D01*
X013230Y009089D01*
X013230Y008831D01*
X013230Y008752D01*
X012973Y008752D01*
X012973Y008716D01*
X012610Y008716D01*
X012610Y008795D01*
X013006Y008795D01*
X013000Y008831D01*
X013230Y008831D01*
X013309Y008831D01*
X013309Y009027D01*
X013263Y009072D01*
X013171Y009165D01*
X013171Y011106D01*
X012610Y011667D01*
X012610Y011971D01*
X012561Y011971D01*
X012492Y012040D01*
X012492Y012453D01*
X012561Y012522D01*
X012974Y012522D01*
X013043Y012453D01*
X013043Y012040D01*
X012974Y011971D01*
X012925Y011971D01*
X012925Y011797D01*
X013366Y011356D01*
X013484Y011474D01*
X013484Y011971D01*
X013437Y011971D01*
X013368Y012040D01*
X013368Y012453D01*
X013437Y012522D01*
X013850Y012522D01*
X013919Y012453D01*
X013919Y012040D01*
X013850Y011971D01*
X013799Y011971D01*
X013799Y011413D01*
X013838Y011453D01*
X013931Y011545D01*
X016253Y011545D01*
X016739Y012030D01*
X016695Y012030D01*
X016626Y012100D01*
X016626Y012512D01*
X016695Y012581D01*
X017108Y012581D01*
X017177Y012512D01*
X017177Y012100D01*
X017108Y012030D01*
X017059Y012030D01*
X017059Y011905D01*
X016476Y011322D01*
X016384Y011230D01*
X014061Y011230D01*
X013801Y010970D01*
X013801Y009443D01*
X014161Y009082D01*
X014175Y009082D01*
X014215Y009122D01*
X014844Y009122D01*
X014913Y009052D01*
X014913Y008797D01*
X014913Y008797D01*
X014913Y008797D01*
X014913Y008541D01*
X014913Y008541D01*
X014913Y008541D01*
X014913Y008285D01*
X014913Y008285D01*
X014913Y008285D01*
X014913Y008029D01*
X014913Y008029D01*
X014913Y007822D01*
X015410Y007822D01*
X015513Y007719D01*
X015513Y007719D01*
X015822Y007410D01*
X015874Y007410D01*
X016287Y007822D01*
X016388Y007822D01*
X016388Y007901D01*
X016793Y007901D01*
X017171Y007901D01*
X017171Y007901D01*
X016793Y007901D01*
X016793Y007901D01*
X016793Y007901D01*
X017118Y007901D01*
X017236Y008019D01*
X017256Y008004D02*
X017196Y008004D01*
X017177Y008082D02*
X017313Y008082D01*
X017320Y008130D02*
X017355Y008121D01*
X017492Y008121D01*
X017492Y008378D01*
X017571Y008378D01*
X017571Y008457D01*
X017828Y008457D01*
X017828Y008594D01*
X017819Y008629D01*
X017800Y008661D01*
X017774Y008687D01*
X017742Y008705D01*
X017707Y008715D01*
X017571Y008715D01*
X017571Y008457D01*
X017492Y008457D01*
X017492Y008715D01*
X017355Y008715D01*
X017320Y008705D01*
X017288Y008687D01*
X017262Y008661D01*
X017244Y008629D01*
X017234Y008594D01*
X017234Y008457D01*
X017492Y008457D01*
X017492Y008378D01*
X017234Y008378D01*
X017234Y008242D01*
X017244Y008206D01*
X017262Y008175D01*
X017288Y008149D01*
X017320Y008130D01*
X017278Y008159D02*
X017177Y008159D01*
X017177Y008236D02*
X017236Y008236D01*
X017177Y008285D02*
X017177Y008285D01*
X017177Y008313D02*
X017234Y008313D01*
X017177Y008391D02*
X017492Y008391D01*
X017492Y008468D02*
X017571Y008468D01*
X017571Y008545D02*
X017492Y008545D01*
X017492Y008622D02*
X017571Y008622D01*
X017571Y008700D02*
X017492Y008700D01*
X017370Y008777D02*
X018153Y008777D01*
X018053Y008854D02*
X017447Y008854D01*
X017524Y008931D02*
X017983Y008931D01*
X017951Y009009D02*
X017601Y009009D01*
X017630Y009086D02*
X017920Y009086D01*
X017920Y009163D02*
X017630Y009163D01*
X017630Y009240D02*
X017920Y009240D01*
X017943Y009318D02*
X017630Y009318D01*
X017630Y009395D02*
X017975Y009395D01*
X018033Y009472D02*
X017630Y009472D01*
X017630Y009549D02*
X018111Y009549D01*
X018143Y009781D02*
X017630Y009781D01*
X017630Y009704D02*
X018700Y009704D01*
X018700Y009781D02*
X018593Y009781D01*
X018687Y009858D02*
X018700Y009858D01*
X018858Y010000D02*
X018681Y010177D01*
X018372Y010177D01*
X018368Y010173D01*
X018698Y010476D02*
X019035Y010476D01*
X018974Y010399D02*
X018759Y010399D01*
X018791Y010322D02*
X018942Y010322D01*
X018918Y010244D02*
X018836Y010244D01*
X018913Y010167D02*
X018918Y010167D01*
X018858Y010000D02*
X018858Y006850D01*
X018651Y006643D01*
X018651Y006418D01*
X018648Y006415D01*
X018373Y006382D02*
X018324Y006382D01*
X018324Y006305D02*
X018373Y006305D01*
X018373Y006228D02*
X018324Y006228D01*
X018324Y006460D02*
X018373Y006460D01*
X018373Y006537D02*
X018324Y006537D01*
X018324Y006614D02*
X018373Y006614D01*
X018631Y006846D02*
X017864Y006846D01*
X017864Y006923D02*
X018700Y006923D01*
X018700Y007000D02*
X017864Y007000D01*
X017864Y007078D02*
X018700Y007078D01*
X018700Y007155D02*
X017851Y007155D01*
X017773Y007232D02*
X018700Y007232D01*
X018700Y007309D02*
X017696Y007309D01*
X017619Y007387D02*
X018700Y007387D01*
X018700Y007464D02*
X017542Y007464D01*
X017464Y007541D02*
X018700Y007541D01*
X018700Y007618D02*
X017807Y007618D01*
X017807Y007696D02*
X018700Y007696D01*
X018407Y007773D02*
X018328Y007773D01*
X018328Y007850D02*
X018407Y007850D01*
X018407Y007927D02*
X018328Y007927D01*
X018328Y008004D02*
X018407Y008004D01*
X018407Y008082D02*
X018328Y008082D01*
X018328Y008159D02*
X017784Y008159D01*
X017774Y008149D02*
X017800Y008175D01*
X017819Y008206D01*
X017828Y008242D01*
X017828Y008378D01*
X017571Y008378D01*
X017571Y008121D01*
X017707Y008121D01*
X017742Y008130D01*
X017774Y008149D01*
X017749Y008082D02*
X017898Y008082D01*
X017898Y008004D02*
X017807Y008004D01*
X017807Y007927D02*
X017898Y007927D01*
X017898Y007850D02*
X017807Y007850D01*
X017807Y007773D02*
X017917Y007773D01*
X017531Y007818D02*
X017447Y007773D01*
X017265Y007773D01*
X017137Y007645D01*
X016793Y007645D01*
X016793Y007389D02*
X017393Y007389D01*
X017706Y007076D01*
X017706Y006535D01*
X017824Y006417D01*
X018046Y006417D01*
X018048Y006415D01*
X017765Y006063D02*
X019025Y006063D01*
X019321Y006358D01*
X019321Y006643D01*
X019488Y006811D01*
X020049Y006811D01*
X020177Y006939D01*
X020177Y007274D01*
X020179Y007276D01*
X020454Y007309D02*
X021396Y007309D01*
X021396Y007232D02*
X020454Y007232D01*
X020454Y007155D02*
X021396Y007155D01*
X021396Y007078D02*
X020454Y007078D01*
X020334Y007000D02*
X021396Y007000D01*
X021396Y006923D02*
X020334Y006923D01*
X020307Y006846D02*
X021396Y006846D01*
X021396Y006769D02*
X020230Y006769D01*
X020152Y006691D02*
X021396Y006691D01*
X021396Y006614D02*
X019514Y006614D01*
X019478Y006537D02*
X021396Y006537D01*
X021396Y006460D02*
X019478Y006460D01*
X019478Y006382D02*
X021396Y006382D01*
X021396Y007387D02*
X020454Y007387D01*
X020454Y007464D02*
X021396Y007464D01*
X021396Y007541D02*
X020396Y007541D01*
X020403Y007618D02*
X021396Y007618D01*
X021396Y007696D02*
X020454Y007696D01*
X020454Y007773D02*
X021396Y007773D01*
X021396Y007850D02*
X020454Y007850D01*
X020454Y007927D02*
X021396Y007927D01*
X021396Y008004D02*
X020454Y008004D01*
X020454Y008082D02*
X021396Y008082D01*
X021396Y008159D02*
X020336Y008159D01*
X020336Y008236D02*
X021396Y008236D01*
X021396Y008313D02*
X020336Y008313D01*
X020336Y008391D02*
X021396Y008391D01*
X021396Y008468D02*
X020336Y008468D01*
X020336Y008545D02*
X021396Y008545D01*
X021396Y008622D02*
X020336Y008622D01*
X020336Y008700D02*
X021396Y008700D01*
X021396Y008777D02*
X020336Y008777D01*
X020336Y008854D02*
X021396Y008854D01*
X021396Y008931D02*
X020336Y008931D01*
X020336Y009009D02*
X021396Y009009D01*
X021396Y009086D02*
X020336Y009086D01*
X020336Y009163D02*
X021396Y009163D01*
X021396Y009240D02*
X020336Y009240D01*
X020336Y009318D02*
X021396Y009318D01*
X021396Y009395D02*
X020336Y009395D01*
X020336Y009472D02*
X021396Y009472D01*
X021396Y009549D02*
X020336Y009549D01*
X020336Y009627D02*
X021396Y009627D01*
X021396Y009704D02*
X020336Y009704D01*
X020336Y009781D02*
X021396Y009781D01*
X021396Y009858D02*
X020336Y009858D01*
X020336Y009935D02*
X021396Y009935D01*
X021396Y010013D02*
X020336Y010013D01*
X020289Y010090D02*
X021396Y010090D01*
X021396Y010167D02*
X020212Y010167D01*
X020135Y010244D02*
X021396Y010244D01*
X021396Y010322D02*
X020058Y010322D01*
X019990Y010167D02*
X019372Y010167D01*
X019366Y010173D01*
X019685Y009858D02*
X020021Y009858D01*
X020021Y009781D02*
X019591Y009781D01*
X019753Y009935D02*
X019999Y009935D01*
X020179Y009978D02*
X019990Y010167D01*
X020179Y009978D02*
X020179Y007876D01*
X019903Y007850D02*
X019835Y007850D01*
X019835Y007927D02*
X019903Y007927D01*
X019903Y008004D02*
X019835Y008004D01*
X019835Y008082D02*
X019903Y008082D01*
X020021Y008159D02*
X019405Y008159D01*
X019405Y008236D02*
X019326Y008236D01*
X019326Y008313D02*
X019405Y008313D01*
X019405Y008391D02*
X019326Y008391D01*
X019326Y008468D02*
X019405Y008468D01*
X019405Y008545D02*
X019326Y008545D01*
X019326Y008622D02*
X019405Y008622D01*
X019581Y008777D02*
X020021Y008777D01*
X020021Y008854D02*
X019681Y008854D01*
X019751Y008931D02*
X020021Y008931D01*
X020021Y009009D02*
X019783Y009009D01*
X019814Y009086D02*
X020021Y009086D01*
X020021Y009163D02*
X019814Y009163D01*
X019814Y009240D02*
X020021Y009240D01*
X020021Y009318D02*
X019791Y009318D01*
X019759Y009395D02*
X020021Y009395D01*
X020021Y009472D02*
X019700Y009472D01*
X019623Y009549D02*
X020021Y009549D01*
X020021Y009627D02*
X019015Y009627D01*
X019015Y009704D02*
X020021Y009704D01*
X019757Y010399D02*
X021396Y010399D01*
X021396Y010476D02*
X019696Y010476D01*
X019618Y010553D02*
X021396Y010553D01*
X021396Y010631D02*
X017743Y010631D01*
X017820Y010708D02*
X021396Y010708D01*
X021396Y010785D02*
X017898Y010785D01*
X017975Y010862D02*
X021396Y010862D01*
X021396Y010940D02*
X018052Y010940D01*
X018129Y011017D02*
X021396Y011017D01*
X021396Y011094D02*
X018207Y011094D01*
X018149Y011259D02*
X018852Y011259D01*
X019529Y011937D01*
X019529Y012923D01*
X018968Y013484D01*
X011043Y013484D01*
X010669Y013110D01*
X010669Y012303D01*
X010620Y012303D01*
X008504Y010187D01*
X008504Y007730D01*
X010137Y006399D01*
X010137Y005305D01*
X009941Y005108D01*
X009269Y005108D01*
X008858Y004696D01*
X008858Y004212D01*
X008857Y004212D01*
X011417Y004212D01*
X011417Y004211D01*
X011417Y003799D01*
X011557Y003659D01*
X012192Y003659D01*
X012467Y003679D02*
X012752Y003679D01*
X012752Y003698D02*
X012752Y003620D01*
X012495Y003620D01*
X012495Y003483D01*
X012504Y003448D01*
X012523Y003416D01*
X012549Y003390D01*
X012581Y003372D01*
X012616Y003362D01*
X012752Y003362D01*
X012752Y003620D01*
X012831Y003620D01*
X012831Y003698D01*
X013089Y003698D01*
X013089Y003835D01*
X013079Y003870D01*
X013061Y003902D01*
X013035Y003928D01*
X013003Y003946D01*
X012968Y003956D01*
X012831Y003956D01*
X012831Y003698D01*
X012752Y003698D01*
X012495Y003698D01*
X012495Y003835D01*
X012504Y003870D01*
X012523Y003902D01*
X012549Y003928D01*
X012581Y003946D01*
X012616Y003956D01*
X012752Y003956D01*
X012752Y003698D01*
X012752Y003756D02*
X012831Y003756D01*
X012831Y003679D02*
X014525Y003679D01*
X014525Y003602D02*
X013089Y003602D01*
X013089Y003620D02*
X012831Y003620D01*
X012831Y003362D01*
X012968Y003362D01*
X013003Y003372D01*
X013035Y003390D01*
X013061Y003416D01*
X013079Y003448D01*
X013089Y003483D01*
X013089Y003620D01*
X013089Y003525D02*
X014547Y003525D01*
X014525Y004053D02*
X013431Y004053D01*
X012748Y004736D01*
X012748Y006411D01*
X012806Y006435D01*
X012922Y006552D01*
X012965Y006654D01*
X012965Y006616D01*
X013498Y006616D01*
X013498Y006398D01*
X013910Y006398D01*
X013945Y006407D01*
X013968Y006420D01*
X013968Y006312D01*
X013940Y006340D01*
X013055Y006340D01*
X012986Y006271D01*
X012986Y006016D01*
X013055Y005946D01*
X013940Y005946D01*
X013980Y005986D01*
X014106Y005986D01*
X014191Y006070D01*
X014195Y006074D01*
X014195Y005593D01*
X014130Y005657D01*
X013717Y005657D01*
X013648Y005588D01*
X013648Y005175D01*
X013717Y005106D01*
X014130Y005106D01*
X014199Y005175D01*
X014199Y005224D01*
X014339Y005224D01*
X014431Y005316D01*
X014510Y005395D01*
X014510Y006094D01*
X014687Y006271D01*
X014687Y006425D01*
X014844Y006425D01*
X014913Y006494D01*
X014913Y006749D01*
X014913Y006750D01*
X014913Y007005D01*
X014913Y007006D01*
X014913Y007261D01*
X014913Y007261D01*
X014913Y007262D01*
X014913Y007468D01*
X015263Y007468D01*
X015571Y007160D01*
X015571Y007078D01*
X015613Y006977D01*
X015691Y006899D01*
X015793Y006857D01*
X015874Y006857D01*
X016006Y006725D01*
X016006Y006134D01*
X015947Y006276D01*
X015741Y006482D01*
X015472Y006593D01*
X015181Y006593D01*
X014912Y006482D01*
X014706Y006276D01*
X014595Y006007D01*
X014595Y005716D01*
X014706Y005447D01*
X014912Y005242D01*
X015181Y005130D01*
X015472Y005130D01*
X015741Y005242D01*
X015947Y005447D01*
X016006Y005590D01*
X016006Y004923D01*
X015686Y004604D01*
X015096Y004604D01*
X014992Y004500D01*
X014765Y004274D01*
X014594Y004274D01*
X014525Y004205D01*
X014525Y004053D01*
X014525Y004065D02*
X013419Y004065D01*
X013342Y004142D02*
X014525Y004142D01*
X014540Y004220D02*
X013264Y004220D01*
X013187Y004297D02*
X014789Y004297D01*
X014866Y004374D02*
X013110Y004374D01*
X013033Y004451D02*
X014943Y004451D01*
X015020Y004529D02*
X012955Y004529D01*
X012878Y004606D02*
X015688Y004606D01*
X015765Y004683D02*
X012801Y004683D01*
X012748Y004760D02*
X015843Y004760D01*
X015920Y004838D02*
X012748Y004838D01*
X012748Y004915D02*
X015997Y004915D01*
X016006Y004992D02*
X012748Y004992D01*
X012748Y005069D02*
X016006Y005069D01*
X016006Y005147D02*
X015511Y005147D01*
X015698Y005224D02*
X016006Y005224D01*
X016006Y005301D02*
X015800Y005301D01*
X015877Y005378D02*
X016006Y005378D01*
X016006Y005456D02*
X015950Y005456D01*
X015982Y005533D02*
X016006Y005533D01*
X016517Y005533D02*
X017049Y005533D01*
X017049Y005610D02*
X016517Y005610D01*
X016517Y005687D02*
X017049Y005687D01*
X017049Y005765D02*
X016517Y005765D01*
X016517Y005842D02*
X017049Y005842D01*
X017049Y005919D02*
X016517Y005919D01*
X016517Y005996D02*
X017049Y005996D01*
X017049Y006073D02*
X016517Y006073D01*
X016517Y006151D02*
X017049Y006151D01*
X017049Y006228D02*
X016517Y006228D01*
X016517Y006305D02*
X017049Y006305D01*
X017049Y006382D02*
X016517Y006382D01*
X016517Y006425D02*
X017049Y006425D01*
X017049Y004202D01*
X016948Y004101D01*
X016902Y003990D01*
X016886Y004037D01*
X016856Y004095D01*
X016818Y004149D01*
X016771Y004195D01*
X016718Y004234D01*
X016659Y004264D01*
X016596Y004285D01*
X016537Y004294D01*
X016537Y003915D01*
X016458Y003915D01*
X016458Y004294D01*
X016399Y004285D01*
X016337Y004264D01*
X016306Y004249D01*
X016425Y004368D01*
X016517Y004460D01*
X016517Y006425D01*
X016793Y006622D02*
X017128Y006622D01*
X017206Y006543D01*
X017206Y003954D01*
X017285Y003876D01*
X016989Y004142D02*
X016822Y004142D01*
X016872Y004065D02*
X016933Y004065D01*
X017049Y004220D02*
X016738Y004220D01*
X016537Y004220D02*
X016458Y004220D01*
X016458Y004142D02*
X016537Y004142D01*
X016537Y004065D02*
X016458Y004065D01*
X016458Y003988D02*
X016537Y003988D01*
X016537Y003833D02*
X016458Y003833D01*
X016458Y003756D02*
X016537Y003756D01*
X016537Y003679D02*
X016458Y003679D01*
X016458Y003602D02*
X016537Y003602D01*
X016537Y003525D02*
X016458Y003525D01*
X016267Y003525D02*
X015903Y003525D01*
X015999Y003602D02*
X016178Y003602D01*
X016127Y003679D02*
X016060Y003679D01*
X016092Y003756D02*
X016096Y003756D01*
X015710Y003876D02*
X016360Y004525D01*
X016360Y006799D01*
X016439Y006878D01*
X016793Y006878D01*
X016793Y007133D02*
X017403Y007133D01*
X017549Y006988D01*
X017549Y006279D01*
X017765Y006063D01*
X017686Y005919D02*
X017364Y005919D01*
X017364Y005996D02*
X017609Y005996D01*
X017532Y006073D02*
X017364Y006073D01*
X017364Y006151D02*
X017455Y006151D01*
X017391Y006228D02*
X017364Y006228D01*
X017364Y006305D02*
X017391Y006305D01*
X017391Y006382D02*
X017364Y006382D01*
X017364Y006460D02*
X017391Y006460D01*
X017391Y006537D02*
X017364Y006537D01*
X017358Y006614D02*
X017391Y006614D01*
X017391Y006691D02*
X017281Y006691D01*
X017203Y006769D02*
X017391Y006769D01*
X017364Y005842D02*
X019158Y005842D01*
X019104Y005919D02*
X019244Y005919D01*
X019182Y005996D02*
X019330Y005996D01*
X019259Y006073D02*
X019416Y006073D01*
X019336Y006151D02*
X019502Y006151D01*
X019588Y006228D02*
X019413Y006228D01*
X019478Y006305D02*
X019675Y006305D01*
X019223Y006769D02*
X018999Y006769D01*
X019015Y006846D02*
X019300Y006846D01*
X019378Y006923D02*
X019015Y006923D01*
X019015Y007000D02*
X020016Y007000D01*
X019903Y007078D02*
X019015Y007078D01*
X019015Y007155D02*
X019903Y007155D01*
X019903Y007232D02*
X019015Y007232D01*
X019015Y007309D02*
X019903Y007309D01*
X019903Y007387D02*
X019015Y007387D01*
X019015Y007464D02*
X019903Y007464D01*
X019961Y007541D02*
X019015Y007541D01*
X019015Y007618D02*
X019955Y007618D01*
X019903Y007696D02*
X019015Y007696D01*
X019326Y007773D02*
X019405Y007773D01*
X019405Y007850D02*
X019326Y007850D01*
X019326Y007927D02*
X019405Y007927D01*
X019405Y008004D02*
X019326Y008004D01*
X019326Y008082D02*
X019405Y008082D01*
X019835Y008236D02*
X020021Y008236D01*
X020021Y008313D02*
X019835Y008313D01*
X019835Y008391D02*
X020021Y008391D01*
X020021Y008468D02*
X019835Y008468D01*
X019829Y008545D02*
X020021Y008545D01*
X020021Y008622D02*
X019767Y008622D01*
X020021Y008700D02*
X019015Y008700D01*
X019015Y008777D02*
X019151Y008777D01*
X019051Y008854D02*
X019015Y008854D01*
X018700Y008854D02*
X018683Y008854D01*
X018700Y008777D02*
X018583Y008777D01*
X018700Y008700D02*
X017752Y008700D01*
X017820Y008622D02*
X017966Y008622D01*
X017905Y008545D02*
X017828Y008545D01*
X017828Y008468D02*
X017898Y008468D01*
X017898Y008391D02*
X017571Y008391D01*
X017571Y008313D02*
X017492Y008313D01*
X017492Y008236D02*
X017571Y008236D01*
X017571Y008159D02*
X017492Y008159D01*
X017234Y008468D02*
X017177Y008468D01*
X017177Y008545D02*
X017234Y008545D01*
X017242Y008622D02*
X017177Y008622D01*
X017177Y008700D02*
X017310Y008700D01*
X017295Y008925D02*
X017472Y009102D01*
X017472Y010582D01*
X018149Y011259D01*
X018070Y011403D02*
X016557Y011403D01*
X016634Y011480D02*
X018850Y011480D01*
X018787Y011417D02*
X018084Y011417D01*
X017992Y011325D01*
X017315Y010648D01*
X017315Y009167D01*
X017230Y009082D01*
X017147Y009082D01*
X017108Y009122D01*
X016478Y009122D01*
X016409Y009052D01*
X016409Y008826D01*
X015369Y008826D01*
X015351Y008808D01*
X015265Y008808D01*
X015171Y008769D01*
X015099Y008696D01*
X015059Y008602D01*
X015059Y008500D01*
X015099Y008405D01*
X015171Y008333D01*
X015265Y008294D01*
X015345Y008294D01*
X015345Y008263D01*
X015384Y008169D01*
X015456Y008097D01*
X015551Y008057D01*
X015653Y008057D01*
X015689Y008072D01*
X015719Y008002D01*
X015791Y007929D01*
X015886Y007890D01*
X015988Y007890D01*
X016082Y007929D01*
X016153Y008000D01*
X016388Y008000D01*
X016388Y007998D01*
X016388Y007901D01*
X016793Y007901D01*
X016793Y008157D02*
X015937Y008157D01*
X015937Y008147D01*
X016078Y007927D02*
X016388Y007927D01*
X016388Y007850D02*
X014913Y007850D01*
X014913Y007927D02*
X015796Y007927D01*
X015717Y008004D02*
X014913Y008004D01*
X014913Y008029D02*
X014913Y008029D01*
X014913Y008082D02*
X015492Y008082D01*
X015394Y008159D02*
X014913Y008159D01*
X014913Y008236D02*
X015356Y008236D01*
X015218Y008313D02*
X014913Y008313D01*
X014913Y008391D02*
X015113Y008391D01*
X015073Y008468D02*
X014913Y008468D01*
X014913Y008545D02*
X015059Y008545D01*
X015068Y008622D02*
X014913Y008622D01*
X014913Y008700D02*
X015102Y008700D01*
X015190Y008777D02*
X014913Y008777D01*
X014913Y008854D02*
X016409Y008854D01*
X016409Y008931D02*
X014913Y008931D01*
X014913Y009009D02*
X015038Y009009D01*
X014912Y009061D02*
X014706Y009266D01*
X014595Y009535D01*
X014595Y009826D01*
X014706Y010095D01*
X014912Y010301D01*
X015181Y010412D01*
X015472Y010412D01*
X015741Y010301D01*
X015947Y010095D01*
X016058Y009826D01*
X016058Y009535D01*
X015947Y009266D01*
X015741Y009061D01*
X015472Y008949D01*
X015181Y008949D01*
X014912Y009061D01*
X014887Y009086D02*
X014880Y009086D01*
X014810Y009163D02*
X014081Y009163D01*
X014158Y009086D02*
X014179Y009086D01*
X014096Y008925D02*
X014529Y008925D01*
X014529Y008669D02*
X014519Y008659D01*
X014135Y008659D01*
X013486Y009309D01*
X013486Y011254D01*
X013641Y011409D01*
X013641Y012245D01*
X013643Y012247D01*
X013368Y012253D02*
X013043Y012253D01*
X013043Y012330D02*
X013368Y012330D01*
X013368Y012407D02*
X013043Y012407D01*
X013012Y012484D02*
X013399Y012484D01*
X013437Y012571D02*
X013368Y012640D01*
X013368Y013053D01*
X013437Y013122D01*
X013850Y013122D01*
X013919Y013053D01*
X013919Y013004D01*
X014130Y013004D01*
X014183Y013057D01*
X014183Y013057D01*
X014275Y013149D01*
X014515Y013149D01*
X014533Y013194D01*
X014640Y013300D01*
X014702Y013326D01*
X011667Y013326D01*
X011730Y013300D01*
X011836Y013194D01*
X011859Y013137D01*
X012360Y013137D01*
X012492Y013006D01*
X012492Y013053D01*
X012561Y013122D01*
X012974Y013122D01*
X013043Y013053D01*
X013043Y012640D01*
X012974Y012571D01*
X012561Y012571D01*
X012492Y012640D01*
X012492Y012687D01*
X012366Y012687D01*
X012273Y012779D01*
X012230Y012822D01*
X011859Y012822D01*
X011836Y012766D01*
X011730Y012659D01*
X011591Y012602D01*
X011440Y012602D01*
X011301Y012659D01*
X011195Y012766D01*
X011137Y012905D01*
X011137Y013055D01*
X011195Y013194D01*
X011301Y013300D01*
X011364Y013326D01*
X011108Y013326D01*
X010826Y013045D01*
X010826Y012238D01*
X010734Y012145D01*
X010685Y012145D01*
X008661Y010121D01*
X008661Y007805D01*
X010193Y006557D01*
X010203Y006557D01*
X010243Y006516D01*
X010287Y006480D01*
X010288Y006471D01*
X010295Y006464D01*
X010295Y006407D01*
X010301Y006350D01*
X010295Y006343D01*
X010295Y005239D01*
X010098Y005043D01*
X010006Y004950D01*
X009335Y004950D01*
X009015Y004631D01*
X009015Y004630D01*
X009241Y004630D01*
X009394Y004566D01*
X009512Y004449D01*
X009545Y004369D01*
X010730Y004369D01*
X010763Y004449D01*
X010881Y004566D01*
X011034Y004630D01*
X011801Y004630D01*
X011954Y004566D01*
X012072Y004449D01*
X012136Y004295D01*
X012136Y004129D01*
X012072Y003975D01*
X012031Y003935D01*
X012398Y003935D01*
X012467Y003865D01*
X012467Y003453D01*
X012398Y003383D01*
X011985Y003383D01*
X011916Y003453D01*
X011916Y003502D01*
X011492Y003502D01*
X011352Y003641D01*
X011260Y003734D01*
X011260Y003794D01*
X011034Y003794D01*
X010881Y003858D01*
X010763Y003975D01*
X010730Y004054D01*
X009545Y004054D01*
X009512Y003975D01*
X009394Y003858D01*
X009241Y003794D01*
X008474Y003794D01*
X008321Y003858D01*
X008203Y003975D01*
X008139Y004129D01*
X008139Y004295D01*
X008203Y004449D01*
X008321Y004566D01*
X008474Y004630D01*
X008700Y004630D01*
X008700Y004762D01*
X008793Y004854D01*
X009204Y005265D01*
X009875Y005265D01*
X009980Y005370D01*
X009980Y006324D01*
X008448Y007572D01*
X008438Y007572D01*
X008398Y007613D01*
X008354Y007649D01*
X008353Y007658D01*
X008346Y007665D01*
X008346Y007722D01*
X008340Y007779D01*
X008346Y007786D01*
X008346Y010252D01*
X008438Y010344D01*
X010511Y012417D01*
X010511Y013175D01*
X010978Y013641D01*
X013262Y013641D01*
X013262Y014241D01*
X013310Y014289D01*
X010393Y014289D01*
X010393Y012561D01*
X010347Y012515D01*
X009257Y011425D01*
X008139Y011425D01*
X008139Y006126D01*
X008150Y006161D01*
X008182Y006222D01*
X008222Y006278D01*
X008271Y006327D01*
X008327Y006368D01*
X008389Y006399D01*
X008455Y006421D01*
X008523Y006431D01*
X008818Y006431D01*
X008818Y006031D01*
X008897Y006031D01*
X009596Y006031D01*
X009586Y006095D01*
X009565Y006161D01*
X009533Y006222D01*
X009493Y006278D01*
X009444Y006327D01*
X009388Y006368D01*
X009326Y006399D01*
X009260Y006421D01*
X009192Y006431D01*
X008897Y006431D01*
X008897Y006031D01*
X008897Y005953D01*
X009596Y005953D01*
X009586Y005889D01*
X009565Y005823D01*
X009533Y005762D01*
X009493Y005706D01*
X009444Y005657D01*
X009388Y005616D01*
X009326Y005585D01*
X009260Y005563D01*
X009192Y005553D01*
X008897Y005553D01*
X008897Y005953D01*
X008818Y005953D01*
X008818Y005553D01*
X008523Y005553D01*
X008455Y005563D01*
X008389Y005585D01*
X008327Y005616D01*
X008271Y005657D01*
X008222Y005706D01*
X008182Y005762D01*
X008150Y005823D01*
X008139Y005858D01*
X008139Y005842D02*
X008144Y005842D01*
X008139Y005765D02*
X008180Y005765D01*
X008139Y005687D02*
X008241Y005687D01*
X008339Y005610D02*
X008139Y005610D01*
X008139Y005533D02*
X009980Y005533D01*
X009980Y005610D02*
X009376Y005610D01*
X009474Y005687D02*
X009980Y005687D01*
X009980Y005765D02*
X009535Y005765D01*
X009571Y005842D02*
X009980Y005842D01*
X009980Y005919D02*
X009591Y005919D01*
X009589Y006073D02*
X009980Y006073D01*
X009980Y005996D02*
X008897Y005996D01*
X008897Y005919D02*
X008818Y005919D01*
X008818Y005842D02*
X008897Y005842D01*
X008897Y005765D02*
X008818Y005765D01*
X008818Y005687D02*
X008897Y005687D01*
X008897Y005610D02*
X008818Y005610D01*
X008818Y006073D02*
X008897Y006073D01*
X008897Y006151D02*
X008818Y006151D01*
X008818Y006228D02*
X008897Y006228D01*
X008897Y006305D02*
X008818Y006305D01*
X008818Y006382D02*
X008897Y006382D01*
X009359Y006382D02*
X009909Y006382D01*
X009980Y006305D02*
X009466Y006305D01*
X009529Y006228D02*
X009980Y006228D01*
X009980Y006151D02*
X009568Y006151D01*
X009814Y006460D02*
X008139Y006460D01*
X008139Y006537D02*
X009719Y006537D01*
X009624Y006614D02*
X008139Y006614D01*
X008139Y006691D02*
X009529Y006691D01*
X009435Y006769D02*
X008139Y006769D01*
X008139Y006846D02*
X009340Y006846D01*
X009245Y006923D02*
X008139Y006923D01*
X008139Y007000D02*
X009150Y007000D01*
X009055Y007078D02*
X008139Y007078D01*
X008139Y007155D02*
X008960Y007155D01*
X008865Y007232D02*
X008139Y007232D01*
X008139Y007309D02*
X008771Y007309D01*
X008676Y007387D02*
X008139Y007387D01*
X008139Y007464D02*
X008581Y007464D01*
X008486Y007541D02*
X008139Y007541D01*
X008139Y007618D02*
X008391Y007618D01*
X008346Y007696D02*
X008139Y007696D01*
X008139Y007773D02*
X008341Y007773D01*
X008346Y007850D02*
X008139Y007850D01*
X008139Y007927D02*
X008346Y007927D01*
X008346Y008004D02*
X008139Y008004D01*
X008139Y008082D02*
X008346Y008082D01*
X008346Y008159D02*
X008139Y008159D01*
X008139Y008236D02*
X008346Y008236D01*
X008346Y008313D02*
X008139Y008313D01*
X008139Y008391D02*
X008346Y008391D01*
X008346Y008468D02*
X008139Y008468D01*
X008139Y008545D02*
X008346Y008545D01*
X008346Y008622D02*
X008139Y008622D01*
X008139Y008700D02*
X008346Y008700D01*
X008346Y008777D02*
X008139Y008777D01*
X008139Y008854D02*
X008346Y008854D01*
X008346Y008931D02*
X008139Y008931D01*
X008139Y009009D02*
X008346Y009009D01*
X008346Y009086D02*
X008139Y009086D01*
X008139Y009163D02*
X008346Y009163D01*
X008346Y009240D02*
X008139Y009240D01*
X008139Y009318D02*
X008346Y009318D01*
X008346Y009395D02*
X008139Y009395D01*
X008139Y009472D02*
X008346Y009472D01*
X008346Y009549D02*
X008139Y009549D01*
X008139Y009627D02*
X008346Y009627D01*
X008346Y009704D02*
X008139Y009704D01*
X008139Y009781D02*
X008346Y009781D01*
X008346Y009858D02*
X008139Y009858D01*
X008139Y009935D02*
X008346Y009935D01*
X008346Y010013D02*
X008139Y010013D01*
X008139Y010090D02*
X008346Y010090D01*
X008346Y010167D02*
X008139Y010167D01*
X008139Y010244D02*
X008346Y010244D01*
X008416Y010322D02*
X008139Y010322D01*
X008139Y010399D02*
X008493Y010399D01*
X008570Y010476D02*
X008139Y010476D01*
X008139Y010553D02*
X008648Y010553D01*
X008725Y010631D02*
X008139Y010631D01*
X008139Y010708D02*
X008802Y010708D01*
X008879Y010785D02*
X008139Y010785D01*
X008139Y010862D02*
X008957Y010862D01*
X009034Y010940D02*
X008139Y010940D01*
X008139Y011017D02*
X009111Y011017D01*
X009188Y011094D02*
X008139Y011094D01*
X008139Y011171D02*
X009266Y011171D01*
X009343Y011249D02*
X008139Y011249D01*
X008139Y011326D02*
X009420Y011326D01*
X009497Y011403D02*
X008139Y011403D01*
X009312Y011480D02*
X009575Y011480D01*
X009652Y011558D02*
X009389Y011558D01*
X009467Y011635D02*
X009729Y011635D01*
X009806Y011712D02*
X009544Y011712D01*
X009621Y011789D02*
X009884Y011789D01*
X009961Y011866D02*
X009698Y011866D01*
X009776Y011944D02*
X010038Y011944D01*
X010115Y012021D02*
X009853Y012021D01*
X009930Y012098D02*
X010193Y012098D01*
X010270Y012175D02*
X010007Y012175D01*
X010085Y012253D02*
X010347Y012253D01*
X010424Y012330D02*
X010162Y012330D01*
X010239Y012407D02*
X010501Y012407D01*
X010511Y012484D02*
X010316Y012484D01*
X010393Y012562D02*
X010511Y012562D01*
X010511Y012639D02*
X010393Y012639D01*
X010393Y012716D02*
X010511Y012716D01*
X010511Y012793D02*
X010393Y012793D01*
X010393Y012871D02*
X010511Y012871D01*
X010511Y012948D02*
X010393Y012948D01*
X010393Y013025D02*
X010511Y013025D01*
X010511Y013102D02*
X010393Y013102D01*
X010393Y013180D02*
X010516Y013180D01*
X010593Y013257D02*
X010393Y013257D01*
X010393Y013334D02*
X010670Y013334D01*
X010748Y013411D02*
X010393Y013411D01*
X010393Y013489D02*
X010825Y013489D01*
X010902Y013566D02*
X010393Y013566D01*
X010393Y013643D02*
X013262Y013643D01*
X013262Y013720D02*
X010393Y013720D01*
X010393Y013798D02*
X013262Y013798D01*
X013262Y013875D02*
X010393Y013875D01*
X010393Y013952D02*
X013262Y013952D01*
X013262Y014029D02*
X010393Y014029D01*
X010393Y014106D02*
X013262Y014106D01*
X013262Y014184D02*
X010393Y014184D01*
X010393Y014261D02*
X013282Y014261D01*
X013965Y014289D02*
X014457Y014289D01*
X014449Y014286D01*
X014384Y014243D01*
X014329Y014188D01*
X014286Y014123D01*
X014256Y014050D01*
X014241Y013974D01*
X014598Y013974D01*
X014598Y013895D01*
X014241Y013895D01*
X014256Y013819D01*
X014286Y013747D01*
X014329Y013682D01*
X014370Y013641D01*
X014013Y013641D01*
X014013Y014241D01*
X013965Y014289D01*
X013993Y014261D02*
X014412Y014261D01*
X014327Y014184D02*
X014013Y014184D01*
X014013Y014106D02*
X014279Y014106D01*
X014252Y014029D02*
X014013Y014029D01*
X014013Y013952D02*
X014598Y013952D01*
X014677Y013952D02*
X015262Y013952D01*
X015262Y014009D02*
X015262Y013860D01*
X015319Y013722D01*
X015400Y013641D01*
X014905Y013641D01*
X014946Y013682D01*
X014989Y013747D01*
X015019Y013819D01*
X015034Y013895D01*
X014677Y013895D01*
X014677Y013974D01*
X015034Y013974D01*
X015019Y014050D01*
X014989Y014123D01*
X014946Y014188D01*
X014890Y014243D01*
X014825Y014286D01*
X014818Y014289D01*
X015512Y014289D01*
X015425Y014253D01*
X015319Y014147D01*
X015262Y014009D01*
X015270Y014029D02*
X015023Y014029D01*
X014996Y014106D02*
X015302Y014106D01*
X015355Y014184D02*
X014948Y014184D01*
X014863Y014261D02*
X015444Y014261D01*
X015831Y014261D02*
X021396Y014261D01*
X021396Y014184D02*
X015920Y014184D01*
X015973Y014106D02*
X021396Y014106D01*
X021396Y014029D02*
X016005Y014029D01*
X016013Y013952D02*
X021396Y013952D01*
X021396Y013875D02*
X016013Y013875D01*
X015987Y013798D02*
X021396Y013798D01*
X021396Y013720D02*
X015954Y013720D01*
X015877Y013643D02*
X021396Y013643D01*
X021396Y013566D02*
X019109Y013566D01*
X019186Y013489D02*
X021396Y013489D01*
X021396Y013411D02*
X019263Y013411D01*
X019341Y013334D02*
X021396Y013334D01*
X021396Y013257D02*
X019418Y013257D01*
X019495Y013180D02*
X021396Y013180D01*
X021396Y013102D02*
X019572Y013102D01*
X019650Y013025D02*
X021396Y013025D01*
X021396Y012948D02*
X019687Y012948D01*
X019687Y012871D02*
X021396Y012871D01*
X021396Y012793D02*
X019687Y012793D01*
X019687Y012716D02*
X021396Y012716D01*
X021396Y012639D02*
X019687Y012639D01*
X019687Y012562D02*
X021396Y012562D01*
X021396Y012484D02*
X019687Y012484D01*
X019687Y012407D02*
X021396Y012407D01*
X021396Y012330D02*
X019687Y012330D01*
X019687Y012253D02*
X021396Y012253D01*
X021396Y012175D02*
X019687Y012175D01*
X019687Y012098D02*
X021396Y012098D01*
X021396Y012021D02*
X019687Y012021D01*
X019687Y011944D02*
X021396Y011944D01*
X021396Y011866D02*
X019682Y011866D01*
X019605Y011789D02*
X021396Y011789D01*
X021396Y011712D02*
X019527Y011712D01*
X019450Y011635D02*
X021396Y011635D01*
X021396Y011558D02*
X019373Y011558D01*
X019296Y011480D02*
X021396Y011480D01*
X021396Y011403D02*
X019218Y011403D01*
X019141Y011326D02*
X021396Y011326D01*
X021396Y011249D02*
X019064Y011249D01*
X018987Y011171D02*
X021396Y011171D01*
X019372Y012002D02*
X018787Y011417D01*
X018927Y011558D02*
X016711Y011558D01*
X016789Y011635D02*
X017967Y011635D01*
X017980Y011626D02*
X018052Y011596D01*
X018130Y011581D01*
X018130Y011941D01*
X017770Y011941D01*
X017785Y011863D01*
X017815Y011791D01*
X017859Y011725D01*
X017914Y011670D01*
X017980Y011626D01*
X017872Y011712D02*
X016866Y011712D01*
X016943Y011789D02*
X017816Y011789D01*
X017784Y011866D02*
X017020Y011866D01*
X017059Y011944D02*
X018130Y011944D01*
X018130Y011941D02*
X018130Y012019D01*
X018130Y012379D01*
X018052Y012364D01*
X017980Y012334D01*
X017914Y012290D01*
X017859Y012235D01*
X017815Y012169D01*
X017785Y012096D01*
X017770Y012019D01*
X018130Y012019D01*
X018208Y012019D01*
X018208Y012379D01*
X018285Y012364D01*
X018358Y012334D01*
X018424Y012290D01*
X018479Y012235D01*
X018523Y012169D01*
X018553Y012096D01*
X018568Y012019D01*
X018208Y012019D01*
X018208Y011941D01*
X018568Y011941D01*
X018553Y011863D01*
X018523Y011791D01*
X018479Y011725D01*
X018424Y011670D01*
X018358Y011626D01*
X018285Y011596D01*
X018208Y011581D01*
X018208Y011941D01*
X018130Y011941D01*
X018130Y011866D02*
X018208Y011866D01*
X018208Y011789D02*
X018130Y011789D01*
X018130Y011712D02*
X018208Y011712D01*
X018208Y011635D02*
X018130Y011635D01*
X018371Y011635D02*
X019005Y011635D01*
X019082Y011712D02*
X018466Y011712D01*
X018522Y011789D02*
X019159Y011789D01*
X019236Y011866D02*
X018554Y011866D01*
X018568Y012021D02*
X019372Y012021D01*
X019372Y012002D02*
X019372Y012858D01*
X018903Y013326D01*
X018321Y013326D01*
X018383Y013300D01*
X018490Y013194D01*
X018547Y013055D01*
X018547Y012905D01*
X018490Y012766D01*
X018383Y012659D01*
X018244Y012602D01*
X018094Y012602D01*
X017955Y012659D01*
X017866Y012748D01*
X017177Y012748D01*
X017177Y012700D01*
X017108Y012630D01*
X016695Y012630D01*
X016626Y012700D01*
X016626Y013112D01*
X016695Y013181D01*
X017108Y013181D01*
X017177Y013112D01*
X017177Y013063D01*
X017794Y013063D01*
X017848Y013194D01*
X017955Y013300D01*
X018017Y013326D01*
X015006Y013326D01*
X015068Y013300D01*
X015175Y013194D01*
X015232Y013055D01*
X015232Y012905D01*
X015175Y012766D01*
X015068Y012659D01*
X014929Y012602D01*
X014779Y012602D01*
X014640Y012659D01*
X014533Y012766D01*
X014505Y012834D01*
X014405Y012834D01*
X014261Y012689D01*
X013919Y012689D01*
X013919Y012640D01*
X013850Y012571D01*
X013437Y012571D01*
X013369Y012639D02*
X013041Y012639D01*
X013043Y012716D02*
X013368Y012716D01*
X013368Y012793D02*
X013043Y012793D01*
X013043Y012871D02*
X013368Y012871D01*
X013368Y012948D02*
X013043Y012948D01*
X013043Y013025D02*
X013368Y013025D01*
X013417Y013102D02*
X012994Y013102D01*
X012767Y012847D02*
X012765Y012844D01*
X012431Y012844D01*
X012295Y012980D01*
X011515Y012980D01*
X011244Y012716D02*
X010826Y012716D01*
X010826Y012639D02*
X011351Y012639D01*
X011183Y012793D02*
X010826Y012793D01*
X010826Y012871D02*
X011151Y012871D01*
X011137Y012948D02*
X010826Y012948D01*
X010826Y013025D02*
X011137Y013025D01*
X011157Y013102D02*
X010884Y013102D01*
X010961Y013180D02*
X011189Y013180D01*
X011258Y013257D02*
X011039Y013257D01*
X011773Y013257D02*
X014596Y013257D01*
X014527Y013180D02*
X011842Y013180D01*
X011847Y012793D02*
X012259Y012793D01*
X012336Y012716D02*
X011786Y012716D01*
X011680Y012639D02*
X012493Y012639D01*
X012523Y012484D02*
X010826Y012484D01*
X010826Y012407D02*
X012492Y012407D01*
X012492Y012330D02*
X011710Y012330D01*
X011705Y012334D02*
X011770Y012290D01*
X011826Y012235D01*
X011869Y012169D01*
X011899Y012096D01*
X011915Y012019D01*
X011555Y012019D01*
X011555Y011941D01*
X011915Y011941D01*
X011899Y011863D01*
X011869Y011791D01*
X011826Y011725D01*
X011770Y011670D01*
X011705Y011626D01*
X011632Y011596D01*
X011555Y011581D01*
X011555Y011941D01*
X011476Y011941D01*
X011116Y011941D01*
X011131Y011863D01*
X011162Y011791D01*
X011205Y011725D01*
X011261Y011670D01*
X011326Y011626D01*
X011399Y011596D01*
X011476Y011581D01*
X011476Y011941D01*
X011476Y012019D01*
X011116Y012019D01*
X011131Y012096D01*
X011162Y012169D01*
X011205Y012235D01*
X011261Y012290D01*
X011326Y012334D01*
X011399Y012364D01*
X011476Y012379D01*
X011476Y012019D01*
X011555Y012019D01*
X011555Y012379D01*
X011632Y012364D01*
X011705Y012334D01*
X011807Y012253D02*
X012492Y012253D01*
X012492Y012175D02*
X011865Y012175D01*
X011899Y012098D02*
X012492Y012098D01*
X012511Y012021D02*
X011914Y012021D01*
X011900Y011866D02*
X012610Y011866D01*
X012610Y011789D02*
X011868Y011789D01*
X011812Y011712D02*
X012610Y011712D01*
X012642Y011635D02*
X011718Y011635D01*
X011555Y011635D02*
X011476Y011635D01*
X011476Y011712D02*
X011555Y011712D01*
X011555Y011789D02*
X011476Y011789D01*
X011476Y011866D02*
X011555Y011866D01*
X011555Y011944D02*
X012610Y011944D01*
X012767Y011732D02*
X013328Y011171D01*
X013328Y009230D01*
X014145Y008413D01*
X014529Y008413D01*
X014529Y008157D02*
X014175Y008157D01*
X013958Y008374D01*
X013643Y008374D01*
X013506Y008196D01*
X013166Y008196D01*
X013269Y008192D01*
X012832Y008192D01*
X012610Y007970D01*
X012610Y007803D01*
X012571Y007771D01*
X012726Y007387D02*
X012972Y007387D01*
X012969Y007464D02*
X012850Y007464D01*
X012924Y007541D02*
X012969Y007541D01*
X012969Y007618D02*
X012956Y007618D01*
X013220Y007581D02*
X013220Y007370D01*
X013269Y007320D01*
X014096Y007320D01*
X014165Y007389D01*
X014529Y007389D01*
X014529Y007133D02*
X014185Y007133D01*
X014139Y007088D01*
X013498Y007088D01*
X013972Y006923D02*
X014027Y006923D01*
X013968Y006846D02*
X012985Y006846D01*
X012985Y006769D02*
X012986Y006769D01*
X012965Y006616D02*
X012965Y006519D01*
X012974Y006483D01*
X012992Y006451D01*
X013018Y006425D01*
X013050Y006407D01*
X013086Y006398D01*
X013498Y006398D01*
X013498Y006616D01*
X013498Y006616D01*
X013498Y006616D01*
X012965Y006616D01*
X012965Y006614D02*
X012948Y006614D01*
X012965Y006537D02*
X012907Y006537D01*
X012830Y006460D02*
X012988Y006460D01*
X013020Y006305D02*
X012748Y006305D01*
X012748Y006228D02*
X012986Y006228D01*
X012986Y006151D02*
X012748Y006151D01*
X012748Y006073D02*
X012986Y006073D01*
X013005Y005996D02*
X012748Y005996D01*
X012748Y005919D02*
X014195Y005919D01*
X014195Y005996D02*
X014117Y005996D01*
X014194Y006073D02*
X014195Y006073D01*
X014041Y006143D02*
X014126Y006228D01*
X014126Y006799D01*
X014204Y006878D01*
X014529Y006878D01*
X014529Y006622D02*
X014529Y006336D01*
X014352Y006159D01*
X014352Y005460D01*
X014273Y005381D01*
X013924Y005381D01*
X013648Y005378D02*
X013363Y005378D01*
X013363Y005342D02*
X013363Y005421D01*
X013284Y005421D01*
X013284Y005342D01*
X013027Y005342D01*
X013027Y005206D01*
X013036Y005170D01*
X013055Y005138D01*
X013081Y005112D01*
X013112Y005094D01*
X013148Y005085D01*
X013284Y005085D01*
X013284Y005342D01*
X013363Y005342D01*
X013363Y005085D01*
X013500Y005085D01*
X013535Y005094D01*
X013567Y005112D01*
X013593Y005138D01*
X013611Y005170D01*
X013621Y005206D01*
X013621Y005342D01*
X013363Y005342D01*
X013363Y005301D02*
X013284Y005301D01*
X013284Y005224D02*
X013363Y005224D01*
X013363Y005147D02*
X013284Y005147D01*
X013284Y005378D02*
X012748Y005378D01*
X012748Y005301D02*
X013027Y005301D01*
X013027Y005224D02*
X012748Y005224D01*
X012748Y005147D02*
X013050Y005147D01*
X013027Y005421D02*
X013284Y005421D01*
X013284Y005678D01*
X013148Y005678D01*
X013112Y005669D01*
X013081Y005650D01*
X013055Y005625D01*
X013036Y005593D01*
X013027Y005557D01*
X013027Y005421D01*
X013027Y005456D02*
X012748Y005456D01*
X012748Y005533D02*
X013027Y005533D01*
X013046Y005610D02*
X012748Y005610D01*
X012748Y005687D02*
X014195Y005687D01*
X014195Y005610D02*
X014177Y005610D01*
X014195Y005765D02*
X012748Y005765D01*
X012748Y005842D02*
X014195Y005842D01*
X014510Y005842D02*
X014595Y005842D01*
X014595Y005919D02*
X014510Y005919D01*
X014510Y005996D02*
X014595Y005996D01*
X014622Y006073D02*
X014510Y006073D01*
X014566Y006151D02*
X014654Y006151D01*
X014644Y006228D02*
X014686Y006228D01*
X014687Y006305D02*
X014735Y006305D01*
X014687Y006382D02*
X014813Y006382D01*
X014879Y006460D02*
X014890Y006460D01*
X014913Y006537D02*
X015045Y006537D01*
X014913Y006614D02*
X016006Y006614D01*
X016006Y006537D02*
X015608Y006537D01*
X015763Y006460D02*
X016006Y006460D01*
X016006Y006382D02*
X015840Y006382D01*
X015918Y006305D02*
X016006Y006305D01*
X016006Y006228D02*
X015967Y006228D01*
X015999Y006151D02*
X016006Y006151D01*
X016006Y006691D02*
X014913Y006691D01*
X014913Y006750D02*
X014913Y006750D01*
X014913Y006769D02*
X015962Y006769D01*
X015885Y006846D02*
X014913Y006846D01*
X014913Y006923D02*
X015667Y006923D01*
X015604Y007000D02*
X014913Y007000D01*
X014913Y007006D02*
X014913Y007006D01*
X014913Y007078D02*
X015572Y007078D01*
X015571Y007155D02*
X014913Y007155D01*
X014913Y007232D02*
X015499Y007232D01*
X015422Y007309D02*
X014913Y007309D01*
X014913Y007387D02*
X015344Y007387D01*
X015267Y007464D02*
X014913Y007464D01*
X014529Y007645D02*
X013855Y007645D01*
X013845Y007596D01*
X014037Y007901D02*
X013860Y008078D01*
X014037Y007901D02*
X014529Y007901D01*
X015317Y008551D02*
X015435Y008669D01*
X016793Y008669D01*
X016793Y008925D02*
X017295Y008925D01*
X017233Y009086D02*
X017143Y009086D01*
X017311Y009163D02*
X015843Y009163D01*
X015766Y009086D02*
X016442Y009086D01*
X016409Y009009D02*
X015615Y009009D01*
X015921Y009240D02*
X017315Y009240D01*
X017315Y009318D02*
X015968Y009318D01*
X016000Y009395D02*
X017315Y009395D01*
X017315Y009472D02*
X016032Y009472D01*
X016058Y009549D02*
X017315Y009549D01*
X017315Y009627D02*
X016058Y009627D01*
X016058Y009704D02*
X017315Y009704D01*
X017315Y009781D02*
X016058Y009781D01*
X016045Y009858D02*
X017315Y009858D01*
X017315Y009935D02*
X016013Y009935D01*
X015981Y010013D02*
X017315Y010013D01*
X017315Y010090D02*
X015949Y010090D01*
X015874Y010167D02*
X017315Y010167D01*
X017315Y010244D02*
X015797Y010244D01*
X015690Y010322D02*
X017315Y010322D01*
X017315Y010399D02*
X015504Y010399D01*
X015149Y010399D02*
X013801Y010399D01*
X013801Y010476D02*
X017315Y010476D01*
X017315Y010553D02*
X013801Y010553D01*
X013801Y010631D02*
X017315Y010631D01*
X017375Y010708D02*
X013801Y010708D01*
X013801Y010785D02*
X017452Y010785D01*
X017529Y010862D02*
X013801Y010862D01*
X013801Y010940D02*
X017607Y010940D01*
X017684Y011017D02*
X013848Y011017D01*
X013925Y011094D02*
X017761Y011094D01*
X017838Y011171D02*
X014002Y011171D01*
X013996Y011387D02*
X016319Y011387D01*
X016901Y011970D01*
X016901Y012306D01*
X016626Y012330D02*
X015049Y012330D01*
X015043Y012334D02*
X014970Y012364D01*
X014893Y012379D01*
X014893Y012019D01*
X014815Y012019D01*
X014815Y011941D01*
X014455Y011941D01*
X014470Y011863D01*
X014500Y011791D01*
X014544Y011725D01*
X014599Y011670D01*
X014665Y011626D01*
X014738Y011596D01*
X014815Y011581D01*
X014815Y011941D01*
X014893Y011941D01*
X014893Y012019D01*
X015253Y012019D01*
X015238Y012096D01*
X015208Y012169D01*
X015164Y012235D01*
X015109Y012290D01*
X015043Y012334D01*
X015146Y012253D02*
X016626Y012253D01*
X016626Y012175D02*
X015204Y012175D01*
X015237Y012098D02*
X016627Y012098D01*
X016729Y012021D02*
X015253Y012021D01*
X015253Y011941D02*
X014893Y011941D01*
X014893Y011581D01*
X014970Y011596D01*
X015043Y011626D01*
X015109Y011670D01*
X015164Y011725D01*
X015208Y011791D01*
X015238Y011863D01*
X015253Y011941D01*
X015239Y011866D02*
X016575Y011866D01*
X016498Y011789D02*
X015207Y011789D01*
X015151Y011712D02*
X016420Y011712D01*
X016343Y011635D02*
X015056Y011635D01*
X014893Y011635D02*
X014815Y011635D01*
X014815Y011712D02*
X014893Y011712D01*
X014893Y011789D02*
X014815Y011789D01*
X014815Y011866D02*
X014893Y011866D01*
X014893Y011944D02*
X016652Y011944D01*
X017059Y012021D02*
X017770Y012021D01*
X017786Y012098D02*
X017176Y012098D01*
X017177Y012175D02*
X017819Y012175D01*
X017877Y012253D02*
X017177Y012253D01*
X017177Y012330D02*
X017974Y012330D01*
X018130Y012330D02*
X018208Y012330D01*
X018208Y012253D02*
X018130Y012253D01*
X018130Y012175D02*
X018208Y012175D01*
X018208Y012098D02*
X018130Y012098D01*
X018130Y012021D02*
X018208Y012021D01*
X018208Y011944D02*
X019314Y011944D01*
X019372Y012098D02*
X018552Y012098D01*
X018519Y012175D02*
X019372Y012175D01*
X019372Y012253D02*
X018461Y012253D01*
X018364Y012330D02*
X019372Y012330D01*
X019372Y012407D02*
X017177Y012407D01*
X017177Y012484D02*
X019372Y012484D01*
X019372Y012562D02*
X017127Y012562D01*
X017116Y012639D02*
X018004Y012639D01*
X017898Y012716D02*
X017177Y012716D01*
X016901Y012906D02*
X018067Y012906D01*
X018169Y012980D01*
X018440Y012716D02*
X019372Y012716D01*
X019372Y012639D02*
X018334Y012639D01*
X018501Y012793D02*
X019372Y012793D01*
X019359Y012871D02*
X018533Y012871D01*
X018547Y012948D02*
X019281Y012948D01*
X019204Y013025D02*
X018547Y013025D01*
X018528Y013102D02*
X019127Y013102D01*
X019050Y013180D02*
X018496Y013180D01*
X018427Y013257D02*
X018972Y013257D01*
X017911Y013257D02*
X015112Y013257D01*
X015181Y013180D02*
X016693Y013180D01*
X016626Y013102D02*
X015213Y013102D01*
X015232Y013025D02*
X016626Y013025D01*
X016626Y012948D02*
X015232Y012948D01*
X015218Y012871D02*
X016626Y012871D01*
X016626Y012793D02*
X015186Y012793D01*
X015125Y012716D02*
X016626Y012716D01*
X016686Y012639D02*
X015019Y012639D01*
X014689Y012639D02*
X013917Y012639D01*
X013888Y012484D02*
X016626Y012484D01*
X016626Y012407D02*
X013919Y012407D01*
X013919Y012330D02*
X014659Y012330D01*
X014665Y012334D02*
X014599Y012290D01*
X014544Y012235D01*
X014500Y012169D01*
X014470Y012096D01*
X014455Y012019D01*
X014815Y012019D01*
X014815Y012379D01*
X014738Y012364D01*
X014665Y012334D01*
X014562Y012253D02*
X013919Y012253D01*
X013919Y012175D02*
X014504Y012175D01*
X014471Y012098D02*
X013919Y012098D01*
X013899Y012021D02*
X014455Y012021D01*
X014469Y011866D02*
X013799Y011866D01*
X013799Y011789D02*
X014501Y011789D01*
X014557Y011712D02*
X013799Y011712D01*
X013799Y011635D02*
X014652Y011635D01*
X014815Y011944D02*
X013799Y011944D01*
X013484Y011944D02*
X012925Y011944D01*
X012925Y011866D02*
X013484Y011866D01*
X013484Y011789D02*
X012933Y011789D01*
X013010Y011712D02*
X013484Y011712D01*
X013484Y011635D02*
X013087Y011635D01*
X013164Y011558D02*
X013484Y011558D01*
X013484Y011480D02*
X013242Y011480D01*
X013319Y011403D02*
X013413Y011403D01*
X013105Y011171D02*
X009711Y011171D01*
X009634Y011094D02*
X013171Y011094D01*
X013171Y011017D02*
X009557Y011017D01*
X009479Y010940D02*
X013171Y010940D01*
X013171Y010862D02*
X009402Y010862D01*
X009325Y010785D02*
X013171Y010785D01*
X013171Y010708D02*
X009248Y010708D01*
X009220Y010621D02*
X008957Y010358D01*
X008957Y009987D01*
X009220Y009725D01*
X009591Y009725D01*
X009853Y009987D01*
X009853Y010358D01*
X009591Y010621D01*
X009220Y010621D01*
X009170Y010631D02*
X013171Y010631D01*
X013171Y010553D02*
X011657Y010553D01*
X011659Y010553D02*
X011494Y010621D01*
X011316Y010621D01*
X011151Y010553D01*
X011025Y010427D01*
X010957Y010262D01*
X010957Y010084D01*
X011025Y009919D01*
X011151Y009793D01*
X011316Y009725D01*
X011494Y009725D01*
X011659Y009793D01*
X011785Y009919D01*
X011853Y010084D01*
X011853Y010262D01*
X011785Y010427D01*
X011659Y010553D01*
X011736Y010476D02*
X013171Y010476D01*
X013171Y010399D02*
X011797Y010399D01*
X011829Y010322D02*
X013171Y010322D01*
X013171Y010244D02*
X011853Y010244D01*
X011853Y010167D02*
X013171Y010167D01*
X013171Y010090D02*
X011853Y010090D01*
X011824Y010013D02*
X013171Y010013D01*
X013171Y009935D02*
X011792Y009935D01*
X011724Y009858D02*
X013171Y009858D01*
X013171Y009781D02*
X011630Y009781D01*
X011494Y009621D02*
X011659Y009553D01*
X011785Y009427D01*
X011853Y009262D01*
X011853Y009084D01*
X011785Y008919D01*
X011659Y008793D01*
X011494Y008725D01*
X011316Y008725D01*
X011151Y008793D01*
X011025Y008919D01*
X010957Y009084D01*
X010957Y009262D01*
X011025Y009427D01*
X011151Y009553D01*
X011316Y009621D01*
X011494Y009621D01*
X011662Y009549D02*
X013171Y009549D01*
X013171Y009472D02*
X011740Y009472D01*
X011798Y009395D02*
X013171Y009395D01*
X013171Y009318D02*
X011830Y009318D01*
X011853Y009240D02*
X013171Y009240D01*
X013173Y009163D02*
X012728Y009163D01*
X012610Y009163D02*
X012531Y009163D01*
X012531Y009086D02*
X012610Y009086D01*
X012610Y009009D02*
X012531Y009009D01*
X012531Y008931D02*
X012610Y008931D01*
X012610Y008854D02*
X012531Y008854D01*
X012531Y008777D02*
X011620Y008777D01*
X011720Y008854D02*
X012144Y008854D01*
X012171Y008931D02*
X011790Y008931D01*
X011822Y009009D02*
X012215Y009009D01*
X012284Y009086D02*
X011853Y009086D01*
X011853Y009163D02*
X012413Y009163D01*
X012857Y009086D02*
X013083Y009086D01*
X012985Y009009D02*
X012926Y009009D01*
X012971Y008931D02*
X012973Y008931D01*
X013230Y008931D02*
X013309Y008931D01*
X013309Y008854D02*
X013230Y008854D01*
X013230Y008777D02*
X012610Y008777D01*
X012610Y008700D02*
X012531Y008700D01*
X012531Y008622D02*
X012610Y008622D01*
X012610Y008545D02*
X012531Y008545D01*
X012531Y008468D02*
X012610Y008468D01*
X012610Y008391D02*
X012531Y008391D01*
X012653Y008236D02*
X011870Y008236D01*
X011874Y008212D02*
X011863Y008283D01*
X011840Y008353D01*
X011807Y008419D01*
X011763Y008479D01*
X011711Y008531D01*
X011651Y008574D01*
X011585Y008608D01*
X011515Y008631D01*
X011445Y008642D01*
X011445Y008212D01*
X011874Y008212D01*
X011874Y008133D02*
X011445Y008133D01*
X011445Y008212D01*
X011366Y008212D01*
X011366Y008133D01*
X011445Y008133D01*
X011445Y007704D01*
X011515Y007715D01*
X011585Y007738D01*
X011651Y007771D01*
X011711Y007815D01*
X011763Y007867D01*
X011807Y007927D01*
X012186Y007927D01*
X012156Y007850D02*
X011746Y007850D01*
X011807Y007927D02*
X011840Y007993D01*
X011863Y008063D01*
X011874Y008133D01*
X011866Y008082D02*
X012294Y008082D01*
X012218Y008004D02*
X011844Y008004D01*
X011653Y007773D02*
X012156Y007773D01*
X012156Y007696D02*
X008795Y007696D01*
X008700Y007773D02*
X009157Y007773D01*
X009159Y007771D02*
X009225Y007738D01*
X009295Y007715D01*
X009366Y007704D01*
X009366Y008133D01*
X009445Y008133D01*
X009445Y008212D01*
X009874Y008212D01*
X009863Y008283D01*
X009840Y008353D01*
X009807Y008419D01*
X009763Y008479D01*
X009711Y008531D01*
X009651Y008574D01*
X009585Y008608D01*
X009515Y008631D01*
X009445Y008642D01*
X009445Y008212D01*
X009366Y008212D01*
X009366Y008133D01*
X008936Y008133D01*
X008947Y008063D01*
X008970Y007993D01*
X009004Y007927D01*
X009047Y007867D01*
X009099Y007815D01*
X009159Y007771D01*
X009064Y007850D02*
X008661Y007850D01*
X008661Y007927D02*
X009004Y007927D01*
X008966Y008004D02*
X008661Y008004D01*
X008661Y008082D02*
X008944Y008082D01*
X008936Y008212D02*
X009366Y008212D01*
X009366Y008642D01*
X009295Y008631D01*
X009225Y008608D01*
X009159Y008574D01*
X009099Y008531D01*
X009047Y008479D01*
X009004Y008419D01*
X008970Y008353D01*
X008947Y008283D01*
X008936Y008212D01*
X008940Y008236D02*
X008661Y008236D01*
X008661Y008159D02*
X009366Y008159D01*
X009366Y008236D02*
X009445Y008236D01*
X009445Y008159D02*
X010366Y008159D01*
X010366Y008133D02*
X009936Y008133D01*
X009947Y008063D01*
X009970Y007993D01*
X010004Y007927D01*
X010047Y007867D01*
X010099Y007815D01*
X010159Y007771D01*
X010225Y007738D01*
X010295Y007715D01*
X010366Y007704D01*
X010366Y008133D01*
X010445Y008133D01*
X010445Y008212D01*
X010874Y008212D01*
X010863Y008283D01*
X010840Y008353D01*
X010807Y008419D01*
X010763Y008479D01*
X010711Y008531D01*
X010651Y008574D01*
X010585Y008608D01*
X010515Y008631D01*
X010445Y008642D01*
X010445Y008212D01*
X010366Y008212D01*
X010366Y008133D01*
X010366Y008082D02*
X010445Y008082D01*
X010445Y008133D02*
X010445Y007704D01*
X010515Y007715D01*
X010585Y007738D01*
X010651Y007771D01*
X010711Y007815D01*
X010763Y007867D01*
X010807Y007927D01*
X011004Y007927D01*
X011047Y007867D01*
X011099Y007815D01*
X011159Y007771D01*
X011225Y007738D01*
X011295Y007715D01*
X011366Y007704D01*
X011366Y008133D01*
X010936Y008133D01*
X010947Y008063D01*
X010970Y007993D01*
X011004Y007927D01*
X010966Y008004D02*
X010844Y008004D01*
X010840Y007993D02*
X010863Y008063D01*
X010874Y008133D01*
X010445Y008133D01*
X010445Y008159D02*
X011366Y008159D01*
X011366Y008212D02*
X010936Y008212D01*
X010947Y008283D01*
X010970Y008353D01*
X011004Y008419D01*
X011047Y008479D01*
X011099Y008531D01*
X011159Y008574D01*
X011225Y008608D01*
X011295Y008631D01*
X011366Y008642D01*
X011366Y008212D01*
X011366Y008236D02*
X011445Y008236D01*
X011445Y008159D02*
X012422Y008159D01*
X012331Y008391D02*
X011821Y008391D01*
X011853Y008313D02*
X012731Y008313D01*
X012811Y008391D02*
X012994Y008391D01*
X012900Y008468D02*
X013515Y008468D01*
X013535Y008545D02*
X013790Y008545D01*
X013713Y008622D02*
X013566Y008622D01*
X013566Y008700D02*
X013636Y008700D01*
X013559Y008777D02*
X013309Y008777D01*
X013309Y008700D02*
X013230Y008700D01*
X013230Y008622D02*
X013309Y008622D01*
X013309Y008545D02*
X013230Y008545D01*
X013004Y008545D02*
X012953Y008545D01*
X013230Y009009D02*
X013309Y009009D01*
X013250Y009086D02*
X013230Y009086D01*
X013643Y009378D02*
X014096Y008925D01*
X014003Y009240D02*
X014732Y009240D01*
X014685Y009318D02*
X013926Y009318D01*
X013849Y009395D02*
X014653Y009395D01*
X014621Y009472D02*
X013801Y009472D01*
X013801Y009549D02*
X014595Y009549D01*
X014595Y009627D02*
X013801Y009627D01*
X013801Y009704D02*
X014595Y009704D01*
X014595Y009781D02*
X013801Y009781D01*
X013801Y009858D02*
X014608Y009858D01*
X014640Y009935D02*
X013801Y009935D01*
X013801Y010013D02*
X014672Y010013D01*
X014704Y010090D02*
X013801Y010090D01*
X013801Y010167D02*
X014778Y010167D01*
X014856Y010244D02*
X013801Y010244D01*
X013801Y010322D02*
X014962Y010322D01*
X013996Y011387D02*
X013643Y011035D01*
X013643Y009378D01*
X013171Y009627D02*
X008661Y009627D01*
X008661Y009704D02*
X013171Y009704D01*
X012138Y008700D02*
X008661Y008700D01*
X008661Y008777D02*
X009190Y008777D01*
X009151Y008793D02*
X009316Y008725D01*
X009494Y008725D01*
X009659Y008793D01*
X009785Y008919D01*
X009853Y009084D01*
X009853Y009262D01*
X009785Y009427D01*
X009659Y009553D01*
X009494Y009621D01*
X009316Y009621D01*
X009151Y009553D01*
X009025Y009427D01*
X008957Y009262D01*
X008957Y009084D01*
X009025Y008919D01*
X009151Y008793D01*
X009090Y008854D02*
X008661Y008854D01*
X008661Y008931D02*
X009020Y008931D01*
X008988Y009009D02*
X008661Y009009D01*
X008661Y009086D02*
X008957Y009086D01*
X008957Y009163D02*
X008661Y009163D01*
X008661Y009240D02*
X008957Y009240D01*
X008980Y009318D02*
X008661Y009318D01*
X008661Y009395D02*
X009012Y009395D01*
X009071Y009472D02*
X008661Y009472D01*
X008661Y009549D02*
X009148Y009549D01*
X009163Y009781D02*
X008661Y009781D01*
X008661Y009858D02*
X009086Y009858D01*
X009009Y009935D02*
X008661Y009935D01*
X008661Y010013D02*
X008957Y010013D01*
X008957Y010090D02*
X008661Y010090D01*
X008707Y010167D02*
X008957Y010167D01*
X008957Y010244D02*
X008784Y010244D01*
X008861Y010322D02*
X008957Y010322D01*
X008939Y010399D02*
X008998Y010399D01*
X009016Y010476D02*
X009075Y010476D01*
X009093Y010553D02*
X009152Y010553D01*
X009658Y010553D02*
X010153Y010553D01*
X010151Y010553D02*
X010025Y010427D01*
X009957Y010262D01*
X009957Y010084D01*
X010025Y009919D01*
X010151Y009793D01*
X010316Y009725D01*
X010494Y009725D01*
X010659Y009793D01*
X010785Y009919D01*
X010853Y010084D01*
X010853Y010262D01*
X010785Y010427D01*
X010659Y010553D01*
X010494Y010621D01*
X010316Y010621D01*
X010151Y010553D01*
X010075Y010476D02*
X009736Y010476D01*
X009813Y010399D02*
X010014Y010399D01*
X009982Y010322D02*
X009853Y010322D01*
X009853Y010244D02*
X009957Y010244D01*
X009957Y010167D02*
X009853Y010167D01*
X009853Y010090D02*
X009957Y010090D01*
X009986Y010013D02*
X009853Y010013D01*
X009802Y009935D02*
X010018Y009935D01*
X010086Y009858D02*
X009724Y009858D01*
X009647Y009781D02*
X010180Y009781D01*
X010316Y009621D02*
X010151Y009553D01*
X010025Y009427D01*
X009957Y009262D01*
X009957Y009084D01*
X010025Y008919D01*
X010151Y008793D01*
X010316Y008725D01*
X010494Y008725D01*
X010659Y008793D01*
X010785Y008919D01*
X010853Y009084D01*
X010853Y009262D01*
X010785Y009427D01*
X010659Y009553D01*
X010494Y009621D01*
X010316Y009621D01*
X010148Y009549D02*
X009662Y009549D01*
X009740Y009472D02*
X010071Y009472D01*
X010012Y009395D02*
X009798Y009395D01*
X009830Y009318D02*
X009980Y009318D01*
X009957Y009240D02*
X009853Y009240D01*
X009853Y009163D02*
X009957Y009163D01*
X009957Y009086D02*
X009853Y009086D01*
X009822Y009009D02*
X009988Y009009D01*
X010020Y008931D02*
X009790Y008931D01*
X009720Y008854D02*
X010090Y008854D01*
X010190Y008777D02*
X009620Y008777D01*
X009540Y008622D02*
X010270Y008622D01*
X010295Y008631D02*
X010225Y008608D01*
X010159Y008574D01*
X010099Y008531D01*
X010047Y008479D01*
X010004Y008419D01*
X009970Y008353D01*
X009947Y008283D01*
X009936Y008212D01*
X010366Y008212D01*
X010366Y008642D01*
X010295Y008631D01*
X010366Y008622D02*
X010445Y008622D01*
X010445Y008545D02*
X010366Y008545D01*
X010366Y008468D02*
X010445Y008468D01*
X010445Y008391D02*
X010366Y008391D01*
X010366Y008313D02*
X010445Y008313D01*
X010445Y008236D02*
X010366Y008236D01*
X010366Y008004D02*
X010445Y008004D01*
X010445Y007927D02*
X010366Y007927D01*
X010366Y007850D02*
X010445Y007850D01*
X010445Y007773D02*
X010366Y007773D01*
X010157Y007773D02*
X009653Y007773D01*
X009651Y007771D02*
X009711Y007815D01*
X009763Y007867D01*
X009807Y007927D01*
X010004Y007927D01*
X009966Y008004D02*
X009844Y008004D01*
X009840Y007993D02*
X009863Y008063D01*
X009874Y008133D01*
X009445Y008133D01*
X009445Y007704D01*
X009515Y007715D01*
X009585Y007738D01*
X009651Y007771D01*
X009746Y007850D02*
X010064Y007850D01*
X009944Y008082D02*
X009866Y008082D01*
X009840Y007993D02*
X009807Y007927D01*
X009870Y008236D02*
X009940Y008236D01*
X009957Y008313D02*
X009853Y008313D01*
X009821Y008391D02*
X009989Y008391D01*
X010039Y008468D02*
X009771Y008468D01*
X009691Y008545D02*
X010119Y008545D01*
X010540Y008622D02*
X011270Y008622D01*
X011366Y008622D02*
X011445Y008622D01*
X011445Y008545D02*
X011366Y008545D01*
X011366Y008468D02*
X011445Y008468D01*
X011445Y008391D02*
X011366Y008391D01*
X011366Y008313D02*
X011445Y008313D01*
X011445Y008082D02*
X011366Y008082D01*
X011366Y008004D02*
X011445Y008004D01*
X011445Y007927D02*
X011366Y007927D01*
X011366Y007850D02*
X011445Y007850D01*
X011445Y007773D02*
X011366Y007773D01*
X011157Y007773D02*
X010653Y007773D01*
X010746Y007850D02*
X011064Y007850D01*
X010944Y008082D02*
X010866Y008082D01*
X010840Y007993D02*
X010807Y007927D01*
X010870Y008236D02*
X010940Y008236D01*
X010957Y008313D02*
X010853Y008313D01*
X010821Y008391D02*
X010989Y008391D01*
X011039Y008468D02*
X010771Y008468D01*
X010691Y008545D02*
X011119Y008545D01*
X011190Y008777D02*
X010620Y008777D01*
X010720Y008854D02*
X011090Y008854D01*
X011020Y008931D02*
X010790Y008931D01*
X010822Y009009D02*
X010988Y009009D01*
X010957Y009086D02*
X010853Y009086D01*
X010853Y009163D02*
X010957Y009163D01*
X010957Y009240D02*
X010853Y009240D01*
X010830Y009318D02*
X010980Y009318D01*
X011012Y009395D02*
X010798Y009395D01*
X010740Y009472D02*
X011071Y009472D01*
X011148Y009549D02*
X010662Y009549D01*
X010630Y009781D02*
X011180Y009781D01*
X011086Y009858D02*
X010724Y009858D01*
X010792Y009935D02*
X011018Y009935D01*
X010986Y010013D02*
X010824Y010013D01*
X010853Y010090D02*
X010957Y010090D01*
X010957Y010167D02*
X010853Y010167D01*
X010853Y010244D02*
X010957Y010244D01*
X010982Y010322D02*
X010829Y010322D01*
X010797Y010399D02*
X011014Y010399D01*
X011075Y010476D02*
X010736Y010476D01*
X010657Y010553D02*
X011153Y010553D01*
X010097Y011558D02*
X012719Y011558D01*
X012796Y011480D02*
X010020Y011480D01*
X009943Y011403D02*
X012874Y011403D01*
X012951Y011326D02*
X009866Y011326D01*
X009788Y011249D02*
X013028Y011249D01*
X012767Y011732D02*
X012767Y012247D01*
X013043Y012175D02*
X013368Y012175D01*
X013368Y012098D02*
X013043Y012098D01*
X013024Y012021D02*
X013387Y012021D01*
X013799Y011558D02*
X016266Y011558D01*
X016480Y011326D02*
X017993Y011326D01*
X017916Y011249D02*
X016402Y011249D01*
X016675Y012562D02*
X010826Y012562D01*
X010826Y012330D02*
X011320Y012330D01*
X011223Y012253D02*
X010826Y012253D01*
X010764Y012175D02*
X011166Y012175D01*
X011132Y012098D02*
X010638Y012098D01*
X010561Y012021D02*
X011116Y012021D01*
X011131Y011866D02*
X010406Y011866D01*
X010329Y011789D02*
X011162Y011789D01*
X011219Y011712D02*
X010252Y011712D01*
X010174Y011635D02*
X011313Y011635D01*
X011476Y011944D02*
X010483Y011944D01*
X011476Y012021D02*
X011555Y012021D01*
X011555Y012098D02*
X011476Y012098D01*
X011476Y012175D02*
X011555Y012175D01*
X011555Y012253D02*
X011476Y012253D01*
X011476Y012330D02*
X011555Y012330D01*
X012472Y013025D02*
X012492Y013025D01*
X012541Y013102D02*
X012395Y013102D01*
X013643Y012847D02*
X014195Y012847D01*
X014340Y012992D01*
X014842Y012992D01*
X014854Y012980D01*
X014583Y012716D02*
X014287Y012716D01*
X014365Y012793D02*
X014522Y012793D01*
X014228Y013102D02*
X013870Y013102D01*
X013919Y013025D02*
X014151Y013025D01*
X014013Y013643D02*
X014368Y013643D01*
X014303Y013720D02*
X014013Y013720D01*
X014013Y013798D02*
X014265Y013798D01*
X014245Y013875D02*
X014013Y013875D01*
X014907Y013643D02*
X015398Y013643D01*
X015321Y013720D02*
X014972Y013720D01*
X015010Y013798D02*
X015288Y013798D01*
X015262Y013875D02*
X015030Y013875D01*
X014893Y012330D02*
X014815Y012330D01*
X014815Y012253D02*
X014893Y012253D01*
X014893Y012175D02*
X014815Y012175D01*
X014815Y012098D02*
X014893Y012098D01*
X014893Y012021D02*
X014815Y012021D01*
X013866Y011480D02*
X013799Y011480D01*
X012155Y008622D02*
X011540Y008622D01*
X011691Y008545D02*
X012188Y008545D01*
X012241Y008468D02*
X011771Y008468D01*
X012185Y007618D02*
X008890Y007618D01*
X008985Y007541D02*
X012217Y007541D01*
X012291Y007464D02*
X009080Y007464D01*
X009175Y007387D02*
X012415Y007387D01*
X012374Y007155D02*
X009459Y007155D01*
X009364Y007232D02*
X013002Y007232D01*
X012986Y007155D02*
X012767Y007155D01*
X012867Y007078D02*
X012986Y007078D01*
X012986Y007000D02*
X012931Y007000D01*
X012963Y006923D02*
X013023Y006923D01*
X013063Y007309D02*
X009269Y007309D01*
X009554Y007078D02*
X012274Y007078D01*
X012210Y007000D02*
X009649Y007000D01*
X009744Y006923D02*
X012178Y006923D01*
X012156Y006846D02*
X009838Y006846D01*
X009933Y006769D02*
X012156Y006769D01*
X012161Y006691D02*
X010028Y006691D01*
X010123Y006614D02*
X012193Y006614D01*
X012234Y006537D02*
X010222Y006537D01*
X010295Y006460D02*
X012311Y006460D01*
X012393Y006382D02*
X011919Y006382D01*
X011948Y006368D02*
X011886Y006399D01*
X011820Y006421D01*
X011752Y006431D01*
X011457Y006431D01*
X011457Y006031D01*
X012156Y006031D01*
X012146Y006095D01*
X012125Y006161D01*
X012093Y006222D01*
X012053Y006278D01*
X012004Y006327D01*
X011948Y006368D01*
X012026Y006305D02*
X012393Y006305D01*
X012393Y006228D02*
X012089Y006228D01*
X012128Y006151D02*
X012393Y006151D01*
X012393Y006073D02*
X012149Y006073D01*
X012156Y005953D02*
X011457Y005953D01*
X011457Y006031D01*
X011378Y006031D01*
X011378Y005953D01*
X010679Y005953D01*
X010689Y005889D01*
X010710Y005823D01*
X010742Y005762D01*
X010782Y005706D01*
X010831Y005657D01*
X010887Y005616D01*
X010949Y005585D01*
X011015Y005563D01*
X011083Y005553D01*
X011378Y005553D01*
X011378Y005953D01*
X011457Y005953D01*
X011457Y005553D01*
X011752Y005553D01*
X011820Y005563D01*
X011886Y005585D01*
X011948Y005616D01*
X012004Y005657D01*
X012053Y005706D01*
X012093Y005762D01*
X012125Y005823D01*
X012146Y005889D01*
X012156Y005953D01*
X012151Y005919D02*
X012393Y005919D01*
X012393Y005996D02*
X011457Y005996D01*
X011457Y005919D02*
X011378Y005919D01*
X011378Y005996D02*
X010295Y005996D01*
X010295Y005919D02*
X010684Y005919D01*
X010704Y005842D02*
X010295Y005842D01*
X010295Y005765D02*
X010740Y005765D01*
X010801Y005687D02*
X010295Y005687D01*
X010295Y005610D02*
X010899Y005610D01*
X010679Y006031D02*
X011378Y006031D01*
X011378Y006431D01*
X011083Y006431D01*
X011015Y006421D01*
X010949Y006399D01*
X010887Y006368D01*
X010831Y006327D01*
X010782Y006278D01*
X010742Y006222D01*
X010710Y006161D01*
X010689Y006095D01*
X010679Y006031D01*
X010686Y006073D02*
X010295Y006073D01*
X010295Y006151D02*
X010707Y006151D01*
X010746Y006228D02*
X010295Y006228D01*
X010295Y006305D02*
X010809Y006305D01*
X010916Y006382D02*
X010297Y006382D01*
X010295Y005533D02*
X012393Y005533D01*
X012393Y005610D02*
X011936Y005610D01*
X012034Y005687D02*
X012393Y005687D01*
X012393Y005765D02*
X012095Y005765D01*
X012131Y005842D02*
X012393Y005842D01*
X012393Y005456D02*
X010295Y005456D01*
X010295Y005378D02*
X012393Y005378D01*
X012393Y005301D02*
X010295Y005301D01*
X010279Y005224D02*
X012393Y005224D01*
X012393Y005147D02*
X010202Y005147D01*
X010125Y005069D02*
X012393Y005069D01*
X012393Y004992D02*
X010048Y004992D01*
X009911Y005301D02*
X008139Y005301D01*
X008139Y005224D02*
X009163Y005224D01*
X009085Y005147D02*
X008139Y005147D01*
X008139Y005069D02*
X009008Y005069D01*
X008931Y004992D02*
X008139Y004992D01*
X008139Y004915D02*
X008854Y004915D01*
X008776Y004838D02*
X008139Y004838D01*
X008139Y004760D02*
X008700Y004760D01*
X008700Y004683D02*
X008139Y004683D01*
X008139Y004606D02*
X008416Y004606D01*
X008283Y004529D02*
X008139Y004529D01*
X008139Y004451D02*
X008206Y004451D01*
X008172Y004374D02*
X008139Y004374D01*
X008139Y004297D02*
X008140Y004297D01*
X008139Y004220D02*
X008139Y004220D01*
X008139Y004142D02*
X008139Y004142D01*
X008139Y004065D02*
X008166Y004065D01*
X008139Y003988D02*
X008198Y003988D01*
X008139Y003911D02*
X008267Y003911D01*
X008379Y003833D02*
X008139Y003833D01*
X008139Y003756D02*
X011260Y003756D01*
X011314Y003679D02*
X008139Y003679D01*
X008139Y003602D02*
X011391Y003602D01*
X011469Y003525D02*
X008139Y003525D01*
X008139Y003447D02*
X011922Y003447D01*
X012462Y003447D02*
X012505Y003447D01*
X012495Y003525D02*
X012467Y003525D01*
X012467Y003602D02*
X012495Y003602D01*
X012495Y003756D02*
X012467Y003756D01*
X012467Y003833D02*
X012495Y003833D01*
X012531Y003911D02*
X012422Y003911D01*
X012752Y003911D02*
X012831Y003911D01*
X012831Y003833D02*
X012752Y003833D01*
X012752Y003602D02*
X012831Y003602D01*
X012831Y003525D02*
X012752Y003525D01*
X012752Y003447D02*
X012831Y003447D01*
X012831Y003370D02*
X012752Y003370D01*
X012587Y003370D02*
X008139Y003370D01*
X008139Y003293D02*
X018807Y003293D01*
X018807Y003370D02*
X012997Y003370D01*
X013079Y003447D02*
X018807Y003447D01*
X018807Y003525D02*
X017478Y003525D01*
X017574Y003602D02*
X018807Y003602D01*
X018807Y003679D02*
X017635Y003679D01*
X017667Y003756D02*
X018807Y003756D01*
X018807Y003833D02*
X017683Y003833D01*
X017683Y003911D02*
X018807Y003911D01*
X018807Y003988D02*
X017669Y003988D01*
X017637Y004065D02*
X018807Y004065D01*
X018807Y004142D02*
X017581Y004142D01*
X017495Y004220D02*
X018807Y004220D01*
X018807Y004297D02*
X017364Y004297D01*
X017364Y004374D02*
X018807Y004374D01*
X018807Y004451D02*
X017364Y004451D01*
X017364Y004529D02*
X018807Y004529D01*
X018807Y004606D02*
X017364Y004606D01*
X017364Y004683D02*
X018807Y004683D01*
X018807Y004760D02*
X017364Y004760D01*
X017364Y004838D02*
X018807Y004838D01*
X018807Y004915D02*
X017364Y004915D01*
X017364Y004992D02*
X018807Y004992D01*
X018807Y005069D02*
X017364Y005069D01*
X017364Y005147D02*
X018807Y005147D01*
X018807Y005224D02*
X017364Y005224D01*
X017364Y005301D02*
X018807Y005301D01*
X018807Y005378D02*
X017364Y005378D01*
X017364Y005456D02*
X018807Y005456D01*
X018813Y005533D02*
X017364Y005533D01*
X017364Y005610D02*
X018899Y005610D01*
X018986Y005687D02*
X017364Y005687D01*
X017364Y005765D02*
X019072Y005765D01*
X018968Y006228D02*
X018924Y006228D01*
X018924Y006305D02*
X019045Y006305D01*
X019122Y006382D02*
X018924Y006382D01*
X018924Y006460D02*
X019163Y006460D01*
X019163Y006537D02*
X018924Y006537D01*
X018924Y006614D02*
X019163Y006614D01*
X019163Y006691D02*
X018922Y006691D01*
X019816Y007773D02*
X019903Y007773D01*
X018407Y008236D02*
X018328Y008236D01*
X018328Y008313D02*
X018407Y008313D01*
X018407Y008391D02*
X018328Y008391D01*
X018328Y008468D02*
X018407Y008468D01*
X018407Y008545D02*
X018328Y008545D01*
X018328Y008622D02*
X018407Y008622D01*
X017898Y008313D02*
X017828Y008313D01*
X017826Y008236D02*
X017898Y008236D01*
X016793Y008413D02*
X015700Y008413D01*
X015602Y008315D01*
X015459Y007773D02*
X016237Y007773D01*
X016160Y007696D02*
X015537Y007696D01*
X015614Y007618D02*
X016082Y007618D01*
X016005Y007541D02*
X015691Y007541D01*
X015768Y007464D02*
X015928Y007464D01*
X014595Y005765D02*
X014510Y005765D01*
X014510Y005687D02*
X014607Y005687D01*
X014639Y005610D02*
X014510Y005610D01*
X014510Y005533D02*
X014671Y005533D01*
X014703Y005456D02*
X014510Y005456D01*
X014493Y005378D02*
X014775Y005378D01*
X014853Y005301D02*
X014416Y005301D01*
X014199Y005224D02*
X014955Y005224D01*
X015142Y005147D02*
X014171Y005147D01*
X013677Y005147D02*
X013597Y005147D01*
X013621Y005224D02*
X013648Y005224D01*
X013648Y005301D02*
X013621Y005301D01*
X013621Y005421D02*
X013621Y005557D01*
X013611Y005593D01*
X013593Y005625D01*
X013567Y005650D01*
X013535Y005669D01*
X013500Y005678D01*
X013363Y005678D01*
X013363Y005421D01*
X013621Y005421D01*
X013621Y005456D02*
X013648Y005456D01*
X013648Y005533D02*
X013621Y005533D01*
X013601Y005610D02*
X013670Y005610D01*
X013363Y005610D02*
X013284Y005610D01*
X013284Y005533D02*
X013363Y005533D01*
X013363Y005456D02*
X013284Y005456D01*
X013498Y006143D02*
X014041Y006143D01*
X013968Y006382D02*
X012748Y006382D01*
X013498Y006460D02*
X013498Y006460D01*
X013498Y006537D02*
X013498Y006537D01*
X013498Y006614D02*
X013498Y006614D01*
X013498Y006691D02*
X013498Y006691D01*
X013498Y006769D02*
X013498Y006769D01*
X013220Y007581D02*
X013245Y007596D01*
X011457Y006382D02*
X011378Y006382D01*
X011378Y006305D02*
X011457Y006305D01*
X011457Y006228D02*
X011378Y006228D01*
X011378Y006151D02*
X011457Y006151D01*
X011457Y006073D02*
X011378Y006073D01*
X011378Y005842D02*
X011457Y005842D01*
X011457Y005765D02*
X011378Y005765D01*
X011378Y005687D02*
X011457Y005687D01*
X011457Y005610D02*
X011378Y005610D01*
X010976Y004606D02*
X009299Y004606D01*
X009432Y004529D02*
X010843Y004529D01*
X010766Y004451D02*
X009509Y004451D01*
X009543Y004374D02*
X010732Y004374D01*
X010758Y003988D02*
X009517Y003988D01*
X009448Y003911D02*
X010827Y003911D01*
X010939Y003833D02*
X009336Y003833D01*
X009067Y004683D02*
X012393Y004683D01*
X012393Y004606D02*
X011859Y004606D01*
X011992Y004529D02*
X012454Y004529D01*
X012532Y004451D02*
X012069Y004451D01*
X012103Y004374D02*
X012609Y004374D01*
X012686Y004297D02*
X012135Y004297D01*
X012136Y004220D02*
X012763Y004220D01*
X012841Y004142D02*
X012136Y004142D01*
X012109Y004065D02*
X012918Y004065D01*
X012995Y003988D02*
X012077Y003988D01*
X012393Y004760D02*
X009145Y004760D01*
X009222Y004838D02*
X012393Y004838D01*
X012393Y004915D02*
X009299Y004915D01*
X009980Y005378D02*
X008139Y005378D01*
X008139Y005456D02*
X009980Y005456D01*
X008356Y006382D02*
X008139Y006382D01*
X008139Y006305D02*
X008249Y006305D01*
X008186Y006228D02*
X008139Y006228D01*
X008139Y006151D02*
X008147Y006151D01*
X009366Y007773D02*
X009445Y007773D01*
X009445Y007850D02*
X009366Y007850D01*
X009366Y007927D02*
X009445Y007927D01*
X009445Y008004D02*
X009366Y008004D01*
X009366Y008082D02*
X009445Y008082D01*
X009445Y008313D02*
X009366Y008313D01*
X009366Y008391D02*
X009445Y008391D01*
X009445Y008468D02*
X009366Y008468D01*
X009366Y008545D02*
X009445Y008545D01*
X009445Y008622D02*
X009366Y008622D01*
X009270Y008622D02*
X008661Y008622D01*
X008661Y008545D02*
X009119Y008545D01*
X009039Y008468D02*
X008661Y008468D01*
X008661Y008391D02*
X008989Y008391D01*
X008957Y008313D02*
X008661Y008313D01*
X013052Y003911D02*
X013072Y003911D01*
X013089Y003833D02*
X013149Y003833D01*
X013089Y003756D02*
X013227Y003756D01*
X015299Y003525D02*
X015518Y003525D01*
X015421Y003602D02*
X015321Y003602D01*
X015321Y003679D02*
X015361Y003679D01*
X015329Y003756D02*
X015321Y003756D01*
X016354Y004297D02*
X017049Y004297D01*
X017049Y004374D02*
X016432Y004374D01*
X016509Y004451D02*
X017049Y004451D01*
X017049Y004529D02*
X016517Y004529D01*
X016517Y004606D02*
X017049Y004606D01*
X017049Y004683D02*
X016517Y004683D01*
X016517Y004760D02*
X017049Y004760D01*
X017049Y004838D02*
X016517Y004838D01*
X016517Y004915D02*
X017049Y004915D01*
X017049Y004992D02*
X016517Y004992D01*
X016517Y005069D02*
X017049Y005069D01*
X017049Y005147D02*
X016517Y005147D01*
X016517Y005224D02*
X017049Y005224D01*
X017049Y005301D02*
X016517Y005301D01*
X016517Y005378D02*
X017049Y005378D01*
X017049Y005456D02*
X016517Y005456D01*
X016900Y003756D02*
X016904Y003756D01*
X016936Y003679D02*
X016868Y003679D01*
X016817Y003602D02*
X016996Y003602D01*
X017092Y003525D02*
X016728Y003525D01*
X018625Y009549D02*
X018700Y009549D01*
X018700Y009627D02*
X017630Y009627D01*
X017630Y009858D02*
X018049Y009858D01*
X017981Y009935D02*
X017630Y009935D01*
X017630Y010013D02*
X017949Y010013D01*
X017920Y010090D02*
X017630Y010090D01*
X017630Y010167D02*
X017920Y010167D01*
X017920Y010244D02*
X017630Y010244D01*
X017630Y010322D02*
X017944Y010322D01*
X017976Y010399D02*
X017630Y010399D01*
X017630Y010476D02*
X018037Y010476D01*
X018116Y010553D02*
X017666Y010553D01*
X018620Y010553D02*
X019114Y010553D01*
X019047Y009858D02*
X019015Y009858D01*
X019015Y009781D02*
X019141Y009781D01*
X019109Y009549D02*
X019015Y009549D01*
X019015Y009472D02*
X019031Y009472D01*
X017810Y013102D02*
X017177Y013102D01*
X017110Y013180D02*
X017842Y013180D01*
D25*
X016793Y007645D02*
X016360Y007645D01*
X015848Y007133D01*
X016183Y006799D01*
X016183Y004850D01*
X015760Y004427D01*
X015169Y004427D01*
X014923Y004181D01*
X014923Y003876D01*
X013358Y003876D01*
X012571Y004663D01*
X012571Y006787D01*
X014529Y007645D02*
X015336Y007645D01*
X015848Y007133D01*
D26*
X015848Y007133D03*
D27*
X015130Y007271D03*
X015937Y008147D03*
X015602Y008315D03*
X015317Y008551D03*
X013860Y008078D03*
X014155Y010490D03*
X014096Y010962D03*
X012374Y011700D03*
X010700Y011710D03*
X008569Y011027D03*
X010858Y014027D03*
X015917Y012291D03*
X016301Y011100D03*
X017078Y009722D03*
X018870Y010736D03*
X019165Y012507D03*
X019421Y013994D03*
X020799Y014063D03*
X020809Y012685D03*
X020809Y011444D03*
X020809Y010194D03*
X020868Y008295D03*
X020854Y006675D03*
X018624Y005315D03*
X017689Y005204D03*
X017689Y005795D03*
X016803Y004712D03*
X015878Y005007D03*
X014263Y004889D03*
X013773Y003496D03*
X012285Y004309D03*
X011980Y005401D03*
X008488Y006771D03*
X008435Y003492D03*
X018624Y003496D03*
X017492Y013994D03*
M02*
