%
M48
M72
T01C0.0118
T02C0.0157
T03C0.0315
T04C0.0320
T05C0.0354
T06C0.0360
T07C0.0394
T08C0.0400
T09C0.0827
T10C0.1063
%
T01
X8435Y3492
X8488Y6771
X11980Y5401
X12285Y4309
X13773Y3496
X14263Y4889
X15878Y5007
X16803Y4712
X17689Y5204
X17689Y5795
X18624Y5315
X18624Y3496
X20854Y6675
X20868Y8295
X20809Y10194
X20809Y11444
X20809Y12685
X20799Y14063
X19421Y13994
X19165Y12507
X17492Y13994
X15917Y12291
X16301Y11100
X17078Y9722
X15937Y8147
X15602Y8315
X15317Y8551
X15130Y7271
X13860Y8078
X14155Y10490
X14096Y10962
X12374Y11700
X10700Y11710
X8569Y11027
X10858Y14027
X18870Y10736
T02
X15848Y7133
T03
X15637Y13935
X14637Y13935
X13637Y13935
T04
X14854Y12980
X14854Y11980
X18169Y11980
X18169Y12980
X11515Y12980
X11515Y11980
T05
X18368Y10173
X19366Y10173
X19366Y9173
X18368Y9173
X18368Y8173
X19366Y8173
T06
X17285Y3876
X16498Y3876
X15710Y3876
X14923Y3876
T07
X12571Y6787
X12571Y7771
X12571Y8756
X11405Y9173
X10405Y9173
X9405Y9173
X9405Y10173
X10405Y10173
X11405Y10173
X11405Y8173
X10405Y8173
X9405Y8173
T08
X8857Y5992
X8857Y4212
X11417Y4212
X11417Y5992
T09
X15326Y5862
X15326Y9681
T10
X20334Y5244
X9311Y13189
M30
